<svg xmlns="http://www.w3.org/2000/svg" xmlns:xlink="http://www.w3.org/1999/xlink" width="110" zoomAndPan="magnify" viewBox="0 0 82.5 30.000001" height="40" preserveAspectRatio="xMidYMid meet" version="1.0"><defs><g/><clipPath id="4adc914187"><path d="M 4.007812 15 L 12 15 L 12 22.957031 L 4.007812 22.957031 Z M 4.007812 15 " clip-rule="nonzero"/></clipPath><clipPath id="32668cec09"><path d="M 12 15 L 20 15 L 20 22.957031 L 12 22.957031 Z M 12 15 " clip-rule="nonzero"/></clipPath><clipPath id="6c5f12e00e"><path d="M 12 7.621094 L 20 7.621094 L 20 15 L 12 15 Z M 12 7.621094 " clip-rule="nonzero"/></clipPath><clipPath id="ed239d5c5a"><path d="M 4.007812 7.621094 L 12 7.621094 L 12 15 L 4.007812 15 Z M 4.007812 7.621094 " clip-rule="nonzero"/></clipPath><clipPath id="390b17f589"><path d="M 51 12 L 51.472656 12 L 51.472656 21 L 51 21 Z M 51 12 " clip-rule="nonzero"/></clipPath></defs><g clip-path="url(#4adc914187)"><path fill="#6b7ae5" d="M 4.019531 16.734375 C 4.019531 16.21875 4.4375 15.800781 4.949219 15.800781 L 8.785156 15.800781 C 10.035156 15.800781 11.050781 16.820312 11.050781 18.082031 L 11.050781 22.019531 C 11.050781 22.539062 10.636719 22.957031 10.125 22.957031 L 4.949219 22.957031 C 4.4375 22.957031 4.019531 22.539062 4.019531 22.019531 Z M 4.019531 16.734375 " fill-opacity="1" fill-rule="nonzero"/></g><g clip-path="url(#32668cec09)"><path fill="#6b7ae5" d="M 12.082031 18.082031 C 12.082031 16.820312 13.121094 15.800781 14.402344 15.800781 L 18.332031 15.800781 C 18.855469 15.800781 19.28125 16.21875 19.28125 16.734375 L 19.28125 22.019531 C 19.28125 22.539062 18.855469 22.957031 18.332031 22.957031 L 13.03125 22.957031 C 12.503906 22.957031 12.082031 22.539062 12.082031 22.019531 Z M 12.082031 18.082031 " fill-opacity="1" fill-rule="nonzero"/></g><g clip-path="url(#6c5f12e00e)"><path fill="#6b7ae5" d="M 12.082031 8.578125 C 12.082031 8.050781 12.503906 7.621094 13.03125 7.621094 L 18.332031 7.621094 C 18.855469 7.621094 19.28125 8.050781 19.28125 8.578125 L 19.28125 13.992188 C 19.28125 14.519531 18.855469 14.949219 18.332031 14.949219 L 14.402344 14.949219 C 13.121094 14.949219 12.082031 13.902344 12.082031 12.609375 Z M 12.082031 8.578125 " fill-opacity="1" fill-rule="nonzero"/></g><g clip-path="url(#ed239d5c5a)"><path fill="#6b7ae5" d="M 4.019531 8.578125 C 4.019531 8.050781 4.4375 7.621094 4.949219 7.621094 L 10.125 7.621094 C 10.636719 7.621094 11.050781 8.050781 11.050781 8.578125 L 11.050781 12.609375 C 11.050781 13.902344 10.035156 14.949219 8.785156 14.949219 L 4.949219 14.949219 C 4.4375 14.949219 4.019531 14.519531 4.019531 13.992188 Z M 4.019531 8.578125 " fill-opacity="1" fill-rule="nonzero"/></g><path fill="#1d1c3e" d="M 33.402344 19.890625 L 31.460938 16.449219 C 32.359375 16.136719 33.359375 15.265625 33.359375 13.636719 C 33.359375 11.894531 32.160156 10.515625 30.046875 10.515625 L 25.285156 10.515625 L 25.285156 19.890625 L 27.738281 19.890625 L 27.738281 16.742188 L 28.992188 16.742188 L 30.589844 19.890625 Z M 29.675781 14.632812 L 27.738281 14.632812 L 27.738281 12.625 L 29.675781 12.625 C 30.332031 12.625 30.863281 12.976562 30.863281 13.621094 C 30.863281 14.285156 30.332031 14.632812 29.675781 14.632812 Z M 29.675781 14.632812 " fill-opacity="1" fill-rule="nonzero"/><path fill="#1d1c3e" d="M 41.503906 19.890625 L 41.503906 13.101562 L 39.308594 13.101562 L 39.308594 17.488281 C 39.050781 17.808594 38.625 18.148438 37.996094 18.148438 C 37.28125 18.148438 36.855469 17.867188 36.855469 17.039062 L 36.855469 13.101562 L 34.65625 13.101562 L 34.65625 17.9375 C 34.65625 19.171875 35.371094 20.058594 36.925781 20.058594 C 38.09375 20.058594 38.878906 19.554688 39.308594 19.074219 L 39.308594 19.890625 Z M 41.503906 19.890625 " fill-opacity="1" fill-rule="nonzero"/><path fill="#1d1c3e" d="M 45.296875 17.542969 L 45.296875 15.464844 C 45.566406 15.097656 46.136719 14.84375 46.609375 14.84375 C 47.480469 14.84375 48.136719 15.476562 48.136719 16.488281 C 48.136719 17.515625 47.480469 18.148438 46.609375 18.148438 C 46.136719 18.148438 45.566406 17.910156 45.296875 17.542969 Z M 45.296875 19.890625 L 45.296875 19.101562 C 45.867188 19.75 46.566406 20.058594 47.335938 20.058594 C 49.035156 20.058594 50.375 18.792969 50.375 16.488281 C 50.375 14.269531 49.0625 12.933594 47.335938 12.933594 C 46.582031 12.933594 45.839844 13.230469 45.296875 13.902344 L 45.296875 10.515625 L 43.101562 10.515625 L 43.101562 19.890625 Z M 45.296875 19.890625 " fill-opacity="1" fill-rule="nonzero"/><g clip-path="url(#390b17f589)"><path fill="#1d1c3e" d="M 54.835938 20.058594 C 55.964844 20.058594 56.605469 19.636719 57.191406 18.921875 L 56.878906 18.652344 C 56.320312 19.398438 55.664062 19.679688 54.867188 19.679688 C 53.097656 19.679688 52.054688 18.261719 52.054688 16.488281 C 52.054688 14.71875 53.097656 13.3125 54.867188 13.3125 C 55.664062 13.3125 56.320312 13.582031 56.878906 14.324219 L 57.191406 14.074219 C 56.605469 13.355469 55.964844 12.933594 54.835938 12.933594 C 52.839844 12.933594 51.585938 14.535156 51.585938 16.488281 C 51.585938 18.441406 52.839844 20.058594 54.835938 20.058594 Z M 54.835938 20.058594 " fill-opacity="1" fill-rule="nonzero"/></g><g fill="#1d1c3e" fill-opacity="1"><g transform="translate(50.462057, 19.948569)"><g><path d="M 7.421875 -2.75 C 7.421875 -2.269531 7.347656 -1.851562 7.203125 -1.5 C 7.054688 -1.15625 6.835938 -0.867188 6.546875 -0.640625 C 6.253906 -0.421875 5.894531 -0.257812 5.46875 -0.15625 C 5.050781 -0.0507812 4.5625 0 4 0 L 1.4375 0 L 1.4375 -9.296875 L 4.015625 -9.296875 C 4.535156 -9.296875 4.972656 -9.253906 5.328125 -9.171875 C 5.679688 -9.085938 5.960938 -8.957031 6.171875 -8.78125 C 6.390625 -8.601562 6.546875 -8.382812 6.640625 -8.125 C 6.734375 -7.875 6.78125 -7.578125 6.78125 -7.234375 C 6.78125 -6.671875 6.664062 -6.210938 6.4375 -5.859375 C 6.207031 -5.515625 5.84375 -5.257812 5.34375 -5.09375 C 5.625 -5.050781 5.890625 -4.972656 6.140625 -4.859375 C 6.390625 -4.753906 6.609375 -4.601562 6.796875 -4.40625 C 6.992188 -4.21875 7.144531 -3.988281 7.25 -3.71875 C 7.363281 -3.445312 7.421875 -3.125 7.421875 -2.75 Z M 6.140625 -7.109375 C 6.140625 -7.410156 6.101562 -7.664062 6.03125 -7.875 C 5.96875 -8.082031 5.84375 -8.253906 5.65625 -8.390625 C 5.476562 -8.523438 5.226562 -8.625 4.90625 -8.6875 C 4.59375 -8.75 4.179688 -8.78125 3.671875 -8.78125 L 2.015625 -8.78125 L 2.015625 -5.203125 L 3.625 -5.203125 C 4.457031 -5.203125 5.082031 -5.347656 5.5 -5.640625 C 5.925781 -5.941406 6.140625 -6.429688 6.140625 -7.109375 Z M 6.78125 -2.703125 C 6.78125 -3.140625 6.707031 -3.488281 6.5625 -3.75 C 6.425781 -4.007812 6.226562 -4.207031 5.96875 -4.34375 C 5.707031 -4.488281 5.398438 -4.578125 5.046875 -4.609375 C 4.703125 -4.648438 4.320312 -4.671875 3.90625 -4.671875 L 2.015625 -4.671875 L 2.015625 -0.53125 L 3.71875 -0.53125 C 4.226562 -0.53125 4.671875 -0.5625 5.046875 -0.625 C 5.429688 -0.6875 5.753906 -0.800781 6.015625 -0.96875 C 6.273438 -1.132812 6.46875 -1.359375 6.59375 -1.640625 C 6.71875 -1.921875 6.78125 -2.273438 6.78125 -2.703125 Z M 6.78125 -2.703125 "/></g></g></g><g fill="#1d1c3e" fill-opacity="1"><g transform="translate(58.830075, 19.948569)"><g><path d="M 5.296875 0 L 5.296875 -1.171875 C 5.078125 -0.960938 4.863281 -0.773438 4.65625 -0.609375 C 4.457031 -0.441406 4.253906 -0.296875 4.046875 -0.171875 C 3.847656 -0.0546875 3.640625 0.03125 3.421875 0.09375 C 3.210938 0.164062 2.988281 0.203125 2.75 0.203125 C 2.414062 0.203125 2.128906 0.15625 1.890625 0.0625 C 1.660156 -0.03125 1.472656 -0.171875 1.328125 -0.359375 C 1.179688 -0.546875 1.070312 -0.773438 1 -1.046875 C 0.925781 -1.316406 0.890625 -1.628906 0.890625 -1.984375 C 0.890625 -2.285156 0.925781 -2.566406 1 -2.828125 C 1.070312 -3.085938 1.210938 -3.316406 1.421875 -3.515625 C 1.640625 -3.722656 1.941406 -3.894531 2.328125 -4.03125 C 2.710938 -4.175781 3.21875 -4.273438 3.84375 -4.328125 L 5.296875 -4.46875 L 5.296875 -4.84375 C 5.296875 -5.164062 5.265625 -5.445312 5.203125 -5.6875 C 5.148438 -5.925781 5.050781 -6.125 4.90625 -6.28125 C 4.757812 -6.445312 4.5625 -6.566406 4.3125 -6.640625 C 4.070312 -6.722656 3.773438 -6.765625 3.421875 -6.765625 C 3.128906 -6.765625 2.878906 -6.738281 2.671875 -6.6875 C 2.460938 -6.632812 2.28125 -6.566406 2.125 -6.484375 C 1.976562 -6.398438 1.851562 -6.300781 1.75 -6.1875 C 1.65625 -6.070312 1.570312 -5.953125 1.5 -5.828125 L 1.078125 -6.09375 C 1.179688 -6.269531 1.300781 -6.429688 1.4375 -6.578125 C 1.570312 -6.722656 1.734375 -6.84375 1.921875 -6.9375 C 2.109375 -7.039062 2.320312 -7.117188 2.5625 -7.171875 C 2.8125 -7.222656 3.097656 -7.25 3.421875 -7.25 C 3.867188 -7.25 4.25 -7.203125 4.5625 -7.109375 C 4.882812 -7.015625 5.140625 -6.863281 5.328125 -6.65625 C 5.523438 -6.457031 5.664062 -6.203125 5.75 -5.890625 C 5.832031 -5.585938 5.875 -5.222656 5.875 -4.796875 L 5.875 0 Z M 5.296875 -3.984375 L 3.890625 -3.84375 C 3.390625 -3.789062 2.984375 -3.71875 2.671875 -3.625 C 2.367188 -3.53125 2.128906 -3.40625 1.953125 -3.25 C 1.773438 -3.101562 1.65625 -2.925781 1.59375 -2.71875 C 1.53125 -2.519531 1.5 -2.285156 1.5 -2.015625 C 1.5 -1.410156 1.597656 -0.96875 1.796875 -0.6875 C 1.992188 -0.414062 2.320312 -0.28125 2.78125 -0.28125 C 2.9375 -0.28125 3.085938 -0.296875 3.234375 -0.328125 C 3.390625 -0.367188 3.5625 -0.441406 3.75 -0.546875 C 3.9375 -0.648438 4.148438 -0.796875 4.390625 -0.984375 C 4.640625 -1.179688 4.941406 -1.4375 5.296875 -1.75 Z M 5.296875 -3.984375 "/></g></g></g><g fill="#1d1c3e" fill-opacity="1"><g transform="translate(65.961374, 19.948569)"><g><path d="M 5.625 0 L 5.625 -4.609375 C 5.625 -5.046875 5.597656 -5.398438 5.546875 -5.671875 C 5.503906 -5.953125 5.429688 -6.171875 5.328125 -6.328125 C 5.222656 -6.484375 5.09375 -6.585938 4.9375 -6.640625 C 4.78125 -6.703125 4.59375 -6.734375 4.375 -6.734375 C 4.039062 -6.734375 3.664062 -6.613281 3.25 -6.375 C 2.84375 -6.132812 2.390625 -5.757812 1.890625 -5.25 L 1.890625 0 L 1.3125 0 L 1.3125 -7.046875 L 1.890625 -7.046875 L 1.890625 -5.859375 C 2.128906 -6.085938 2.359375 -6.285156 2.578125 -6.453125 C 2.796875 -6.628906 3.003906 -6.773438 3.203125 -6.890625 C 3.410156 -7.015625 3.613281 -7.101562 3.8125 -7.15625 C 4.019531 -7.21875 4.222656 -7.25 4.421875 -7.25 C 4.785156 -7.25 5.082031 -7.191406 5.3125 -7.078125 C 5.550781 -6.972656 5.734375 -6.8125 5.859375 -6.59375 C 5.992188 -6.375 6.082031 -6.101562 6.125 -5.78125 C 6.175781 -5.46875 6.203125 -5.109375 6.203125 -4.703125 L 6.203125 0 Z M 5.625 0 "/></g></g></g><g fill="#1d1c3e" fill-opacity="1"><g transform="translate(73.422016, 19.948569)"><g><path d="M 5.484375 0 L 2.75 -3.421875 L 1.890625 -2.5 L 1.890625 0 L 1.3125 0 L 1.3125 -10.015625 L 1.890625 -10.015625 L 1.890625 -3.171875 L 5.34375 -7.046875 L 6.0625 -7.046875 L 3.140625 -3.8125 L 6.21875 0 Z M 5.484375 0 "/></g></g></g></svg>