<svg xmlns="http://www.w3.org/2000/svg" xmlns:xlink="http://www.w3.org/1999/xlink" width="1440" zoomAndPan="magnify" viewBox="0 0 1080 767.999994" height="1024" preserveAspectRatio="xMidYMid meet" version="1.0"><defs><clipPath id="ab9c4d0e25"><path d="M 0 255 L 1080 255 L 1080 750 L 0 750 Z M 0 255 " clip-rule="nonzero"/></clipPath><clipPath id="80f07f998d"><path d="M -393.914062 302.785156 L 1580.011719 245.636719 L 1596.789062 825.144531 L -377.132812 882.292969 Z M -393.914062 302.785156 " clip-rule="nonzero"/></clipPath><clipPath id="61ab51ba57"><path d="M -393.914062 302.785156 L 1580.011719 245.636719 L 1596.789062 825.144531 L -377.132812 882.292969 Z M -393.914062 302.785156 " clip-rule="nonzero"/></clipPath><clipPath id="43a08b5398"><path d="M 0 312 L 1080 312 L 1080 768 L 0 768 Z M 0 312 " clip-rule="nonzero"/></clipPath><clipPath id="55a9c72356"><path d="M -393.914062 302.785156 L 1580.011719 245.636719 L 1596.789062 825.144531 L -377.132812 882.292969 Z M -393.914062 302.785156 " clip-rule="nonzero"/></clipPath><clipPath id="ea2a831e5b"><path d="M -393.914062 302.785156 L 1580.011719 245.636719 L 1596.789062 825.144531 L -377.132812 882.292969 Z M -393.914062 302.785156 " clip-rule="nonzero"/></clipPath></defs><g clip-path="url(#ab9c4d0e25)"><g clip-path="url(#80f07f998d)"><g clip-path="url(#61ab51ba57)"><path fill="#2c2e5f" d="M 1187.394531 260.121094 C 1174.828125 261.5625 1153.859375 264.933594 1140.710938 267.46875 C 1115.488281 272.5 1071.523438 283.453125 1067.59375 285.871094 C 1066.234375 286.679688 1056.488281 289.882812 1045.820312 293.265625 C 1018.695312 301.578125 975.511719 318.351562 944.257812 332.777344 C 910.726562 348.347656 790.234375 413.765625 782.28125 420.601562 C 779.886719 422.824219 762.207031 433.476562 710.507812 464.171875 C 693.125 474.511719 677.710938 483.714844 676.503906 484.519531 C 662.167969 493.847656 590.722656 532.796875 564.488281 545.386719 C 557.359375 548.820312 550.242188 552.5625 548.582031 553.683594 C 539.230469 559.949219 465.746094 592.195312 422.566406 608.964844 C 408.425781 614.445312 393.980469 620.089844 390.636719 621.417969 C 376.351562 627.207031 317.550781 646.121094 289.335938 654.007812 C 198.433594 679.535156 113.597656 696.746094 41.703125 704.203125 C 14.722656 706.984375 -52.257812 708.921875 -77.511719 707.65625 C -109.234375 705.960938 -151.65625 701.042969 -166.070312 697.15625 C -169.945312 696.039062 -182.476562 693.328125 -193.921875 691.050781 C -235.839844 682.429688 -338.96875 651.914062 -360.171875 641.925781 C -363.289062 640.476562 -369.511719 637.890625 -373.863281 636.328125 L -381.632812 633.480469 L -380.496094 672.785156 L -364.480469 678.929688 C -300.875 703.828125 -228.28125 725.699219 -173.386719 736.554688 C -56.632812 759.605469 68.023438 752.921875 224.214844 714.902344 C 262.539062 705.648438 326.277344 687.359375 334.007812 683.449219 C 335.671875 682.476562 348.304688 678.117188 362.164062 673.566406 C 406.789062 658.75 479.601562 629.90625 504.289062 617.050781 C 509.289062 614.445312 525.058594 606.769531 539.15625 599.90625 C 602.691406 569.175781 678.929688 525.785156 768.335938 470.027344 C 780.417969 462.457031 794.316406 453.910156 799.308594 451.152344 C 804.300781 448.242188 819.417969 439.351562 833.027344 431.425781 C 889.269531 398.449219 913.792969 385.140625 949.722656 367.503906 C 966.707031 359.328125 981.710938 351.824219 983.070312 351.015625 C 988.359375 347.789062 1026.519531 332.855469 1051.636719 324.136719 C 1131.09375 296.480469 1190.886719 285.222656 1270.621094 282.914062 C 1376.007812 279.863281 1483.601562 294.574219 1556.667969 322.269531 C 1579.835938 331.128906 1577.691406 331.496094 1577.308594 318.292969 L 1576.980469 306.929688 L 1571.214844 304.332031 C 1545.824219 292.925781 1509.074219 282.15625 1458.324219 271.179688 C 1429.386719 264.796875 1367.378906 257.984375 1316.566406 255.460938 C 1289.160156 254.101562 1215.125 256.707031 1187.394531 260.121094 Z M 1187.394531 260.121094 " fill-opacity="1" fill-rule="nonzero"/></g></g></g><g clip-path="url(#43a08b5398)"><g clip-path="url(#55a9c72356)"><g clip-path="url(#ea2a831e5b)"><path fill="#2c2e5f" d="M 1192.066406 315.308594 C 1109.605469 324.304688 1020.726562 350.542969 934.425781 391.457031 C 893.167969 410.9375 827.480469 446.957031 772.476562 480.203125 C 758.425781 488.753906 731.226562 505.214844 712.035156 516.835938 C 544.449219 618.039062 406.40625 677.511719 242.167969 718.992188 C 147.230469 743.101562 71.148438 754.675781 -6.738281 756.933594 C -56.820312 758.382812 -76.0625 757.710938 -117.414062 752.605469 C -187.320312 743.875 -281.871094 717.566406 -378.289062 679.945312 C -379.84375 679.375 -379.703125 700.117188 -377.371094 780.726562 L -374.433594 882.214844 L 1591.988281 825.28125 L 1578.800781 369.726562 L 1560.582031 361.804688 C 1502.808594 336.585938 1438.292969 322.777344 1341.1875 314.523438 C 1319.140625 312.550781 1301.914062 312.28125 1256.585938 313.285156 C 1225.394531 314.035156 1196.359375 314.875 1192.066406 315.308594 Z M 1192.066406 315.308594 " fill-opacity="1" fill-rule="nonzero"/></g></g></g></svg>