<svg width="1440" height="1024" viewBox="0 0 1440 1024" fill="none" xmlns="http://www.w3.org/2000/svg">
<path d="M1158.18 634.19C1097.66 639.132 1032.08 656.82 968.062 685.531C937.462 699.2 888.636 724.697 847.684 748.358C837.223 754.442 816.974 766.158 802.686 774.426C677.921 846.439 575.659 887.9 454.612 915.351C384.634 931.315 328.724 938.323 271.685 938.323C235.01 938.323 220.946 937.405 190.795 932.692C139.837 924.654 71.2124 902.947 1.45865 872.742C0.3346 872.283 0 887.788 0 948.085V1024H1440V683.235L1426.84 676.916C1385.1 656.82 1338.19 645.105 1267.31 636.832C1251.22 634.883 1238.62 634.307 1205.43 634.078C1182.6 633.96 1161.34 633.96 1158.18 634.19Z" fill="#2C2E5F"/>
<mask id="mask0_24_38" style="mask-type:alpha" maskUnits="userSpaceOnUse" x="0" y="556" width="1451" height="362">
<path d="M0 556H1451V918H0V556Z" fill="white"/>
</mask>
<g mask="url(#mask0_24_38)">
<path d="M1164.22 558.463C1154.94 559.314 1139.42 561.495 1129.68 563.191C1111 566.59 1078.38 574.227 1075.44 576.047C1074.42 576.656 1067.17 578.956 1059.25 581.385C1039.09 587.325 1006.93 599.578 983.601 610.247C958.571 621.767 868.431 670.643 862.426 675.862C860.616 677.559 847.364 685.562 808.636 708.602C795.61 716.369 784.064 723.279 783.153 723.887C772.396 730.921 718.948 760.026 699.355 769.365C694.034 771.913 688.708 774.702 687.466 775.548C680.441 780.282 625.634 804.049 593.468 816.302C582.938 820.304 572.181 824.424 569.691 825.393C559.045 829.643 515.333 843.226 494.382 848.8C426.887 866.875 364.039 878.513 310.923 882.763C290.993 884.335 241.618 884.335 223.045 882.763C199.721 880.7 168.576 875.848 158.045 872.455C155.214 871.48 146.041 869.056 137.663 866.993C106.97 859.232 31.6659 832.793 16.2618 824.424C13.9989 823.212 9.46766 821.031 6.29949 819.695L0.63678 817.272V848.315L12.299 853.534C58.6164 874.636 111.612 893.556 151.814 903.38C237.318 924.239 329.268 921.81 445.122 895.371C473.546 888.946 520.88 875.972 526.658 873.058C527.9 872.331 537.299 869.18 547.609 865.905C580.785 855.231 635.034 834.129 653.49 824.548C657.227 822.609 669.005 816.905 679.535 811.81C726.984 789.012 784.064 756.509 851.101 714.548C860.163 708.845 870.578 702.42 874.32 700.357C878.056 698.176 889.376 691.503 899.57 685.562C941.699 660.82 960.045 650.878 986.885 637.779C999.568 631.715 1010.78 626.135 1011.8 625.527C1015.76 623.103 1044.19 612.186 1062.87 605.885C1121.98 585.871 1166.26 578.353 1225.03 578.353C1302.72 578.353 1381.65 592.42 1434.88 615.951C1451.75 623.469 1450.17 623.712 1450.17 613.279V604.307L1445.97 602.12C1427.52 592.544 1400.68 583.205 1363.53 573.381C1342.36 567.678 1296.83 560.886 1259.46 557.736C1239.31 556.039 1184.72 556.4 1164.22 558.463Z" fill="#2C2E5F"/>
</g>
</svg>
