<svg xmlns="http://www.w3.org/2000/svg" xmlns:xlink="http://www.w3.org/1999/xlink" width="72" zoomAndPan="magnify" viewBox="0 0 54 54" height="72" preserveAspectRatio="xMidYMid meet" version="1.0"><defs><clipPath id="33f0472e64"><path d="M 0.492188 0 L 53.507812 0 L 53.507812 53.019531 L 0.492188 53.019531 Z M 0.492188 0 " clip-rule="nonzero"/></clipPath><clipPath id="c69048c76b"><path d="M 53.507812 26.507812 C 53.507812 41.148438 41.640625 53.019531 27 53.019531 C 12.359375 53.019531 0.492188 41.148438 0.492188 26.507812 C 0.492188 11.867188 12.359375 0 27 0 C 41.640625 0 53.507812 11.867188 53.507812 26.507812 Z M 53.507812 26.507812 " clip-rule="nonzero"/></clipPath><clipPath id="594dcb8ff3"><path d="M 8 5.671875 L 46 5.671875 L 46 47.644531 L 8 47.644531 Z M 8 5.671875 " clip-rule="nonzero"/></clipPath></defs><g clip-path="url(#33f0472e64)"><g clip-path="url(#c69048c76b)"><path fill="#6b7ae5" d="M 0.492188 0 L 53.507812 0 L 53.507812 53.019531 L 0.492188 53.019531 Z M 0.492188 0 " fill-opacity="1" fill-rule="nonzero"/></g></g><g clip-path="url(#594dcb8ff3)"><path fill="#ffffff" d="M 14.460938 5.648438 C 13.605469 5.648438 12.738281 5.871094 11.949219 6.332031 C 9.535156 7.734375 8.703125 10.855469 10.097656 13.285156 C 11.488281 15.714844 14.589844 16.550781 17.003906 15.148438 C 19.417969 13.746094 20.246094 10.625 18.851562 8.195312 C 17.984375 6.675781 16.445312 5.78125 14.828125 5.664062 C 14.703125 5.664062 14.582031 5.644531 14.460938 5.644531 Z M 36.75 6.386719 C 33.441406 6.316406 30.375 8.476562 29.398438 11.796875 C 28.53125 11.488281 27.597656 11.316406 26.621094 11.316406 C 22.804688 11.316406 19.605469 13.914062 18.679688 17.449219 C 18.648438 17.433594 18.613281 17.417969 18.578125 17.410156 C 18.269531 17.328125 17.945312 17.292969 17.625 17.296875 C 16.664062 17.324219 15.710938 17.753906 15.125 18.578125 C 15.117188 18.589844 15.113281 18.597656 15.105469 18.609375 C 13.097656 22.011719 11.164062 25.453125 9.1875 28.867188 C 8.648438 29.746094 7.914062 30.890625 8.175781 32.164062 C 8.269531 32.714844 8.503906 33.246094 8.863281 33.679688 C 8.871094 33.691406 8.878906 33.699219 8.886719 33.707031 C 9.863281 34.714844 11.804688 36.382812 13.75 38.054688 C 15.621094 39.664062 17.488281 41.269531 18.449219 42.21875 L 18.449219 47.121094 C 18.449219 47.417969 18.734375 47.628906 19.015625 47.539062 C 19.058594 47.550781 19.101562 47.558594 19.148438 47.558594 L 39.972656 47.558594 C 39.984375 47.558594 39.996094 47.558594 40.007812 47.558594 C 40.015625 47.558594 40.027344 47.558594 40.035156 47.558594 C 40.042969 47.558594 40.050781 47.558594 40.058594 47.558594 C 40.070312 47.558594 40.082031 47.558594 40.09375 47.558594 C 40.101562 47.558594 40.109375 47.558594 40.117188 47.558594 C 40.125 47.558594 40.132812 47.558594 40.140625 47.558594 C 40.148438 47.550781 40.15625 47.546875 40.164062 47.539062 C 40.167969 47.539062 40.175781 47.539062 40.183594 47.539062 C 40.191406 47.53125 40.195312 47.527344 40.203125 47.515625 C 40.210938 47.511719 40.214844 47.503906 40.222656 47.496094 C 40.230469 47.488281 40.234375 47.484375 40.242188 47.476562 C 40.25 47.46875 40.257812 47.464844 40.261719 47.457031 C 40.273438 47.449219 40.277344 47.441406 40.285156 47.4375 C 40.292969 47.429688 40.296875 47.421875 40.304688 47.417969 C 40.3125 47.410156 40.316406 47.402344 40.324219 47.398438 C 40.332031 47.390625 40.339844 47.382812 40.34375 47.375 C 40.351562 47.371094 40.359375 47.359375 40.363281 47.355469 C 40.371094 47.347656 40.378906 47.339844 40.382812 47.335938 C 40.382812 47.328125 40.382812 47.320312 40.382812 47.3125 C 40.394531 47.308594 40.398438 47.296875 40.40625 47.289062 C 40.40625 47.28125 40.40625 47.277344 40.40625 47.269531 C 40.414062 47.261719 40.417969 47.25 40.425781 47.238281 C 40.425781 47.230469 40.425781 47.21875 40.425781 47.210938 C 40.425781 47.203125 40.425781 47.195312 40.425781 47.1875 C 40.425781 47.179688 40.425781 47.167969 40.425781 47.15625 C 40.425781 47.148438 40.425781 47.132812 40.425781 47.121094 C 40.425781 47.117188 40.425781 47.109375 40.425781 47.101562 C 40.425781 47.097656 40.425781 47.089844 40.425781 47.082031 L 40.425781 38.960938 C 40.425781 36.492188 38.4375 34.492188 35.984375 34.492188 C 33.664062 34.492188 31.335938 34.492188 29.011719 34.515625 C 28.847656 34.484375 28.679688 34.554688 28.582031 34.691406 C 28.574219 34.703125 28.566406 34.714844 28.558594 34.726562 C 28.125 35.398438 27.304688 35.824219 26.515625 35.773438 C 25.796875 35.742188 25.09375 35.328125 24.699219 34.714844 C 24.621094 34.589844 24.484375 34.515625 24.335938 34.511719 C 24.316406 34.507812 24.292969 34.507812 24.269531 34.511719 L 19.097656 34.511719 C 18.019531 33.4375 16.734375 32.308594 15.664062 31.257812 C 16.597656 29.515625 17.527344 27.773438 18.460938 26.03125 C 18.855469 30.226562 22.363281 33.492188 26.636719 33.492188 C 31.183594 33.492188 34.855469 29.804688 34.855469 25.234375 L 34.855469 21.257812 C 38.78125 22.210938 42.78125 19.847656 43.851562 15.90625 C 44.945312 11.886719 42.585938 7.722656 38.59375 6.625 C 38.09375 6.488281 37.589844 6.40625 37.09375 6.371094 C 36.984375 6.371094 36.875 6.351562 36.765625 6.351562 Z M 14.414062 6.519531 C 15.882812 6.5 17.316406 7.257812 18.101562 8.632812 C 19.261719 10.652344 18.578125 13.222656 16.570312 14.390625 C 14.5625 15.558594 12.007812 14.871094 10.847656 12.847656 C 9.6875 10.828125 10.375 8.257812 12.382812 7.089844 C 12.882812 6.796875 13.417969 6.621094 13.957031 6.550781 C 14.113281 6.53125 14.265625 6.523438 14.414062 6.523438 Z M 36.6875 7.257812 C 37.234375 7.257812 37.792969 7.34375 38.34375 7.496094 C 41.886719 8.46875 43.964844 12.140625 42.996094 15.703125 C 42.027344 19.269531 38.382812 21.363281 34.84375 20.386719 L 34.84375 19.574219 C 34.84375 16.296875 32.953125 13.472656 30.207031 12.140625 C 31.039062 9.152344 33.75 7.210938 36.695312 7.257812 Z M 13.828125 7.855469 C 13.738281 7.855469 13.652344 7.855469 13.566406 7.875 C 13.332031 7.910156 13.105469 7.992188 12.898438 8.128906 C 12.0625 8.660156 11.832031 9.800781 12.363281 10.652344 C 12.671875 11.144531 13.402344 10.683594 13.097656 10.191406 C 12.804688 9.71875 12.933594 9.136719 13.359375 8.863281 C 13.785156 8.59375 14.359375 8.730469 14.652344 9.195312 C 14.722656 9.316406 14.769531 9.4375 14.792969 9.5625 C 14.8125 9.691406 14.8125 9.816406 14.792969 9.9375 C 14.769531 10.054688 14.71875 10.171875 14.652344 10.269531 C 14.273438 10.828125 14.246094 11.570312 14.570312 12.171875 C 14.570312 12.175781 14.570312 12.183594 14.570312 12.191406 C 14.589844 12.226562 14.613281 12.265625 14.644531 12.3125 C 14.945312 12.796875 15.671875 12.351562 15.382812 11.859375 C 15.363281 11.816406 15.339844 11.789062 15.328125 11.761719 C 15.164062 11.453125 15.183594 11.03125 15.367188 10.765625 C 15.5 10.566406 15.589844 10.347656 15.636719 10.121094 C 15.683594 9.890625 15.6875 9.652344 15.65625 9.417969 C 15.617188 9.183594 15.53125 8.953125 15.398438 8.738281 C 15.046875 8.179688 14.445312 7.863281 13.835938 7.863281 Z M 37.164062 9.5625 C 36.996094 9.5625 36.832031 9.582031 36.667969 9.601562 C 35.703125 9.785156 34.878906 10.546875 34.640625 11.585938 C 34.578125 11.824219 34.722656 12.0625 34.960938 12.121094 C 35.195312 12.175781 35.433594 12.023438 35.480469 11.785156 C 35.703125 10.84375 36.59375 10.269531 37.472656 10.472656 C 38.351562 10.679688 38.894531 11.582031 38.675781 12.523438 C 38.621094 12.757812 38.523438 12.96875 38.394531 13.152344 C 38.265625 13.335938 38.101562 13.492188 37.925781 13.609375 C 37.742188 13.726562 37.542969 13.808594 37.332031 13.847656 C 37.316406 13.847656 37.300781 13.847656 37.285156 13.847656 C 36.378906 14.03125 35.625 14.726562 35.355469 15.632812 C 35.355469 15.640625 35.355469 15.648438 35.355469 15.65625 C 35.335938 15.714844 35.324219 15.777344 35.300781 15.859375 C 35.238281 16.09375 35.378906 16.339844 35.613281 16.398438 C 35.851562 16.457031 36.089844 16.3125 36.144531 16.074219 C 36.164062 15.996094 36.179688 15.941406 36.191406 15.894531 C 36.367188 15.296875 36.914062 14.804688 37.492188 14.703125 C 37.507812 14.707031 37.523438 14.707031 37.535156 14.703125 C 37.84375 14.640625 38.136719 14.519531 38.398438 14.347656 C 38.671875 14.171875 38.914062 13.9375 39.105469 13.664062 C 39.296875 13.394531 39.441406 13.078125 39.523438 12.730469 C 39.847656 11.347656 39.023438 9.945312 37.671875 9.632812 C 37.503906 9.589844 37.332031 9.570312 37.167969 9.566406 Z M 26.621094 12.1875 C 30.382812 12.1875 33.457031 14.984375 33.914062 18.636719 C 32.988281 18.457031 32.097656 18.089844 31.308594 17.570312 C 31.199219 17.453125 31.03125 17.40625 30.878906 17.445312 C 30.804688 17.464844 30.734375 17.5 30.679688 17.550781 C 28.714844 18.875 26.070312 19.136719 23.878906 18.242188 C 23.417969 18.058594 22.976562 17.824219 22.558594 17.546875 C 22.480469 17.480469 22.382812 17.4375 22.28125 17.4375 C 22.277344 17.4375 22.269531 17.4375 22.261719 17.4375 C 22.152344 17.4375 22.046875 17.476562 21.964844 17.550781 C 21.167969 18.082031 20.265625 18.453125 19.328125 18.636719 C 19.785156 14.984375 22.855469 12.191406 26.621094 12.191406 Z M 15.640625 12.652344 C 15.398438 12.648438 15.195312 12.84375 15.195312 13.089844 C 15.195312 13.335938 15.398438 13.535156 15.640625 13.527344 C 15.886719 13.539062 16.089844 13.339844 16.089844 13.089844 C 16.089844 12.84375 15.886719 12.644531 15.640625 12.652344 Z M 35.316406 17.3125 C 35.074219 17.3125 34.878906 17.511719 34.878906 17.75 C 34.878906 17.992188 35.074219 18.191406 35.316406 18.1875 C 35.554688 18.191406 35.75 17.992188 35.75 17.75 C 35.75 17.511719 35.554688 17.3125 35.316406 17.3125 Z M 17.65625 18.179688 C 17.894531 18.179688 18.132812 18.199219 18.355469 18.257812 C 18.402344 18.269531 18.453125 18.277344 18.503906 18.277344 C 18.4375 18.699219 18.402344 19.132812 18.402344 19.578125 L 18.402344 24.304688 C 18.386719 24.328125 18.371094 24.347656 18.355469 24.375 C 17.15625 26.613281 15.960938 28.859375 14.761719 31.097656 C 14.664062 31.226562 14.644531 31.394531 14.707031 31.542969 C 14.707031 31.550781 14.707031 31.558594 14.707031 31.566406 C 14.734375 31.625 14.78125 31.683594 14.832031 31.726562 C 16.003906 32.898438 17.4375 34.140625 18.570312 35.277344 C 18.648438 35.355469 18.753906 35.402344 18.867188 35.402344 C 18.90625 35.417969 18.949219 35.421875 18.996094 35.421875 L 24.089844 35.421875 C 24.648438 36.160156 25.515625 36.632812 26.449219 36.675781 C 27.496094 36.742188 28.511719 36.25 29.136719 35.421875 C 31.414062 35.398438 33.691406 35.402344 35.964844 35.402344 C 37.957031 35.402344 39.542969 36.996094 39.542969 38.992188 L 39.542969 46.691406 L 34.78125 46.691406 L 34.78125 42.042969 C 34.785156 41.792969 34.585938 41.59375 34.34375 41.597656 C 34.101562 41.601562 33.914062 41.800781 33.914062 42.042969 L 33.914062 46.691406 L 19.3125 46.691406 L 19.3125 42.042969 C 19.3125 42.035156 19.3125 42.027344 19.3125 42.019531 C 19.304688 41.890625 19.242188 41.773438 19.140625 41.695312 C 18.144531 40.695312 16.230469 39.054688 14.3125 37.40625 C 12.371094 35.738281 10.433594 34.066406 9.519531 33.128906 C 9.324219 32.886719 9.179688 32.597656 9.089844 32.292969 C 9.085938 32.257812 9.082031 32.21875 9.070312 32.183594 C 9.050781 32.128906 9.035156 32.074219 9.023438 32.015625 C 9.003906 31.890625 8.996094 31.761719 8.996094 31.632812 C 8.996094 31.617188 8.996094 31.597656 8.996094 31.582031 C 9.023438 30.839844 9.46875 30.082031 9.925781 29.339844 C 11.898438 25.929688 13.828125 22.492188 15.828125 19.109375 C 16.230469 18.542969 16.941406 18.226562 17.652344 18.203125 Z M 22.261719 18.394531 C 22.671875 18.652344 23.105469 18.875 23.554688 19.054688 C 25.957031 20.035156 28.785156 19.785156 30.980469 18.398438 C 31.890625 18.96875 32.910156 19.359375 33.96875 19.53125 C 33.96875 19.554688 33.96875 19.558594 33.96875 19.574219 L 33.96875 25.265625 C 33.96875 29.363281 30.699219 32.648438 26.621094 32.648438 C 22.539062 32.648438 19.269531 29.363281 19.269531 25.265625 L 19.269531 19.574219 C 19.269531 19.554688 19.269531 19.546875 19.269531 19.53125 C 20.332031 19.355469 21.351562 18.964844 22.261719 18.394531 Z M 40.625 23.613281 C 38.363281 23.574219 36.273438 25.085938 35.660156 27.382812 C 34.941406 30.09375 36.542969 32.890625 39.234375 33.617188 C 41.925781 34.34375 44.707031 32.730469 45.425781 30.019531 C 46.148438 27.308594 44.542969 24.511719 41.851562 23.785156 C 41.515625 23.695312 41.179688 23.640625 40.84375 23.617188 C 40.769531 23.617188 40.695312 23.617188 40.625 23.617188 Z M 40.601562 24.484375 C 40.664062 24.484375 40.722656 24.484375 40.785156 24.484375 C 41.0625 24.503906 41.34375 24.546875 41.625 24.621094 C 43.863281 25.222656 45.183594 27.53125 44.585938 29.785156 C 43.984375 32.039062 41.695312 33.371094 39.457031 32.765625 C 37.214844 32.160156 35.894531 29.855469 36.492188 27.605469 C 37 25.691406 38.726562 24.445312 40.601562 24.476562 Z M 40.898438 25.6875 C 40.78125 25.6875 40.664062 25.6875 40.546875 25.714844 C 39.859375 25.851562 39.277344 26.394531 39.109375 27.132812 C 39.050781 27.367188 39.199219 27.601562 39.433594 27.65625 C 39.664062 27.710938 39.898438 27.5625 39.953125 27.328125 C 40.074219 26.789062 40.578125 26.46875 41.070312 26.578125 C 41.5625 26.691406 41.871094 27.195312 41.75 27.734375 C 41.71875 27.867188 41.664062 27.988281 41.589844 28.09375 C 41.515625 28.199219 41.425781 28.285156 41.324219 28.351562 C 41.226562 28.417969 41.113281 28.464844 41 28.488281 C 40.332031 28.609375 39.785156 29.117188 39.59375 29.777344 C 39.59375 29.78125 39.59375 29.789062 39.59375 29.796875 C 39.574219 29.839844 39.574219 29.878906 39.558594 29.933594 C 39.425781 30.496094 40.257812 30.703125 40.402344 30.144531 C 40.421875 30.09375 40.421875 30.058594 40.429688 30.03125 C 40.527344 29.699219 40.84375 29.414062 41.15625 29.355469 C 41.386719 29.3125 41.601562 29.222656 41.796875 29.09375 C 41.992188 28.964844 42.160156 28.800781 42.296875 28.605469 C 42.433594 28.410156 42.535156 28.183594 42.59375 27.9375 C 42.816406 26.957031 42.226562 25.957031 41.257812 25.738281 C 41.136719 25.710938 41.015625 25.695312 40.898438 25.695312 Z M 26.617188 28.699219 C 25.699219 28.699219 24.78125 29.03125 24.09375 29.683594 C 23.917969 29.847656 23.910156 30.125 24.070312 30.300781 C 24.238281 30.476562 24.515625 30.488281 24.6875 30.316406 C 25.699219 29.355469 27.535156 29.351562 28.546875 30.316406 C 28.71875 30.492188 29 30.488281 29.164062 30.308594 C 29.332031 30.128906 29.320312 29.847656 29.144531 29.683594 C 28.453125 29.027344 27.535156 28.699219 26.617188 28.699219 Z M 39.714844 30.757812 C 39.476562 30.757812 39.277344 30.953125 39.277344 31.195312 C 39.277344 31.441406 39.476562 31.636719 39.714844 31.632812 C 39.960938 31.636719 40.15625 31.441406 40.15625 31.195312 C 40.15625 30.953125 39.960938 30.757812 39.714844 30.757812 Z M 39.714844 30.757812 " fill-opacity="1" fill-rule="nonzero"/></g></svg>