<svg xmlns="http://www.w3.org/2000/svg" xmlns:xlink="http://www.w3.org/1999/xlink" width="72" zoomAndPan="magnify" viewBox="0 0 54 54" height="72" preserveAspectRatio="xMidYMid meet" version="1.0"><defs><clipPath id="036b01c624"><path d="M 0.492188 0 L 53.507812 0 L 53.507812 53.019531 L 0.492188 53.019531 Z M 0.492188 0 " clip-rule="nonzero"/></clipPath><clipPath id="03f2f1ca52"><path d="M 53.507812 26.507812 C 53.507812 41.148438 41.640625 53.019531 27 53.019531 C 12.359375 53.019531 0.492188 41.148438 0.492188 26.507812 C 0.492188 11.867188 12.359375 0 27 0 C 41.640625 0 53.507812 11.867188 53.507812 26.507812 Z M 53.507812 26.507812 " clip-rule="nonzero"/></clipPath><clipPath id="6bb9210df9"><path d="M 7.167969 13 L 19 13 L 19 23 L 7.167969 23 Z M 7.167969 13 " clip-rule="nonzero"/></clipPath><clipPath id="3b1b30a698"><path d="M 7.167969 17 L 46 17 L 46 45.785156 L 7.167969 45.785156 Z M 7.167969 17 " clip-rule="nonzero"/></clipPath><clipPath id="f9b2c81158"><path d="M 35 29 L 46.929688 29 L 46.929688 39 L 35 39 Z M 35 29 " clip-rule="nonzero"/></clipPath><clipPath id="6be7a9468c"><path d="M 15 7.492188 L 35 7.492188 L 35 23 L 15 23 Z M 15 7.492188 " clip-rule="nonzero"/></clipPath></defs><g clip-path="url(#036b01c624)"><g clip-path="url(#03f2f1ca52)"><path fill="#6b7ae5" d="M 0.492188 0 L 53.507812 0 L 53.507812 53.019531 L 0.492188 53.019531 Z M 0.492188 0 " fill-opacity="1" fill-rule="nonzero"/></g></g><g clip-path="url(#6bb9210df9)"><path fill="#ffffff" d="M 17.828125 22.683594 L 11.648438 22.683594 C 11.335938 22.683594 11.027344 22.648438 10.722656 22.582031 C 10.421875 22.515625 10.125 22.417969 9.84375 22.289062 C 9.558594 22.160156 9.292969 22 9.042969 21.8125 C 8.792969 21.625 8.566406 21.414062 8.363281 21.179688 C 8.15625 20.941406 7.980469 20.6875 7.832031 20.414062 C 7.679688 20.140625 7.5625 19.851562 7.472656 19.550781 C 7.382812 19.253906 7.328125 18.945312 7.304688 18.636719 C 7.28125 18.324219 7.289062 18.011719 7.332031 17.703125 C 7.40625 17.179688 7.566406 16.6875 7.816406 16.222656 C 8.070312 15.757812 8.390625 15.355469 8.789062 15.007812 C 9.183594 14.660156 9.628906 14.394531 10.121094 14.210938 C 10.613281 14.027344 11.121094 13.933594 11.648438 13.933594 L 16.683594 13.933594 C 16.75 13.933594 16.8125 13.949219 16.875 13.980469 C 16.933594 14.011719 16.980469 14.050781 17.019531 14.105469 C 17.058594 14.160156 17.082031 14.21875 17.09375 14.285156 C 17.101562 14.351562 17.097656 14.414062 17.078125 14.480469 C 16.792969 15.34375 16.65625 16.234375 16.65625 17.144531 C 16.652344 18.933594 17.15625 20.5625 18.167969 22.035156 C 18.261719 22.175781 18.269531 22.316406 18.195312 22.464844 C 18.117188 22.613281 17.996094 22.6875 17.828125 22.6875 Z M 11.648438 14.761719 C 11.222656 14.761719 10.808594 14.839844 10.410156 14.988281 C 10.011719 15.136719 9.652344 15.351562 9.332031 15.632812 C 9.007812 15.914062 8.746094 16.242188 8.542969 16.617188 C 8.339844 16.992188 8.207031 17.390625 8.148438 17.816406 C 8.128906 17.980469 8.117188 18.144531 8.117188 18.308594 C 8.117188 18.777344 8.207031 19.230469 8.386719 19.664062 C 8.566406 20.097656 8.820312 20.484375 9.152344 20.816406 C 9.484375 21.148438 9.863281 21.402344 10.296875 21.582031 C 10.730469 21.765625 11.179688 21.855469 11.648438 21.855469 L 17.082031 21.855469 C 16.46875 20.78125 16.078125 19.628906 15.914062 18.402344 C 15.75 17.175781 15.824219 15.960938 16.132812 14.761719 Z M 11.648438 14.761719 " fill-opacity="1" fill-rule="nonzero"/></g><path fill="#ffffff" d="M 42.695312 22.683594 L 32.683594 22.683594 C 32.519531 22.683594 32.398438 22.609375 32.320312 22.460938 C 32.242188 22.316406 32.25 22.171875 32.34375 22.035156 C 33.355469 20.5625 33.859375 18.933594 33.855469 17.144531 C 33.859375 16.230469 33.71875 15.34375 33.4375 14.476562 C 33.414062 14.414062 33.410156 14.347656 33.421875 14.285156 C 33.429688 14.21875 33.457031 14.15625 33.492188 14.105469 C 33.53125 14.050781 33.582031 14.007812 33.640625 13.976562 C 33.699219 13.949219 33.761719 13.933594 33.828125 13.933594 L 39.566406 13.933594 C 40.039062 13.933594 40.488281 14.023438 40.921875 14.203125 C 41.355469 14.382812 41.738281 14.640625 42.070312 14.976562 C 42.402344 15.308594 42.65625 15.691406 42.839844 16.128906 C 43.019531 16.5625 43.109375 17.015625 43.109375 17.488281 L 43.109375 22.269531 C 43.109375 22.382812 43.066406 22.480469 42.988281 22.5625 C 42.90625 22.644531 42.808594 22.683594 42.695312 22.683594 Z M 33.433594 21.855469 L 42.28125 21.855469 L 42.28125 17.488281 C 42.28125 17.125 42.210938 16.777344 42.074219 16.445312 C 41.9375 16.109375 41.742188 15.816406 41.484375 15.5625 C 41.230469 15.304688 40.9375 15.109375 40.605469 14.96875 C 40.273438 14.832031 39.925781 14.761719 39.566406 14.761719 L 34.378906 14.761719 C 34.691406 15.960938 34.761719 17.171875 34.597656 18.402344 C 34.433594 19.628906 34.042969 20.777344 33.429688 21.851562 Z M 33.433594 21.855469 " fill-opacity="1" fill-rule="nonzero"/><g clip-path="url(#3b1b30a698)"><path fill="#ffffff" d="M 42.15625 45.640625 L 11.648438 45.640625 C 11.363281 45.640625 11.078125 45.613281 10.796875 45.554688 C 10.519531 45.5 10.246094 45.417969 9.980469 45.308594 C 9.71875 45.199219 9.464844 45.0625 9.230469 44.902344 C 8.992188 44.742188 8.769531 44.5625 8.570312 44.359375 C 8.367188 44.15625 8.1875 43.9375 8.027344 43.699219 C 7.867188 43.460938 7.734375 43.207031 7.625 42.941406 C 7.515625 42.675781 7.429688 42.402344 7.375 42.121094 C 7.320312 41.839844 7.289062 41.554688 7.289062 41.269531 L 7.289062 18.308594 C 7.289062 18.195312 7.332031 18.097656 7.410156 18.015625 C 7.492188 17.933594 7.589844 17.894531 7.703125 17.894531 C 7.816406 17.894531 7.914062 17.933594 7.996094 18.015625 C 8.074219 18.097656 8.117188 18.195312 8.117188 18.308594 C 8.117188 18.777344 8.207031 19.230469 8.386719 19.664062 C 8.566406 20.097656 8.820312 20.484375 9.152344 20.816406 C 9.484375 21.148438 9.863281 21.402344 10.296875 21.582031 C 10.730469 21.765625 11.179688 21.855469 11.648438 21.855469 L 42.15625 21.855469 C 42.625 21.855469 43.074219 21.945312 43.507812 22.125 C 43.941406 22.304688 44.324219 22.5625 44.65625 22.894531 C 44.988281 23.230469 45.242188 23.613281 45.421875 24.046875 C 45.605469 24.484375 45.695312 24.9375 45.695312 25.40625 L 45.695312 29.617188 C 45.695312 29.746094 45.644531 29.851562 45.546875 29.933594 C 45.445312 30.015625 45.332031 30.046875 45.207031 30.023438 C 45.164062 30.015625 45.121094 30.015625 45.074219 30.015625 L 40.0625 30.015625 C 39.585938 30.015625 39.128906 30.105469 38.6875 30.289062 C 38.246094 30.472656 37.859375 30.734375 37.519531 31.070312 C 37.183594 31.410156 36.921875 31.800781 36.742188 32.242188 C 36.558594 32.683594 36.464844 33.144531 36.464844 33.621094 C 36.464844 34.101562 36.558594 34.5625 36.742188 35.003906 C 36.921875 35.445312 37.183594 35.839844 37.519531 36.175781 C 37.859375 36.515625 38.246094 36.777344 38.6875 36.960938 C 39.128906 37.144531 39.585938 37.238281 40.0625 37.238281 L 45.074219 37.238281 C 45.121094 37.242188 45.164062 37.238281 45.207031 37.230469 C 45.332031 37.207031 45.445312 37.238281 45.546875 37.320312 C 45.644531 37.402344 45.695312 37.507812 45.695312 37.636719 L 45.695312 42.089844 C 45.695312 42.558594 45.605469 43.011719 45.421875 43.449219 C 45.242188 43.882812 44.988281 44.265625 44.65625 44.601562 C 44.324219 44.933594 43.941406 45.191406 43.507812 45.371094 C 43.074219 45.550781 42.625 45.640625 42.15625 45.640625 Z M 8.117188 20.867188 L 8.117188 41.269531 C 8.117188 41.738281 8.207031 42.191406 8.386719 42.625 C 8.566406 43.058594 8.820312 43.441406 9.152344 43.773438 C 9.484375 44.105469 9.867188 44.363281 10.296875 44.542969 C 10.730469 44.722656 11.179688 44.8125 11.648438 44.8125 L 42.15625 44.8125 C 42.515625 44.8125 42.859375 44.742188 43.191406 44.605469 C 43.523438 44.464844 43.816406 44.269531 44.070312 44.015625 C 44.328125 43.757812 44.523438 43.464844 44.660156 43.132812 C 44.800781 42.796875 44.867188 42.449219 44.867188 42.089844 L 44.867188 38.070312 L 40.0625 38.070312 C 39.773438 38.070312 39.484375 38.039062 39.199219 37.984375 C 38.914062 37.925781 38.640625 37.839844 38.371094 37.726562 C 38.101562 37.617188 37.847656 37.480469 37.605469 37.316406 C 37.367188 37.15625 37.140625 36.96875 36.9375 36.765625 C 36.730469 36.558594 36.546875 36.332031 36.386719 36.089844 C 36.226562 35.847656 36.089844 35.59375 35.976562 35.324219 C 35.867188 35.054688 35.78125 34.777344 35.726562 34.488281 C 35.667969 34.203125 35.640625 33.914062 35.640625 33.625 C 35.640625 33.332031 35.667969 33.042969 35.726562 32.757812 C 35.78125 32.472656 35.867188 32.195312 35.976562 31.925781 C 36.089844 31.65625 36.226562 31.402344 36.386719 31.160156 C 36.550781 30.917969 36.730469 30.691406 36.9375 30.488281 C 37.144531 30.28125 37.367188 30.097656 37.609375 29.933594 C 37.847656 29.773438 38.101562 29.636719 38.371094 29.523438 C 38.640625 29.414062 38.914062 29.328125 39.199219 29.273438 C 39.484375 29.214844 39.773438 29.1875 40.0625 29.1875 L 44.867188 29.1875 L 44.867188 25.40625 C 44.867188 25.046875 44.800781 24.699219 44.660156 24.363281 C 44.523438 24.03125 44.328125 23.738281 44.074219 23.480469 C 43.816406 23.226562 43.523438 23.03125 43.191406 22.890625 C 42.859375 22.753906 42.515625 22.683594 42.15625 22.683594 L 11.648438 22.683594 C 10.949219 22.683594 10.285156 22.523438 9.664062 22.203125 C 9.042969 21.882812 8.523438 21.4375 8.117188 20.867188 Z M 8.117188 20.867188 " fill-opacity="1" fill-rule="nonzero"/></g><g clip-path="url(#f9b2c81158)"><path fill="#ffffff" d="M 45.070312 38.070312 L 40.0625 38.070312 C 39.773438 38.070312 39.484375 38.039062 39.199219 37.984375 C 38.914062 37.925781 38.636719 37.839844 38.371094 37.730469 C 38.101562 37.617188 37.847656 37.480469 37.605469 37.316406 C 37.363281 37.15625 37.140625 36.96875 36.933594 36.765625 C 36.730469 36.558594 36.546875 36.332031 36.386719 36.089844 C 36.222656 35.847656 36.085938 35.589844 35.976562 35.324219 C 35.863281 35.054688 35.78125 34.773438 35.722656 34.488281 C 35.667969 34.203125 35.640625 33.914062 35.636719 33.621094 C 35.640625 33.332031 35.667969 33.042969 35.726562 32.757812 C 35.78125 32.46875 35.867188 32.191406 35.976562 31.925781 C 36.089844 31.65625 36.226562 31.398438 36.386719 31.15625 C 36.546875 30.914062 36.730469 30.691406 36.9375 30.484375 C 37.144531 30.277344 37.367188 30.09375 37.605469 29.933594 C 37.847656 29.769531 38.101562 29.632812 38.371094 29.523438 C 38.640625 29.410156 38.914062 29.328125 39.199219 29.269531 C 39.484375 29.214844 39.773438 29.183594 40.0625 29.183594 L 45.070312 29.183594 C 45.167969 29.183594 45.261719 29.191406 45.359375 29.210938 C 45.578125 29.242188 45.78125 29.3125 45.976562 29.421875 C 46.167969 29.527344 46.335938 29.664062 46.480469 29.835938 C 46.625 30.003906 46.738281 30.191406 46.8125 30.398438 C 46.890625 30.605469 46.929688 30.820312 46.929688 31.042969 L 46.929688 36.210938 C 46.929688 36.433594 46.890625 36.648438 46.8125 36.859375 C 46.734375 37.066406 46.621094 37.257812 46.476562 37.425781 C 46.328125 37.59375 46.160156 37.730469 45.964844 37.839844 C 45.769531 37.945312 45.558594 38.015625 45.339844 38.046875 C 45.25 38.0625 45.160156 38.070312 45.070312 38.070312 Z M 40.0625 30.011719 C 39.585938 30.011719 39.128906 30.105469 38.6875 30.289062 C 38.246094 30.472656 37.859375 30.730469 37.519531 31.070312 C 37.183594 31.40625 36.921875 31.796875 36.742188 32.238281 C 36.558594 32.683594 36.464844 33.140625 36.464844 33.621094 C 36.464844 34.101562 36.554688 34.5625 36.738281 35.003906 C 36.921875 35.445312 37.183594 35.835938 37.519531 36.175781 C 37.855469 36.515625 38.246094 36.777344 38.6875 36.960938 C 39.125 37.144531 39.585938 37.238281 40.0625 37.238281 L 45.070312 37.238281 C 45.117188 37.238281 45.160156 37.238281 45.203125 37.230469 C 45.460938 37.195312 45.671875 37.082031 45.84375 36.886719 C 46.015625 36.695312 46.101562 36.46875 46.105469 36.210938 L 46.105469 31.042969 C 46.101562 30.789062 46.019531 30.5625 45.851562 30.371094 C 45.6875 30.175781 45.476562 30.0625 45.226562 30.027344 C 45.175781 30.015625 45.125 30.011719 45.074219 30.011719 Z M 40.0625 30.011719 " fill-opacity="1" fill-rule="nonzero"/></g><path fill="#ffffff" d="M 39.402344 35.316406 C 39.179688 35.320312 38.964844 35.277344 38.757812 35.191406 C 38.550781 35.105469 38.367188 34.984375 38.210938 34.824219 C 38.050781 34.664062 37.929688 34.484375 37.84375 34.277344 C 37.757812 34.066406 37.714844 33.851562 37.714844 33.628906 C 37.714844 33.402344 37.757812 33.1875 37.84375 32.980469 C 37.929688 32.773438 38.050781 32.589844 38.207031 32.429688 C 38.367188 32.273438 38.546875 32.148438 38.753906 32.0625 C 38.960938 31.976562 39.175781 31.933594 39.398438 31.933594 C 39.625 31.933594 39.839844 31.976562 40.046875 32.0625 C 40.25 32.152344 40.433594 32.273438 40.589844 32.433594 C 40.75 32.589844 40.871094 32.773438 40.957031 32.980469 C 41.042969 33.1875 41.082031 33.40625 41.082031 33.628906 C 41.082031 33.855469 41.039062 34.070312 40.953125 34.277344 C 40.871094 34.480469 40.746094 34.664062 40.589844 34.824219 C 40.433594 34.980469 40.25 35.101562 40.046875 35.1875 C 39.839844 35.273438 39.625 35.316406 39.402344 35.316406 Z M 39.402344 32.765625 C 39.164062 32.765625 38.960938 32.847656 38.792969 33.015625 C 38.625 33.183594 38.542969 33.386719 38.539062 33.625 C 38.539062 33.863281 38.621094 34.066406 38.789062 34.234375 C 38.957031 34.402344 39.160156 34.488281 39.394531 34.488281 C 39.632812 34.488281 39.835938 34.40625 40.003906 34.238281 C 40.171875 34.070312 40.257812 33.867188 40.257812 33.628906 C 40.257812 33.390625 40.175781 33.1875 40.007812 33.019531 C 39.839844 32.851562 39.640625 32.765625 39.402344 32.765625 Z M 39.402344 32.765625 " fill-opacity="1" fill-rule="nonzero"/><path fill="#ffffff" d="M 16.71875 30.351562 C 16.535156 30.351562 16.40625 30.269531 16.335938 30.097656 C 16.265625 29.925781 16.296875 29.777344 16.425781 29.644531 L 18.832031 27.226562 C 18.980469 27.078125 19.054688 26.902344 19.054688 26.695312 L 19.054688 22.265625 C 19.054688 22.152344 19.09375 22.054688 19.175781 21.972656 C 19.253906 21.894531 19.351562 21.851562 19.464844 21.851562 C 19.578125 21.851562 19.675781 21.894531 19.757812 21.972656 C 19.839844 22.054688 19.878906 22.152344 19.878906 22.265625 L 19.878906 26.695312 C 19.878906 27.132812 19.726562 27.503906 19.417969 27.8125 L 17.007812 30.230469 C 16.929688 30.3125 16.832031 30.351562 16.71875 30.351562 Z M 16.71875 30.351562 " fill-opacity="1" fill-rule="nonzero"/><path fill="#ffffff" d="M 15.59375 32.734375 C 15.34375 32.734375 15.105469 32.6875 14.875 32.59375 C 14.644531 32.496094 14.441406 32.359375 14.265625 32.183594 C 14.089844 32.007812 13.957031 31.804688 13.859375 31.574219 C 13.765625 31.34375 13.71875 31.105469 13.71875 30.855469 C 13.71875 30.605469 13.765625 30.363281 13.859375 30.132812 C 13.957031 29.902344 14.089844 29.699219 14.265625 29.523438 C 14.441406 29.347656 14.644531 29.210938 14.875 29.117188 C 15.105469 29.019531 15.34375 28.972656 15.589844 28.972656 C 15.839844 28.972656 16.078125 29.023438 16.308594 29.117188 C 16.539062 29.210938 16.738281 29.347656 16.914062 29.527344 C 17.089844 29.703125 17.226562 29.90625 17.320312 30.136719 C 17.414062 30.367188 17.464844 30.605469 17.464844 30.855469 C 17.460938 31.105469 17.414062 31.34375 17.320312 31.574219 C 17.226562 31.804688 17.089844 32.007812 16.914062 32.183594 C 16.738281 32.359375 16.535156 32.496094 16.308594 32.589844 C 16.078125 32.6875 15.839844 32.734375 15.59375 32.734375 Z M 15.59375 29.804688 C 15.453125 29.800781 15.320312 29.828125 15.191406 29.882812 C 15.0625 29.933594 14.949219 30.011719 14.851562 30.109375 C 14.753906 30.207031 14.675781 30.320312 14.625 30.449219 C 14.570312 30.578125 14.542969 30.714844 14.542969 30.851562 C 14.542969 30.992188 14.570312 31.125 14.621094 31.253906 C 14.675781 31.382812 14.75 31.496094 14.847656 31.597656 C 14.945312 31.695312 15.058594 31.769531 15.1875 31.824219 C 15.316406 31.878906 15.449219 31.90625 15.589844 31.90625 C 15.726562 31.90625 15.859375 31.878906 15.988281 31.828125 C 16.117188 31.773438 16.230469 31.699219 16.328125 31.597656 C 16.425781 31.5 16.503906 31.386719 16.554688 31.257812 C 16.609375 31.128906 16.636719 30.996094 16.636719 30.855469 C 16.636719 30.71875 16.609375 30.582031 16.558594 30.453125 C 16.503906 30.324219 16.429688 30.210938 16.332031 30.113281 C 16.234375 30.015625 16.121094 29.9375 15.992188 29.882812 C 15.863281 29.832031 15.730469 29.804688 15.59375 29.804688 Z M 15.59375 29.804688 " fill-opacity="1" fill-rule="nonzero"/><path fill="#ffffff" d="M 30.902344 30.351562 C 30.789062 30.355469 30.691406 30.3125 30.609375 30.230469 L 28.203125 27.8125 C 27.894531 27.503906 27.738281 27.132812 27.738281 26.695312 L 27.738281 22.265625 C 27.738281 22.152344 27.78125 22.054688 27.859375 21.972656 C 27.941406 21.894531 28.039062 21.851562 28.152344 21.851562 C 28.265625 21.851562 28.363281 21.894531 28.445312 21.972656 C 28.527344 22.054688 28.566406 22.152344 28.566406 22.265625 L 28.566406 26.695312 C 28.566406 26.902344 28.640625 27.078125 28.785156 27.226562 L 31.195312 29.644531 C 31.324219 29.777344 31.355469 29.925781 31.285156 30.097656 C 31.214844 30.269531 31.085938 30.355469 30.902344 30.355469 Z M 30.902344 30.351562 " fill-opacity="1" fill-rule="nonzero"/><path fill="#ffffff" d="M 32.027344 32.734375 C 31.777344 32.734375 31.539062 32.6875 31.308594 32.59375 C 31.078125 32.496094 30.878906 32.359375 30.703125 32.183594 C 30.527344 32.007812 30.390625 31.804688 30.296875 31.574219 C 30.199219 31.34375 30.152344 31.105469 30.152344 30.855469 C 30.152344 30.605469 30.199219 30.363281 30.296875 30.132812 C 30.390625 29.902344 30.527344 29.699219 30.703125 29.523438 C 30.875 29.347656 31.078125 29.210938 31.308594 29.117188 C 31.539062 29.019531 31.777344 28.972656 32.027344 28.972656 C 32.273438 28.972656 32.511719 29.023438 32.742188 29.117188 C 32.972656 29.210938 33.175781 29.347656 33.351562 29.527344 C 33.527344 29.703125 33.660156 29.90625 33.753906 30.136719 C 33.851562 30.367188 33.898438 30.605469 33.898438 30.855469 C 33.898438 31.105469 33.851562 31.34375 33.753906 31.574219 C 33.660156 31.804688 33.523438 32.007812 33.347656 32.183594 C 33.171875 32.359375 32.972656 32.496094 32.742188 32.589844 C 32.511719 32.6875 32.273438 32.734375 32.027344 32.734375 Z M 32.027344 29.804688 C 31.886719 29.800781 31.753906 29.828125 31.625 29.882812 C 31.496094 29.933594 31.382812 30.011719 31.285156 30.109375 C 31.1875 30.207031 31.113281 30.320312 31.058594 30.449219 C 31.003906 30.578125 30.980469 30.714844 30.976562 30.851562 C 30.976562 30.992188 31.003906 31.125 31.058594 31.253906 C 31.109375 31.382812 31.1875 31.496094 31.285156 31.597656 C 31.382812 31.695312 31.496094 31.769531 31.621094 31.824219 C 31.75 31.878906 31.882812 31.90625 32.023438 31.90625 C 32.160156 31.90625 32.296875 31.878906 32.425781 31.828125 C 32.550781 31.773438 32.664062 31.699219 32.765625 31.597656 C 32.863281 31.5 32.9375 31.386719 32.992188 31.257812 C 33.042969 31.128906 33.070312 30.996094 33.070312 30.855469 C 33.070312 30.71875 33.046875 30.582031 32.992188 30.453125 C 32.941406 30.324219 32.863281 30.210938 32.765625 30.113281 C 32.667969 30.015625 32.554688 29.9375 32.425781 29.882812 C 32.300781 29.832031 32.164062 29.804688 32.027344 29.804688 Z M 32.027344 29.804688 " fill-opacity="1" fill-rule="nonzero"/><path fill="#ffffff" d="M 23.796875 29.996094 C 23.683594 29.996094 23.585938 29.953125 23.507812 29.875 C 23.425781 29.792969 23.386719 29.695312 23.386719 29.582031 L 23.386719 22.265625 C 23.386719 22.152344 23.425781 22.054688 23.507812 21.972656 C 23.585938 21.894531 23.683594 21.851562 23.796875 21.851562 C 23.914062 21.851562 24.011719 21.894531 24.089844 21.972656 C 24.171875 22.054688 24.210938 22.152344 24.210938 22.265625 L 24.210938 29.582031 C 24.210938 29.695312 24.171875 29.792969 24.089844 29.875 C 24.011719 29.953125 23.914062 29.996094 23.796875 29.996094 Z M 23.796875 29.996094 " fill-opacity="1" fill-rule="nonzero"/><path fill="#ffffff" d="M 23.796875 32.925781 C 23.550781 32.925781 23.3125 32.878906 23.082031 32.785156 C 22.851562 32.6875 22.648438 32.554688 22.472656 32.375 C 22.296875 32.199219 22.164062 31.996094 22.066406 31.765625 C 21.972656 31.535156 21.925781 31.296875 21.925781 31.046875 C 21.925781 30.796875 21.972656 30.558594 22.066406 30.328125 C 22.164062 30.097656 22.296875 29.890625 22.472656 29.714844 C 22.648438 29.539062 22.851562 29.402344 23.082031 29.308594 C 23.3125 29.214844 23.550781 29.164062 23.796875 29.164062 C 24.046875 29.164062 24.285156 29.214844 24.515625 29.308594 C 24.746094 29.40625 24.945312 29.539062 25.121094 29.71875 C 25.296875 29.894531 25.433594 30.097656 25.527344 30.328125 C 25.621094 30.558594 25.671875 30.796875 25.671875 31.046875 C 25.667969 31.296875 25.621094 31.535156 25.527344 31.765625 C 25.433594 31.996094 25.296875 32.199219 25.121094 32.375 C 24.945312 32.550781 24.742188 32.6875 24.515625 32.785156 C 24.285156 32.878906 24.046875 32.925781 23.796875 32.925781 Z M 23.796875 29.996094 C 23.660156 29.996094 23.527344 30.023438 23.398438 30.074219 C 23.269531 30.128906 23.15625 30.203125 23.058594 30.300781 C 22.960938 30.402344 22.882812 30.515625 22.832031 30.644531 C 22.777344 30.773438 22.75 30.90625 22.75 31.046875 C 22.75 31.183594 22.777344 31.320312 22.828125 31.449219 C 22.882812 31.578125 22.957031 31.691406 23.054688 31.789062 C 23.152344 31.886719 23.265625 31.964844 23.394531 32.015625 C 23.523438 32.070312 23.65625 32.097656 23.796875 32.097656 C 23.933594 32.097656 24.066406 32.070312 24.195312 32.019531 C 24.324219 31.964844 24.4375 31.890625 24.535156 31.792969 C 24.632812 31.691406 24.710938 31.578125 24.765625 31.449219 C 24.816406 31.320312 24.84375 31.1875 24.84375 31.046875 C 24.84375 30.910156 24.816406 30.773438 24.765625 30.644531 C 24.710938 30.515625 24.636719 30.402344 24.539062 30.304688 C 24.441406 30.207031 24.328125 30.128906 24.199219 30.074219 C 24.070312 30.023438 23.9375 29.996094 23.796875 29.996094 Z M 23.796875 29.996094 " fill-opacity="1" fill-rule="nonzero"/><g clip-path="url(#6be7a9468c)"><path fill="#ffffff" d="M 32.683594 22.683594 L 17.828125 22.683594 C 17.683594 22.683594 17.570312 22.625 17.488281 22.503906 C 16.378906 20.890625 15.828125 19.105469 15.832031 17.144531 C 15.828125 16.144531 15.980469 15.167969 16.292969 14.21875 C 16.601562 13.269531 17.046875 12.390625 17.632812 11.582031 C 18.214844 10.773438 18.910156 10.074219 19.714844 9.488281 C 20.519531 8.898438 21.398438 8.453125 22.34375 8.144531 C 23.289062 7.832031 24.261719 7.679688 25.253906 7.679688 C 26.25 7.679688 27.222656 7.832031 28.167969 8.144531 C 29.113281 8.453125 29.992188 8.898438 30.796875 9.488281 C 31.601562 10.074219 32.296875 10.773438 32.878906 11.582031 C 33.464844 12.390625 33.910156 13.269531 34.21875 14.21875 C 34.53125 15.167969 34.683594 16.144531 34.679688 17.144531 C 34.683594 19.105469 34.132812 20.890625 33.023438 22.503906 C 32.941406 22.625 32.828125 22.683594 32.683594 22.683594 Z M 18.046875 21.855469 L 32.464844 21.855469 C 33.394531 20.421875 33.859375 18.851562 33.855469 17.144531 C 33.859375 16.230469 33.71875 15.34375 33.4375 14.476562 C 33.15625 13.609375 32.75 12.808594 32.214844 12.070312 C 31.679688 11.332031 31.046875 10.695312 30.3125 10.160156 C 29.578125 9.621094 28.777344 9.214844 27.914062 8.933594 C 27.050781 8.648438 26.164062 8.507812 25.257812 8.507812 C 24.347656 8.507812 23.464844 8.648438 22.601562 8.933594 C 21.734375 9.214844 20.9375 9.621094 20.203125 10.160156 C 19.46875 10.695312 18.832031 11.332031 18.300781 12.070312 C 17.765625 12.808594 17.359375 13.609375 17.078125 14.476562 C 16.792969 15.34375 16.65625 16.234375 16.65625 17.144531 C 16.65625 18.855469 17.117188 20.425781 18.050781 21.855469 Z M 18.046875 21.855469 " fill-opacity="1" fill-rule="nonzero"/></g><path fill="#ffffff" d="M 29.285156 22.683594 L 21.222656 22.683594 C 21.128906 22.683594 21.042969 22.65625 20.96875 22.59375 C 20.351562 22.109375 19.835938 21.535156 19.414062 20.871094 C 18.996094 20.207031 18.695312 19.492188 18.519531 18.726562 C 18.339844 17.960938 18.292969 17.1875 18.375 16.40625 C 18.457031 15.625 18.667969 14.878906 19.003906 14.167969 C 19.28125 13.574219 19.640625 13.03125 20.074219 12.535156 C 20.507812 12.042969 21 11.621094 21.554688 11.269531 C 22.109375 10.917969 22.699219 10.648438 23.328125 10.464844 C 23.957031 10.28125 24.601562 10.191406 25.257812 10.191406 C 25.910156 10.191406 26.554688 10.28125 27.183594 10.464844 C 27.8125 10.648438 28.40625 10.917969 28.957031 11.269531 C 29.511719 11.621094 30.007812 12.042969 30.441406 12.535156 C 30.875 13.03125 31.230469 13.574219 31.511719 14.167969 C 31.847656 14.878906 32.054688 15.625 32.140625 16.40625 C 32.222656 17.1875 32.175781 17.964844 31.996094 18.730469 C 31.816406 19.496094 31.515625 20.207031 31.097656 20.871094 C 30.675781 21.535156 30.15625 22.109375 29.542969 22.597656 C 29.464844 22.65625 29.382812 22.683594 29.285156 22.683594 Z M 21.371094 21.855469 L 29.140625 21.855469 C 29.664062 21.421875 30.101562 20.914062 30.457031 20.335938 C 30.808594 19.757812 31.058594 19.132812 31.207031 18.46875 C 31.355469 17.804688 31.390625 17.136719 31.316406 16.460938 C 31.238281 15.785156 31.054688 15.140625 30.765625 14.523438 C 30.519531 14 30.203125 13.519531 29.820312 13.085938 C 29.441406 12.652344 29.003906 12.28125 28.515625 11.96875 C 28.03125 11.660156 27.507812 11.421875 26.953125 11.261719 C 26.398438 11.101562 25.835938 11.019531 25.257812 11.019531 C 24.679688 11.019531 24.113281 11.101562 23.558594 11.261719 C 23.003906 11.421875 22.484375 11.660156 21.996094 11.96875 C 21.507812 12.28125 21.074219 12.652344 20.691406 13.085938 C 20.308594 13.519531 19.996094 14 19.75 14.523438 C 19.457031 15.140625 19.277344 15.785156 19.199219 16.460938 C 19.125 17.136719 19.160156 17.804688 19.308594 18.46875 C 19.453125 19.132812 19.703125 19.753906 20.058594 20.335938 C 20.410156 20.914062 20.847656 21.421875 21.371094 21.855469 Z M 21.371094 21.855469 " fill-opacity="1" fill-rule="nonzero"/><path fill="#ffffff" d="M 27.492188 19.242188 C 27.296875 19.535156 27.035156 19.757812 26.714844 19.90625 C 26.34375 20.078125 25.953125 20.175781 25.542969 20.191406 L 25.542969 20.875 C 25.546875 20.957031 25.519531 21.027344 25.460938 21.082031 C 25.324219 21.207031 25.179688 21.210938 25.039062 21.089844 C 24.980469 21.03125 24.953125 20.957031 24.957031 20.875 L 24.957031 20.1875 C 24.285156 20.148438 23.636719 19.996094 23.015625 19.734375 C 22.933594 19.699219 22.871094 19.648438 22.824219 19.574219 C 22.691406 19.390625 22.703125 19.21875 22.855469 19.054688 C 22.933594 18.96875 23.027344 18.929688 23.140625 18.933594 C 23.203125 18.933594 23.265625 18.945312 23.324219 18.972656 C 23.84375 19.203125 24.390625 19.332031 24.957031 19.355469 L 24.957031 17.132812 C 24.582031 17.039062 24.214844 16.914062 23.855469 16.757812 C 23.5625 16.625 23.316406 16.433594 23.113281 16.183594 C 22.902344 15.90625 22.800781 15.589844 22.816406 15.242188 C 22.8125 14.910156 22.894531 14.601562 23.058594 14.3125 C 23.242188 14.011719 23.484375 13.777344 23.792969 13.609375 C 24.15625 13.40625 24.546875 13.296875 24.960938 13.269531 L 24.960938 12.59375 C 24.960938 12.511719 24.988281 12.441406 25.042969 12.378906 C 25.097656 12.320312 25.167969 12.292969 25.25 12.292969 C 25.332031 12.292969 25.402344 12.320312 25.460938 12.378906 C 25.519531 12.4375 25.546875 12.511719 25.546875 12.59375 L 25.546875 13.257812 C 26.121094 13.273438 26.679688 13.382812 27.222656 13.578125 C 27.414062 13.636719 27.503906 13.761719 27.492188 13.964844 C 27.492188 14.070312 27.457031 14.164062 27.386719 14.246094 C 27.3125 14.332031 27.21875 14.375 27.105469 14.371094 C 27.050781 14.367188 27 14.351562 26.953125 14.332031 C 26.496094 14.171875 26.03125 14.085938 25.546875 14.070312 L 25.546875 16.371094 C 25.941406 16.457031 26.324219 16.578125 26.699219 16.730469 C 27 16.855469 27.253906 17.046875 27.460938 17.304688 C 27.683594 17.601562 27.789062 17.9375 27.769531 18.3125 C 27.773438 18.652344 27.679688 18.960938 27.492188 19.242188 Z M 24.011719 15.828125 C 24.304688 16.019531 24.621094 16.152344 24.960938 16.226562 L 24.960938 14.101562 C 24.621094 14.132812 24.3125 14.25 24.035156 14.453125 C 23.796875 14.632812 23.683594 14.875 23.691406 15.171875 C 23.679688 15.453125 23.785156 15.671875 24.011719 15.828125 Z M 26.902344 18.253906 C 26.910156 17.992188 26.792969 17.796875 26.5625 17.671875 C 26.242188 17.496094 25.902344 17.363281 25.546875 17.28125 L 25.546875 19.355469 C 26.453125 19.292969 26.902344 18.925781 26.902344 18.253906 Z M 26.902344 18.253906 " fill-opacity="1" fill-rule="nonzero"/></svg>