<svg xmlns="http://www.w3.org/2000/svg" xmlns:xlink="http://www.w3.org/1999/xlink" width="72" zoomAndPan="magnify" viewBox="0 0 54 54" height="72" preserveAspectRatio="xMidYMid meet" version="1.0"><defs><clipPath id="8f23bbf844"><path d="M 0.492188 0 L 53.507812 0 L 53.507812 53.019531 L 0.492188 53.019531 Z M 0.492188 0 " clip-rule="nonzero"/></clipPath><clipPath id="5f46805748"><path d="M 53.507812 26.507812 C 53.507812 41.148438 41.640625 53.019531 27 53.019531 C 12.359375 53.019531 0.492188 41.148438 0.492188 26.507812 C 0.492188 11.867188 12.359375 0 27 0 C 41.640625 0 53.507812 11.867188 53.507812 26.507812 Z M 53.507812 26.507812 " clip-rule="nonzero"/></clipPath><clipPath id="e1e958d42b"><path d="M 23.308594 22.136719 L 43.195312 22.136719 L 43.195312 46.351562 L 23.308594 46.351562 Z M 23.308594 22.136719 " clip-rule="nonzero"/></clipPath><clipPath id="66f0f093f9"><path d="M 10.8125 6.738281 L 33 6.738281 L 33 41 L 10.8125 41 Z M 10.8125 6.738281 " clip-rule="nonzero"/></clipPath></defs><g clip-path="url(#8f23bbf844)"><g clip-path="url(#5f46805748)"><path fill="#8c52ff" d="M 0.492188 0 L 53.507812 0 L 53.507812 53.019531 L 0.492188 53.019531 Z M 0.492188 0 " fill-opacity="1" fill-rule="nonzero"/></g></g><g clip-path="url(#e1e958d42b)"><path fill="#ffffff" d="M 41.730469 43.003906 L 33.226562 45.296875 C 32.917969 45.375 32.589844 45.183594 32.511719 44.878906 L 31.796875 42.210938 C 31.753906 42.054688 31.773438 41.898438 31.855469 41.761719 C 31.929688 41.625 32.058594 41.53125 32.210938 41.488281 L 40.714844 39.199219 C 40.765625 39.1875 40.816406 39.179688 40.867188 39.179688 C 41.132812 39.179688 41.367188 39.359375 41.433594 39.613281 L 42.144531 42.28125 C 42.230469 42.597656 42.042969 42.921875 41.730469 43.003906 Z M 25.433594 34.015625 C 25.085938 33.507812 24.851562 32.871094 25.21875 32.621094 C 25.75 32.253906 27.390625 32.597656 28.832031 34.554688 C 28.878906 34.625 28.921875 34.679688 28.949219 34.722656 L 29.785156 34.121094 C 29.746094 34.0625 29.699219 34 29.65625 33.941406 C 27.429688 30.828125 24.164062 25.496094 24.507812 23.910156 C 24.546875 23.746094 24.609375 23.710938 24.640625 23.6875 C 25.355469 23.285156 28.089844 26.285156 29.542969 28.726562 L 30.074219 29.609375 L 30.460938 28.65625 C 30.582031 28.355469 31.035156 27.546875 31.664062 27.382812 C 32.039062 27.292969 32.472656 27.4375 32.945312 27.828125 L 33.304688 28.125 L 33.632812 27.796875 C 33.640625 27.785156 34.402344 27.070312 35.199219 27.101562 C 35.621094 27.109375 36 27.308594 36.359375 27.707031 L 36.714844 28.09375 L 37.09375 27.730469 C 37.097656 27.722656 37.605469 27.25 38.136719 27.355469 C 38.636719 27.445312 39 28.027344 39.226562 28.496094 C 40.429688 31.039062 40.410156 36.644531 40.378906 38.21875 L 32.539062 40.332031 C 31.566406 39.640625 26.96875 36.308594 25.433594 34.015625 Z M 43.140625 42.015625 L 42.425781 39.34375 C 42.285156 38.824219 41.890625 38.429688 41.40625 38.25 C 41.445312 36.613281 41.472656 30.832031 40.152344 28.050781 C 39.679688 27.046875 39.0625 26.472656 38.316406 26.335938 C 37.683594 26.222656 37.132812 26.460938 36.78125 26.679688 C 36.3125 26.289062 35.789062 26.082031 35.226562 26.066406 C 34.363281 26.054688 33.65625 26.472656 33.253906 26.773438 C 32.625 26.359375 32.007812 26.230469 31.40625 26.386719 C 30.75 26.554688 30.273438 27.039062 29.957031 27.472656 C 28.820312 25.785156 25.890625 21.808594 24.136719 22.789062 C 23.8125 22.972656 23.59375 23.28125 23.503906 23.6875 C 23.140625 25.34375 25.199219 29.019531 26.898438 31.691406 C 26.003906 31.351562 25.179688 31.386719 24.632812 31.769531 C 24.015625 32.199219 23.632812 33.191406 24.578125 34.597656 C 26.019531 36.742188 29.761719 39.589844 31.378906 40.765625 C 31.210938 40.894531 31.070312 41.058594 30.960938 41.246094 C 30.75 41.621094 30.691406 42.058594 30.800781 42.476562 L 31.515625 45.144531 C 31.703125 45.855469 32.347656 46.351562 33.070312 46.351562 L 33.074219 46.351562 C 33.214844 46.351562 33.355469 46.328125 33.492188 46.292969 L 41.996094 44.007812 C 42.855469 43.773438 43.367188 42.882812 43.140625 42.015625 " fill-opacity="1" fill-rule="nonzero"/></g><path fill="#ffffff" d="M 22.261719 37.546875 C 22.261719 37.859375 22.011719 38.109375 21.703125 38.109375 C 21.394531 38.109375 21.140625 37.859375 21.140625 37.546875 C 21.140625 37.234375 21.390625 36.984375 21.703125 36.984375 C 22.011719 36.984375 22.261719 37.234375 22.261719 37.546875 Z M 20.113281 37.546875 C 20.113281 38.429688 20.828125 39.144531 21.703125 39.144531 C 22.578125 39.144531 23.292969 38.429688 23.292969 37.546875 C 23.292969 36.667969 22.578125 35.949219 21.703125 35.949219 C 20.828125 35.949219 20.113281 36.667969 20.113281 37.546875 " fill-opacity="1" fill-rule="nonzero"/><path fill="#ffffff" d="M 19.519531 16.921875 L 17.210938 16.921875 L 17.210938 14.601562 L 19.519531 14.601562 Z M 20.546875 13.566406 L 16.183594 13.566406 L 16.183594 17.953125 L 20.546875 17.953125 L 20.546875 13.566406 " fill-opacity="1" fill-rule="nonzero"/><path fill="#ffffff" d="M 26.195312 16.921875 L 23.882812 16.921875 L 23.882812 14.601562 L 26.195312 14.601562 Z M 27.222656 13.566406 L 22.855469 13.566406 L 22.855469 17.953125 L 27.222656 17.953125 L 27.222656 13.566406 " fill-opacity="1" fill-rule="nonzero"/><path fill="#ffffff" d="M 19.519531 23.410156 L 17.210938 23.410156 L 17.210938 21.09375 L 19.519531 21.09375 Z M 20.546875 20.058594 L 16.183594 20.058594 L 16.183594 24.445312 L 20.546875 24.445312 L 20.546875 20.058594 " fill-opacity="1" fill-rule="nonzero"/><path fill="#ffffff" d="M 17.210938 27.582031 L 19.519531 27.582031 L 19.519531 29.902344 L 17.210938 29.902344 Z M 16.183594 30.9375 L 20.546875 30.9375 L 20.546875 26.550781 L 16.183594 26.550781 L 16.183594 30.9375 " fill-opacity="1" fill-rule="nonzero"/><g clip-path="url(#66f0f093f9)"><path fill="#ffffff" d="M 14.367188 39.953125 C 12.976562 39.953125 11.839844 38.820312 11.839844 37.421875 L 11.839844 10.460938 C 11.839844 9.0625 12.976562 7.925781 14.367188 7.925781 L 29.039062 7.925781 C 30.433594 7.925781 31.5625 9.0625 31.5625 10.460938 L 31.5625 25.332031 C 31.671875 25.316406 31.785156 25.289062 31.894531 25.289062 C 32.128906 25.289062 32.359375 25.320312 32.589844 25.375 L 32.589844 10.460938 C 32.589844 8.492188 30.996094 6.890625 29.039062 6.890625 L 14.367188 6.890625 C 12.40625 6.890625 10.8125 8.492188 10.8125 10.460938 L 10.8125 37.421875 C 10.8125 39.390625 12.40625 40.992188 14.367188 40.992188 L 29.039062 40.992188 C 29.308594 40.992188 29.570312 40.953125 29.824219 40.894531 C 29.441406 40.609375 29.035156 40.289062 28.613281 39.957031 L 14.367188 39.957031 L 14.367188 39.953125 " fill-opacity="1" fill-rule="nonzero"/></g><path fill="#ffffff" d="M 30.101562 25.878906 C 30.207031 25.800781 30.328125 25.742188 30.441406 25.679688 L 30.441406 11.234375 C 30.441406 10.105469 29.527344 9.191406 28.410156 9.191406 L 14.996094 9.191406 C 13.875 9.191406 12.964844 10.105469 12.964844 11.234375 L 12.964844 33.269531 C 12.964844 34.394531 13.875 35.3125 14.996094 35.3125 L 23.832031 35.3125 C 23.800781 35.265625 23.757812 35.21875 23.726562 35.171875 C 23.519531 34.867188 23.375 34.570312 23.257812 34.277344 L 14.996094 34.277344 C 14.441406 34.277344 13.992188 33.828125 13.992188 33.269531 L 13.992188 11.234375 C 13.992188 10.679688 14.441406 10.226562 14.996094 10.226562 L 28.410156 10.226562 C 28.960938 10.226562 29.414062 10.679688 29.414062 11.234375 L 29.414062 24.976562 C 29.636719 25.261719 29.867188 25.558594 30.101562 25.878906 " fill-opacity="1" fill-rule="nonzero"/><path fill="#ffffff" d="M 27.222656 22.691406 L 27.222656 20.058594 L 22.855469 20.058594 L 22.855469 22.625 C 23.058594 22.320312 23.316406 22.066406 23.636719 21.882812 C 23.714844 21.84375 23.804688 21.820312 23.882812 21.785156 L 23.882812 21.09375 L 26.195312 21.09375 L 26.195312 22.015625 C 26.527344 22.1875 26.867188 22.40625 27.222656 22.691406 " fill-opacity="1" fill-rule="nonzero"/><path fill="#ffffff" d="M 22.992188 26.550781 L 22.855469 26.550781 L 22.855469 30.9375 L 24.03125 30.9375 C 24.039062 30.929688 24.042969 30.921875 24.050781 30.914062 C 24.324219 30.730469 24.632812 30.59375 24.972656 30.511719 C 24.847656 30.296875 24.734375 30.101562 24.625 29.902344 L 23.882812 29.902344 L 23.882812 28.53125 C 23.496094 27.761719 23.207031 27.105469 22.992188 26.550781 " fill-opacity="1" fill-rule="nonzero"/></svg>