<svg xmlns="http://www.w3.org/2000/svg" xmlns:xlink="http://www.w3.org/1999/xlink" width="72" zoomAndPan="magnify" viewBox="0 0 54 54" height="72" preserveAspectRatio="xMidYMid meet" version="1.0"><defs><clipPath id="4070460442"><path d="M 0.492188 0 L 53.507812 0 L 53.507812 53.019531 L 0.492188 53.019531 Z M 0.492188 0 " clip-rule="nonzero"/></clipPath><clipPath id="938cb3867b"><path d="M 53.507812 26.507812 C 53.507812 27.378906 53.464844 28.242188 53.382812 29.109375 C 53.296875 29.972656 53.167969 30.828125 53 31.679688 C 52.832031 32.53125 52.621094 33.375 52.367188 34.203125 C 52.117188 35.035156 51.824219 35.851562 51.492188 36.652344 C 51.160156 37.457031 50.789062 38.238281 50.378906 39.003906 C 49.96875 39.769531 49.523438 40.515625 49.042969 41.238281 C 48.558594 41.957031 48.042969 42.65625 47.492188 43.328125 C 46.941406 43.996094 46.359375 44.640625 45.746094 45.253906 C 45.128906 45.867188 44.488281 46.449219 43.816406 47 C 43.144531 47.550781 42.449219 48.066406 41.726562 48.550781 C 41.003906 49.03125 40.261719 49.480469 39.496094 49.886719 C 38.730469 50.296875 37.945312 50.667969 37.144531 51 C 36.34375 51.332031 35.527344 51.625 34.695312 51.875 C 33.863281 52.128906 33.023438 52.339844 32.171875 52.507812 C 31.320312 52.679688 30.460938 52.804688 29.597656 52.890625 C 28.734375 52.976562 27.867188 53.019531 27 53.019531 C 26.132812 53.019531 25.265625 52.976562 24.402344 52.890625 C 23.539062 52.804688 22.679688 52.679688 21.828125 52.507812 C 20.976562 52.339844 20.136719 52.128906 19.304688 51.875 C 18.472656 51.625 17.65625 51.332031 16.855469 51 C 16.054688 50.667969 15.269531 50.296875 14.503906 49.886719 C 13.738281 49.480469 12.996094 49.03125 12.273438 48.550781 C 11.550781 48.066406 10.855469 47.550781 10.183594 47 C 9.511719 46.449219 8.871094 45.867188 8.253906 45.253906 C 7.640625 44.640625 7.058594 43.996094 6.507812 43.328125 C 5.957031 42.65625 5.441406 41.957031 4.957031 41.238281 C 4.476562 40.515625 4.03125 39.769531 3.621094 39.003906 C 3.210938 38.238281 2.839844 37.457031 2.507812 36.652344 C 2.175781 35.851562 1.882812 35.035156 1.632812 34.203125 C 1.378906 33.375 1.167969 32.53125 1 31.679688 C 0.832031 30.828125 0.703125 29.972656 0.617188 29.109375 C 0.535156 28.242188 0.492188 27.378906 0.492188 26.507812 C 0.492188 25.640625 0.535156 24.773438 0.617188 23.910156 C 0.703125 23.046875 0.832031 22.1875 1 21.335938 C 1.167969 20.484375 1.378906 19.644531 1.632812 18.8125 C 1.882812 17.984375 2.175781 17.167969 2.507812 16.363281 C 2.839844 15.5625 3.210938 14.777344 3.621094 14.011719 C 4.03125 13.246094 4.476562 12.503906 4.957031 11.78125 C 5.441406 11.058594 5.957031 10.363281 6.507812 9.691406 C 7.058594 9.019531 7.640625 8.378906 8.253906 7.765625 C 8.871094 7.152344 9.511719 6.566406 10.183594 6.015625 C 10.855469 5.464844 11.550781 4.949219 12.273438 4.46875 C 12.996094 3.984375 13.738281 3.539062 14.503906 3.128906 C 15.269531 2.722656 16.054688 2.351562 16.855469 2.019531 C 17.65625 1.6875 18.472656 1.394531 19.304688 1.140625 C 20.136719 0.890625 20.976562 0.679688 21.828125 0.507812 C 22.679688 0.339844 23.539062 0.210938 24.402344 0.128906 C 25.265625 0.0429688 26.132812 0 27 0 C 27.867188 0 28.734375 0.0429688 29.597656 0.128906 C 30.460938 0.210938 31.320312 0.339844 32.171875 0.507812 C 33.023438 0.679688 33.863281 0.890625 34.695312 1.140625 C 35.527344 1.394531 36.34375 1.6875 37.144531 2.019531 C 37.945312 2.351562 38.730469 2.722656 39.496094 3.128906 C 40.261719 3.539062 41.003906 3.984375 41.726562 4.46875 C 42.449219 4.949219 43.144531 5.464844 43.816406 6.015625 C 44.488281 6.566406 45.128906 7.152344 45.746094 7.765625 C 46.359375 8.378906 46.941406 9.019531 47.492188 9.691406 C 48.042969 10.363281 48.558594 11.058594 49.042969 11.78125 C 49.523438 12.503906 49.96875 13.246094 50.378906 14.011719 C 50.789062 14.777344 51.160156 15.5625 51.492188 16.363281 C 51.824219 17.167969 52.117188 17.984375 52.367188 18.8125 C 52.621094 19.644531 52.832031 20.484375 53 21.335938 C 53.167969 22.1875 53.296875 23.046875 53.382812 23.910156 C 53.464844 24.773438 53.507812 25.640625 53.507812 26.507812 Z M 53.507812 26.507812 " clip-rule="nonzero"/></clipPath><linearGradient x1="-0" gradientTransform="matrix(53.018182, 0, 0, 53.018182, 0.490909, 0.00000196364)" y1="-0" x2="1" gradientUnits="userSpaceOnUse" y2="1" id="4e5d293254"><stop stop-opacity="1" stop-color="rgb(19.999695%, 82.699585%, 36.898804%)" offset="0"/><stop stop-opacity="1" stop-color="rgb(19.985962%, 82.655334%, 37.088013%)" offset="0.0078125"/><stop stop-opacity="1" stop-color="rgb(19.958496%, 82.566833%, 37.466431%)" offset="0.015625"/><stop stop-opacity="1" stop-color="rgb(19.93103%, 82.476807%, 37.844849%)" offset="0.0234375"/><stop stop-opacity="1" stop-color="rgb(19.903564%, 82.388306%, 38.223267%)" offset="0.03125"/><stop stop-opacity="1" stop-color="rgb(19.876099%, 82.299805%, 38.600159%)" offset="0.0390625"/><stop stop-opacity="1" stop-color="rgb(19.848633%, 82.211304%, 38.978577%)" offset="0.046875"/><stop stop-opacity="1" stop-color="rgb(19.821167%, 82.122803%, 39.356995%)" offset="0.0546875"/><stop stop-opacity="1" stop-color="rgb(19.793701%, 82.034302%, 39.735413%)" offset="0.0625"/><stop stop-opacity="1" stop-color="rgb(19.766235%, 81.945801%, 40.113831%)" offset="0.0703125"/><stop stop-opacity="1" stop-color="rgb(19.73877%, 81.8573%, 40.492249%)" offset="0.078125"/><stop stop-opacity="1" stop-color="rgb(19.711304%, 81.768799%, 40.869141%)" offset="0.0859375"/><stop stop-opacity="1" stop-color="rgb(19.683838%, 81.680298%, 41.247559%)" offset="0.09375"/><stop stop-opacity="1" stop-color="rgb(19.656372%, 81.590271%, 41.625977%)" offset="0.101562"/><stop stop-opacity="1" stop-color="rgb(19.628906%, 81.50177%, 42.004395%)" offset="0.109375"/><stop stop-opacity="1" stop-color="rgb(19.60144%, 81.413269%, 42.382812%)" offset="0.117188"/><stop stop-opacity="1" stop-color="rgb(19.573975%, 81.324768%, 42.759705%)" offset="0.125"/><stop stop-opacity="1" stop-color="rgb(19.546509%, 81.236267%, 43.138123%)" offset="0.132812"/><stop stop-opacity="1" stop-color="rgb(19.519043%, 81.147766%, 43.516541%)" offset="0.140625"/><stop stop-opacity="1" stop-color="rgb(19.491577%, 81.059265%, 43.894958%)" offset="0.148438"/><stop stop-opacity="1" stop-color="rgb(19.464111%, 80.970764%, 44.273376%)" offset="0.15625"/><stop stop-opacity="1" stop-color="rgb(19.436646%, 80.882263%, 44.651794%)" offset="0.164062"/><stop stop-opacity="1" stop-color="rgb(19.40918%, 80.793762%, 45.028687%)" offset="0.171875"/><stop stop-opacity="1" stop-color="rgb(19.381714%, 80.703735%, 45.407104%)" offset="0.179687"/><stop stop-opacity="1" stop-color="rgb(19.354248%, 80.615234%, 45.785522%)" offset="0.1875"/><stop stop-opacity="1" stop-color="rgb(19.326782%, 80.526733%, 46.16394%)" offset="0.195312"/><stop stop-opacity="1" stop-color="rgb(19.299316%, 80.438232%, 46.542358%)" offset="0.203125"/><stop stop-opacity="1" stop-color="rgb(19.271851%, 80.349731%, 46.920776%)" offset="0.210937"/><stop stop-opacity="1" stop-color="rgb(19.244385%, 80.26123%, 47.297668%)" offset="0.21875"/><stop stop-opacity="1" stop-color="rgb(19.216919%, 80.172729%, 47.676086%)" offset="0.226562"/><stop stop-opacity="1" stop-color="rgb(19.189453%, 80.084229%, 48.054504%)" offset="0.234375"/><stop stop-opacity="1" stop-color="rgb(19.161987%, 79.995728%, 48.432922%)" offset="0.242187"/><stop stop-opacity="1" stop-color="rgb(19.134521%, 79.907227%, 48.81134%)" offset="0.25"/><stop stop-opacity="1" stop-color="rgb(19.107056%, 79.8172%, 49.189758%)" offset="0.257812"/><stop stop-opacity="1" stop-color="rgb(19.07959%, 79.728699%, 49.56665%)" offset="0.265625"/><stop stop-opacity="1" stop-color="rgb(19.052124%, 79.640198%, 49.945068%)" offset="0.273438"/><stop stop-opacity="1" stop-color="rgb(19.024658%, 79.551697%, 50.323486%)" offset="0.28125"/><stop stop-opacity="1" stop-color="rgb(18.997192%, 79.463196%, 50.701904%)" offset="0.289062"/><stop stop-opacity="1" stop-color="rgb(18.969727%, 79.374695%, 51.080322%)" offset="0.296875"/><stop stop-opacity="1" stop-color="rgb(18.942261%, 79.286194%, 51.457214%)" offset="0.304687"/><stop stop-opacity="1" stop-color="rgb(18.914795%, 79.197693%, 51.835632%)" offset="0.3125"/><stop stop-opacity="1" stop-color="rgb(18.887329%, 79.109192%, 52.21405%)" offset="0.320312"/><stop stop-opacity="1" stop-color="rgb(18.859863%, 79.020691%, 52.592468%)" offset="0.328125"/><stop stop-opacity="1" stop-color="rgb(18.832397%, 78.930664%, 52.970886%)" offset="0.335938"/><stop stop-opacity="1" stop-color="rgb(18.804932%, 78.842163%, 53.349304%)" offset="0.34375"/><stop stop-opacity="1" stop-color="rgb(18.777466%, 78.753662%, 53.726196%)" offset="0.351562"/><stop stop-opacity="1" stop-color="rgb(18.75%, 78.665161%, 54.104614%)" offset="0.359375"/><stop stop-opacity="1" stop-color="rgb(18.722534%, 78.57666%, 54.483032%)" offset="0.367187"/><stop stop-opacity="1" stop-color="rgb(18.695068%, 78.488159%, 54.86145%)" offset="0.375"/><stop stop-opacity="1" stop-color="rgb(18.667603%, 78.399658%, 55.239868%)" offset="0.382812"/><stop stop-opacity="1" stop-color="rgb(18.640137%, 78.311157%, 55.618286%)" offset="0.390625"/><stop stop-opacity="1" stop-color="rgb(18.612671%, 78.222656%, 55.995178%)" offset="0.398438"/><stop stop-opacity="1" stop-color="rgb(18.585205%, 78.134155%, 56.373596%)" offset="0.40625"/><stop stop-opacity="1" stop-color="rgb(18.557739%, 78.044128%, 56.752014%)" offset="0.414062"/><stop stop-opacity="1" stop-color="rgb(18.530273%, 77.955627%, 57.130432%)" offset="0.421875"/><stop stop-opacity="1" stop-color="rgb(18.502808%, 77.867126%, 57.50885%)" offset="0.429687"/><stop stop-opacity="1" stop-color="rgb(18.475342%, 77.778625%, 57.885742%)" offset="0.4375"/><stop stop-opacity="1" stop-color="rgb(18.447876%, 77.690125%, 58.26416%)" offset="0.445312"/><stop stop-opacity="1" stop-color="rgb(18.42041%, 77.601624%, 58.642578%)" offset="0.453125"/><stop stop-opacity="1" stop-color="rgb(18.392944%, 77.513123%, 59.020996%)" offset="0.460938"/><stop stop-opacity="1" stop-color="rgb(18.365479%, 77.424622%, 59.399414%)" offset="0.46875"/><stop stop-opacity="1" stop-color="rgb(18.338013%, 77.336121%, 59.777832%)" offset="0.476562"/><stop stop-opacity="1" stop-color="rgb(18.310547%, 77.24762%, 60.154724%)" offset="0.484375"/><stop stop-opacity="1" stop-color="rgb(18.283081%, 77.157593%, 60.533142%)" offset="0.492188"/><stop stop-opacity="1" stop-color="rgb(18.255615%, 77.069092%, 60.91156%)" offset="0.5"/><stop stop-opacity="1" stop-color="rgb(18.228149%, 76.980591%, 61.289978%)" offset="0.507812"/><stop stop-opacity="1" stop-color="rgb(18.200684%, 76.89209%, 61.668396%)" offset="0.515625"/><stop stop-opacity="1" stop-color="rgb(18.173218%, 76.803589%, 62.046814%)" offset="0.523437"/><stop stop-opacity="1" stop-color="rgb(18.145752%, 76.715088%, 62.423706%)" offset="0.53125"/><stop stop-opacity="1" stop-color="rgb(18.118286%, 76.626587%, 62.802124%)" offset="0.539062"/><stop stop-opacity="1" stop-color="rgb(18.09082%, 76.538086%, 63.180542%)" offset="0.546875"/><stop stop-opacity="1" stop-color="rgb(18.063354%, 76.449585%, 63.55896%)" offset="0.554688"/><stop stop-opacity="1" stop-color="rgb(18.035889%, 76.361084%, 63.937378%)" offset="0.5625"/><stop stop-opacity="1" stop-color="rgb(18.008423%, 76.271057%, 64.31427%)" offset="0.570312"/><stop stop-opacity="1" stop-color="rgb(17.980957%, 76.182556%, 64.692688%)" offset="0.578125"/><stop stop-opacity="1" stop-color="rgb(17.953491%, 76.094055%, 65.071106%)" offset="0.585938"/><stop stop-opacity="1" stop-color="rgb(17.926025%, 76.005554%, 65.449524%)" offset="0.59375"/><stop stop-opacity="1" stop-color="rgb(17.89856%, 75.917053%, 65.827942%)" offset="0.601562"/><stop stop-opacity="1" stop-color="rgb(17.871094%, 75.828552%, 66.20636%)" offset="0.609375"/><stop stop-opacity="1" stop-color="rgb(17.843628%, 75.740051%, 66.583252%)" offset="0.617187"/><stop stop-opacity="1" stop-color="rgb(17.816162%, 75.65155%, 66.96167%)" offset="0.625"/><stop stop-opacity="1" stop-color="rgb(17.788696%, 75.563049%, 67.340088%)" offset="0.632812"/><stop stop-opacity="1" stop-color="rgb(17.76123%, 75.474548%, 67.718506%)" offset="0.640625"/><stop stop-opacity="1" stop-color="rgb(17.733765%, 75.384521%, 68.096924%)" offset="0.648438"/><stop stop-opacity="1" stop-color="rgb(17.706299%, 75.296021%, 68.475342%)" offset="0.65625"/><stop stop-opacity="1" stop-color="rgb(17.678833%, 75.20752%, 68.852234%)" offset="0.664062"/><stop stop-opacity="1" stop-color="rgb(17.651367%, 75.119019%, 69.230652%)" offset="0.671875"/><stop stop-opacity="1" stop-color="rgb(17.623901%, 75.030518%, 69.60907%)" offset="0.679687"/><stop stop-opacity="1" stop-color="rgb(17.596436%, 74.942017%, 69.987488%)" offset="0.6875"/><stop stop-opacity="1" stop-color="rgb(17.56897%, 74.853516%, 70.365906%)" offset="0.695312"/><stop stop-opacity="1" stop-color="rgb(17.541504%, 74.765015%, 70.744324%)" offset="0.703125"/><stop stop-opacity="1" stop-color="rgb(17.514038%, 74.676514%, 71.121216%)" offset="0.710937"/><stop stop-opacity="1" stop-color="rgb(17.486572%, 74.588013%, 71.499634%)" offset="0.71875"/><stop stop-opacity="1" stop-color="rgb(17.459106%, 74.497986%, 71.878052%)" offset="0.726562"/><stop stop-opacity="1" stop-color="rgb(17.431641%, 74.409485%, 72.25647%)" offset="0.734375"/><stop stop-opacity="1" stop-color="rgb(17.404175%, 74.320984%, 72.634888%)" offset="0.742187"/><stop stop-opacity="1" stop-color="rgb(17.376709%, 74.232483%, 73.01178%)" offset="0.75"/><stop stop-opacity="1" stop-color="rgb(17.349243%, 74.143982%, 73.390198%)" offset="0.757812"/><stop stop-opacity="1" stop-color="rgb(17.321777%, 74.055481%, 73.768616%)" offset="0.765625"/><stop stop-opacity="1" stop-color="rgb(17.294312%, 73.96698%, 74.147034%)" offset="0.773438"/><stop stop-opacity="1" stop-color="rgb(17.266846%, 73.878479%, 74.525452%)" offset="0.78125"/><stop stop-opacity="1" stop-color="rgb(17.23938%, 73.789978%, 74.90387%)" offset="0.789062"/><stop stop-opacity="1" stop-color="rgb(17.211914%, 73.701477%, 75.280762%)" offset="0.796875"/><stop stop-opacity="1" stop-color="rgb(17.184448%, 73.61145%, 75.65918%)" offset="0.804687"/><stop stop-opacity="1" stop-color="rgb(17.156982%, 73.522949%, 76.037598%)" offset="0.8125"/><stop stop-opacity="1" stop-color="rgb(17.129517%, 73.434448%, 76.416016%)" offset="0.820312"/><stop stop-opacity="1" stop-color="rgb(17.102051%, 73.345947%, 76.794434%)" offset="0.828125"/><stop stop-opacity="1" stop-color="rgb(17.074585%, 73.257446%, 77.172852%)" offset="0.835937"/><stop stop-opacity="1" stop-color="rgb(17.047119%, 73.168945%, 77.549744%)" offset="0.84375"/><stop stop-opacity="1" stop-color="rgb(17.019653%, 73.080444%, 77.928162%)" offset="0.851562"/><stop stop-opacity="1" stop-color="rgb(16.992188%, 72.991943%, 78.30658%)" offset="0.859375"/><stop stop-opacity="1" stop-color="rgb(16.964722%, 72.903442%, 78.684998%)" offset="0.867188"/><stop stop-opacity="1" stop-color="rgb(16.937256%, 72.814941%, 79.063416%)" offset="0.875"/><stop stop-opacity="1" stop-color="rgb(16.90979%, 72.724915%, 79.440308%)" offset="0.882812"/><stop stop-opacity="1" stop-color="rgb(16.882324%, 72.636414%, 79.818726%)" offset="0.890625"/><stop stop-opacity="1" stop-color="rgb(16.854858%, 72.547913%, 80.197144%)" offset="0.898438"/><stop stop-opacity="1" stop-color="rgb(16.827393%, 72.459412%, 80.575562%)" offset="0.90625"/><stop stop-opacity="1" stop-color="rgb(16.799927%, 72.370911%, 80.953979%)" offset="0.914062"/><stop stop-opacity="1" stop-color="rgb(16.772461%, 72.28241%, 81.332397%)" offset="0.921875"/><stop stop-opacity="1" stop-color="rgb(16.744995%, 72.193909%, 81.70929%)" offset="0.929688"/><stop stop-opacity="1" stop-color="rgb(16.717529%, 72.105408%, 82.087708%)" offset="0.9375"/><stop stop-opacity="1" stop-color="rgb(16.690063%, 72.016907%, 82.466125%)" offset="0.945312"/><stop stop-opacity="1" stop-color="rgb(16.662598%, 71.928406%, 82.844543%)" offset="0.953125"/><stop stop-opacity="1" stop-color="rgb(16.635132%, 71.838379%, 83.222961%)" offset="0.960937"/><stop stop-opacity="1" stop-color="rgb(16.607666%, 71.749878%, 83.601379%)" offset="0.96875"/><stop stop-opacity="1" stop-color="rgb(16.5802%, 71.661377%, 83.978271%)" offset="0.976562"/><stop stop-opacity="1" stop-color="rgb(16.552734%, 71.572876%, 84.356689%)" offset="0.984375"/><stop stop-opacity="1" stop-color="rgb(16.525269%, 71.484375%, 84.735107%)" offset="0.992188"/><stop stop-opacity="1" stop-color="rgb(16.505432%, 71.418762%, 85.011292%)" offset="1"/></linearGradient><clipPath id="dd4495f598"><path d="M 0.492188 0 L 53.507812 0 L 53.507812 53.019531 L 0.492188 53.019531 Z M 0.492188 0 " clip-rule="nonzero"/></clipPath><clipPath id="02e59f7665"><path d="M 53.507812 26.507812 C 53.507812 41.148438 41.640625 53.019531 27 53.019531 C 12.359375 53.019531 0.492188 41.148438 0.492188 26.507812 C 0.492188 11.867188 12.359375 0 27 0 C 41.640625 0 53.507812 11.867188 53.507812 26.507812 Z M 53.507812 26.507812 " clip-rule="nonzero"/></clipPath><clipPath id="b2cfc6cadb"><path d="M 14.4375 5.300781 L 39.460938 5.300781 L 39.460938 48.011719 L 14.4375 48.011719 Z M 14.4375 5.300781 " clip-rule="nonzero"/></clipPath><clipPath id="53a21c54a8"><path d="M 16.394531 16.289062 L 31 16.289062 L 31 27 L 16.394531 27 Z M 16.394531 16.289062 " clip-rule="nonzero"/></clipPath><clipPath id="662147a397"><path d="M 16.394531 24 L 24 24 L 24 29 L 16.394531 29 Z M 16.394531 24 " clip-rule="nonzero"/></clipPath><clipPath id="4f079fe0e9"><path d="M 16.394531 26 L 24 26 L 24 31 L 16.394531 31 Z M 16.394531 26 " clip-rule="nonzero"/></clipPath><clipPath id="f1591fa8c5"><path d="M 24 22 L 37.75 22 L 37.75 36.910156 L 24 36.910156 Z M 24 22 " clip-rule="nonzero"/></clipPath></defs><g clip-path="url(#4070460442)"><g clip-path="url(#938cb3867b)"><path fill="url(#4e5d293254)" d="M 0.492188 0 L 0.492188 53.019531 L 53.507812 53.019531 L 53.507812 0 Z M 0.492188 0 " fill-rule="nonzero"/></g></g><path fill="#ffffff" d="M 33.355469 11.78125 C 33.660156 11.78125 33.949219 11.839844 34.226562 11.957031 C 34.507812 12.070312 34.753906 12.234375 34.964844 12.449219 C 35.179688 12.664062 35.34375 12.910156 35.460938 13.1875 C 35.574219 13.464844 35.632812 13.757812 35.632812 14.058594 L 35.632812 19.632812 C 39.484375 19.84375 42.550781 22.847656 42.550781 26.507812 C 42.550781 30.171875 39.484375 33.175781 35.632812 33.386719 L 35.632812 38.960938 C 35.632812 39.261719 35.574219 39.550781 35.460938 39.832031 C 35.34375 40.109375 35.179688 40.355469 34.964844 40.570312 C 34.753906 40.78125 34.507812 40.945312 34.226562 41.0625 C 33.949219 41.179688 33.660156 41.234375 33.355469 41.238281 L 20.445312 41.238281 C 20.144531 41.234375 19.851562 41.179688 19.574219 41.0625 C 19.296875 40.945312 19.050781 40.78125 18.835938 40.570312 C 18.621094 40.355469 18.457031 40.109375 18.34375 39.832031 C 18.226562 39.550781 18.167969 39.261719 18.167969 38.960938 L 18.167969 33.628906 C 18.167969 33.507812 18.210938 33.40625 18.296875 33.324219 C 18.378906 33.238281 18.480469 33.195312 18.601562 33.195312 C 18.71875 33.195312 18.824219 33.238281 18.90625 33.324219 C 18.992188 33.40625 19.035156 33.507812 19.035156 33.628906 L 19.035156 36.222656 L 34.769531 36.222656 L 34.769531 33.386719 C 34.039062 33.347656 33.332031 33.207031 32.640625 32.96875 L 29.414062 34.726562 C 29.070312 34.914062 28.667969 34.566406 28.800781 34.199219 L 29.761719 31.550781 L 24.828125 31.550781 C 24.707031 31.550781 24.605469 31.511719 24.519531 31.425781 L 21.0625 27.96875 C 20.976562 27.882812 20.9375 27.78125 20.933594 27.664062 L 20.933594 18.207031 C 20.933594 17.96875 21.128906 17.777344 21.367188 17.777344 L 32.433594 17.777344 C 32.671875 17.777344 32.867188 17.96875 32.867188 18.207031 L 32.867188 19.976562 C 33.46875 19.789062 34.109375 19.667969 34.769531 19.632812 L 34.769531 16.335938 L 19.03125 16.335938 L 19.03125 31.582031 C 19.03125 31.699219 18.992188 31.800781 18.90625 31.886719 C 18.820312 31.972656 18.71875 32.011719 18.601562 32.011719 C 18.480469 32.011719 18.378906 31.972656 18.292969 31.886719 C 18.210938 31.800781 18.167969 31.699219 18.167969 31.582031 L 18.167969 14.058594 C 18.167969 13.757812 18.226562 13.464844 18.34375 13.1875 C 18.457031 12.910156 18.621094 12.664062 18.835938 12.449219 C 19.050781 12.234375 19.296875 12.070312 19.574219 11.957031 C 19.851562 11.839844 20.144531 11.78125 20.445312 11.78125 Z M 34.769531 37.085938 L 19.03125 37.085938 L 19.03125 38.960938 C 19.03125 39.148438 19.070312 39.328125 19.140625 39.5 C 19.210938 39.671875 19.3125 39.824219 19.445312 39.957031 C 19.578125 40.089844 19.730469 40.191406 19.90625 40.265625 C 20.078125 40.335938 20.257812 40.371094 20.445312 40.371094 L 33.355469 40.371094 C 33.542969 40.371094 33.722656 40.335938 33.898438 40.265625 C 34.070312 40.191406 34.222656 40.089844 34.355469 39.957031 C 34.488281 39.824219 34.589844 39.671875 34.660156 39.5 C 34.734375 39.328125 34.769531 39.148438 34.769531 38.960938 Z M 27.824219 37.605469 C 28.0625 37.605469 28.253906 37.796875 28.253906 38.039062 L 28.253906 39.421875 C 28.253906 39.539062 28.214844 39.640625 28.128906 39.726562 C 28.042969 39.808594 27.941406 39.851562 27.824219 39.851562 L 25.980469 39.851562 C 25.859375 39.851562 25.757812 39.808594 25.671875 39.726562 C 25.589844 39.640625 25.546875 39.539062 25.546875 39.421875 L 25.546875 38.039062 C 25.546875 37.796875 25.738281 37.605469 25.980469 37.605469 Z M 27.390625 38.46875 L 26.410156 38.46875 L 26.410156 38.988281 L 27.390625 38.988281 Z M 35.203125 20.484375 C 31.625 20.484375 28.71875 23.1875 28.71875 26.507812 C 28.71875 28.140625 29.410156 29.671875 30.667969 30.8125 C 30.796875 30.933594 30.84375 31.117188 30.78125 31.28125 L 30.003906 33.421875 L 32.398438 32.113281 C 32.515625 32.050781 32.636719 32.042969 32.757812 32.089844 C 33.546875 32.386719 34.359375 32.535156 35.203125 32.53125 C 38.777344 32.53125 41.6875 29.832031 41.6875 26.507812 C 41.6875 23.1875 38.777344 20.484375 35.203125 20.484375 Z M 35.203125 21.464844 C 35.441406 21.464844 35.632812 21.660156 35.632812 21.898438 L 35.632812 22.847656 L 35.664062 22.847656 C 35.902344 22.847656 36.136719 22.894531 36.359375 22.988281 C 36.578125 23.078125 36.777344 23.210938 36.945312 23.382812 C 37.117188 23.550781 37.246094 23.746094 37.339844 23.96875 C 37.433594 24.191406 37.476562 24.425781 37.476562 24.664062 L 37.476562 25.125 C 37.476562 25.246094 37.4375 25.347656 37.351562 25.429688 C 37.265625 25.515625 37.164062 25.558594 37.046875 25.558594 C 36.925781 25.558594 36.824219 25.515625 36.742188 25.429688 C 36.65625 25.347656 36.613281 25.246094 36.613281 25.125 L 36.613281 24.664062 C 36.613281 24.140625 36.1875 23.714844 35.664062 23.714844 L 34.96875 23.714844 C 34.320312 23.714844 33.789062 24.242188 33.789062 24.894531 C 33.789062 25.546875 34.320312 26.078125 34.972656 26.078125 L 35.433594 26.078125 C 35.703125 26.078125 35.964844 26.128906 36.214844 26.234375 C 36.464844 26.335938 36.6875 26.484375 36.878906 26.675781 C 37.070312 26.867188 37.21875 27.089844 37.320312 27.339844 C 37.425781 27.589844 37.476562 27.851562 37.476562 28.125 C 37.476562 29.183594 36.667969 30.058594 35.632812 30.160156 L 35.632812 31.121094 C 35.632812 31.238281 35.589844 31.339844 35.507812 31.425781 C 35.421875 31.511719 35.320312 31.550781 35.203125 31.550781 C 35.082031 31.550781 34.980469 31.511719 34.894531 31.425781 C 34.8125 31.339844 34.769531 31.238281 34.769531 31.121094 L 34.769531 30.167969 L 34.738281 30.167969 C 34.5 30.167969 34.269531 30.121094 34.046875 30.03125 C 33.824219 29.9375 33.628906 29.808594 33.457031 29.636719 C 33.285156 29.464844 33.15625 29.269531 33.0625 29.046875 C 32.972656 28.824219 32.925781 28.59375 32.925781 28.355469 C 32.925781 28.234375 32.96875 28.132812 33.050781 28.046875 C 33.136719 27.964844 33.238281 27.921875 33.355469 27.921875 C 33.476562 27.921875 33.578125 27.964844 33.664062 28.046875 C 33.746094 28.132812 33.789062 28.234375 33.789062 28.355469 C 33.789062 28.878906 34.214844 29.304688 34.742188 29.304688 L 35.433594 29.304688 C 36.082031 29.304688 36.613281 28.773438 36.613281 28.125 C 36.613281 27.472656 36.082031 26.941406 35.433594 26.941406 L 34.972656 26.941406 C 34.699219 26.941406 34.4375 26.890625 34.1875 26.785156 C 33.9375 26.679688 33.714844 26.535156 33.523438 26.339844 C 33.332031 26.148438 33.183594 25.929688 33.082031 25.679688 C 32.976562 25.425781 32.925781 25.167969 32.925781 24.894531 C 32.925781 23.835938 33.734375 22.960938 34.769531 22.859375 L 34.769531 21.898438 C 34.769531 21.660156 34.964844 21.464844 35.203125 21.464844 Z M 32.003906 18.640625 L 21.800781 18.640625 L 21.800781 27.230469 L 24.828125 27.230469 C 25.066406 27.230469 25.257812 27.421875 25.257812 27.664062 L 25.257812 30.6875 L 29.359375 30.6875 C 28.378906 29.496094 27.851562 28.042969 27.851562 26.507812 C 27.851562 25.691406 28.007812 24.902344 28.289062 24.175781 L 23.671875 24.175781 C 23.554688 24.175781 23.453125 24.132812 23.367188 24.046875 C 23.28125 23.964844 23.242188 23.863281 23.242188 23.742188 C 23.242188 23.625 23.28125 23.519531 23.367188 23.4375 C 23.453125 23.351562 23.554688 23.308594 23.671875 23.308594 L 28.695312 23.308594 C 28.988281 22.785156 29.351562 22.300781 29.773438 21.871094 L 28.285156 21.871094 C 28.164062 21.871094 28.0625 21.828125 27.980469 21.742188 C 27.894531 21.660156 27.851562 21.554688 27.851562 21.4375 C 27.851562 21.316406 27.894531 21.214844 27.980469 21.132812 C 28.0625 21.046875 28.164062 21.003906 28.285156 21.003906 L 30.589844 21.003906 C 30.644531 21.003906 30.699219 21.015625 30.746094 21.035156 C 31.136719 20.753906 31.558594 20.511719 32.003906 20.308594 Z M 24.394531 28.09375 L 22.410156 28.09375 L 24.394531 30.078125 Z M 26.902344 25.617188 C 27.019531 25.617188 27.121094 25.65625 27.207031 25.742188 C 27.292969 25.828125 27.332031 25.929688 27.332031 26.046875 C 27.332031 26.167969 27.292969 26.269531 27.207031 26.355469 C 27.121094 26.4375 27.019531 26.480469 26.902344 26.480469 L 23.671875 26.480469 C 23.554688 26.480469 23.453125 26.4375 23.367188 26.355469 C 23.28125 26.269531 23.242188 26.167969 23.242188 26.046875 C 23.242188 25.929688 23.28125 25.828125 23.367188 25.742188 C 23.453125 25.65625 23.554688 25.617188 23.671875 25.617188 Z M 26.441406 21.003906 C 26.558594 21.003906 26.660156 21.046875 26.746094 21.128906 C 26.832031 21.214844 26.871094 21.316406 26.871094 21.4375 C 26.871094 21.554688 26.832031 21.65625 26.746094 21.742188 C 26.660156 21.828125 26.558594 21.871094 26.441406 21.871094 L 23.671875 21.871094 C 23.554688 21.871094 23.453125 21.828125 23.367188 21.742188 C 23.28125 21.65625 23.242188 21.554688 23.242188 21.4375 C 23.242188 21.316406 23.28125 21.214844 23.367188 21.128906 C 23.453125 21.046875 23.554688 21.003906 23.671875 21.003906 Z M 33.355469 12.644531 L 20.445312 12.644531 C 20.257812 12.648438 20.078125 12.683594 19.90625 12.753906 C 19.734375 12.824219 19.578125 12.929688 19.449219 13.058594 C 19.316406 13.191406 19.214844 13.34375 19.140625 13.519531 C 19.070312 13.691406 19.035156 13.871094 19.035156 14.058594 L 19.035156 15.472656 L 34.769531 15.472656 L 34.769531 14.058594 C 34.769531 13.871094 34.734375 13.691406 34.660156 13.519531 C 34.589844 13.34375 34.488281 13.191406 34.355469 13.058594 C 34.222656 12.929688 34.070312 12.824219 33.898438 12.753906 C 33.722656 12.683594 33.542969 12.648438 33.355469 12.644531 Z M 27.824219 13.625 C 27.941406 13.625 28.042969 13.667969 28.128906 13.753906 C 28.214844 13.835938 28.257812 13.9375 28.257812 14.058594 C 28.257812 14.179688 28.214844 14.28125 28.128906 14.363281 C 28.042969 14.449219 27.941406 14.492188 27.824219 14.492188 L 25.980469 14.492188 C 25.859375 14.492188 25.757812 14.449219 25.671875 14.363281 C 25.589844 14.28125 25.546875 14.179688 25.546875 14.058594 C 25.546875 13.9375 25.589844 13.835938 25.671875 13.753906 C 25.757812 13.667969 25.859375 13.625 25.980469 13.625 Z M 27.824219 13.625 " fill-opacity="1" fill-rule="nonzero"/><g clip-path="url(#dd4495f598)"><g clip-path="url(#02e59f7665)"><path fill="#8c52ff" d="M 0.492188 0 L 53.507812 0 L 53.507812 53.019531 L 0.492188 53.019531 Z M 0.492188 0 " fill-opacity="1" fill-rule="nonzero"/></g></g><g clip-path="url(#b2cfc6cadb)"><path fill="#ffffff" d="M 38.34375 10.679688 L 15.550781 10.679688 L 15.550781 8.375 C 15.550781 7.40625 16.21875 6.621094 17.039062 6.621094 L 36.855469 6.621094 C 37.679688 6.621094 38.34375 7.40625 38.34375 8.375 Z M 38.34375 41.421875 L 15.550781 41.421875 L 15.550781 11.78125 L 38.34375 11.78125 Z M 38.34375 44.9375 C 38.34375 45.90625 37.679688 46.691406 36.855469 46.691406 L 17.039062 46.691406 C 16.21875 46.691406 15.550781 45.90625 15.550781 44.9375 L 15.550781 42.519531 L 38.34375 42.519531 Z M 36.855469 5.300781 L 17.039062 5.300781 C 15.605469 5.300781 14.4375 6.679688 14.4375 8.375 L 14.4375 44.9375 C 14.4375 46.632812 15.605469 48.011719 17.039062 48.011719 L 36.855469 48.011719 C 38.292969 48.011719 39.460938 46.632812 39.460938 44.9375 L 39.460938 8.375 C 39.460938 6.679688 38.292969 5.300781 36.855469 5.300781 " fill-opacity="1" fill-rule="nonzero"/></g><path fill="#ffffff" d="M 25.601562 45.375 L 28.296875 45.375 C 28.65625 45.375 28.949219 45.03125 28.949219 44.605469 C 28.949219 44.183594 28.65625 43.839844 28.296875 43.839844 L 25.601562 43.839844 C 25.242188 43.839844 24.949219 44.183594 24.949219 44.605469 C 24.949219 45.03125 25.242188 45.375 25.601562 45.375 " fill-opacity="1" fill-rule="nonzero"/><g clip-path="url(#53a21c54a8)"><path fill="#ffffff" d="M 23.570312 26.132812 C 19.96875 26.132812 17.035156 24.476562 17.035156 22.4375 C 17.039062 22.414062 17.039062 22.394531 17.035156 22.375 C 18.148438 23.878906 20.660156 24.949219 23.578125 24.949219 C 23.921875 24.949219 24.265625 24.933594 24.601562 24.90625 C 24.6875 24.894531 24.753906 24.859375 24.808594 24.792969 C 24.863281 24.726562 24.886719 24.652344 24.878906 24.566406 C 24.871094 24.480469 24.835938 24.410156 24.773438 24.355469 C 24.707031 24.300781 24.632812 24.273438 24.550781 24.28125 C 24.230469 24.308594 23.902344 24.320312 23.578125 24.320312 C 19.96875 24.320312 17.035156 22.664062 17.035156 20.621094 C 17.035156 18.582031 19.96875 16.925781 23.570312 16.925781 C 27.171875 16.925781 30.105469 18.578125 30.105469 20.621094 C 30.101562 20.992188 30.011719 21.339844 29.835938 21.664062 C 29.796875 21.738281 29.789062 21.820312 29.8125 21.902344 C 29.839844 21.984375 29.890625 22.046875 29.964844 22.085938 C 30.042969 22.128906 30.121094 22.136719 30.203125 22.109375 C 30.289062 22.085938 30.347656 22.035156 30.390625 21.957031 C 30.613281 21.539062 30.726562 21.097656 30.730469 20.621094 C 30.730469 18.238281 27.515625 16.296875 23.570312 16.296875 C 19.621094 16.296875 16.410156 18.238281 16.410156 20.621094 C 16.417969 21.1875 16.578125 21.707031 16.890625 22.175781 C 16.789062 22.105469 16.683594 22.097656 16.574219 22.15625 C 16.464844 22.214844 16.410156 22.304688 16.410156 22.425781 C 16.410156 24.8125 19.621094 26.75 23.570312 26.75 C 23.65625 26.75 23.730469 26.71875 23.792969 26.660156 C 23.851562 26.597656 23.882812 26.523438 23.882812 26.4375 C 23.882812 26.351562 23.851562 26.277344 23.792969 26.214844 C 23.730469 26.152344 23.65625 26.121094 23.570312 26.121094 Z M 23.570312 26.132812 " fill-opacity="1" fill-rule="nonzero"/></g><g clip-path="url(#662147a397)"><path fill="#ffffff" d="M 23.019531 28.121094 C 19.664062 27.964844 17.035156 26.347656 17.035156 24.441406 C 17.035156 24.355469 17.003906 24.28125 16.945312 24.21875 C 16.882812 24.15625 16.808594 24.125 16.722656 24.125 C 16.636719 24.125 16.5625 24.15625 16.5 24.21875 C 16.4375 24.28125 16.410156 24.355469 16.410156 24.441406 C 16.410156 26.71875 19.234375 28.574219 22.988281 28.753906 L 23.003906 28.753906 C 23.089844 28.757812 23.164062 28.726562 23.226562 28.667969 C 23.289062 28.609375 23.320312 28.535156 23.324219 28.449219 C 23.324219 28.363281 23.296875 28.285156 23.238281 28.222656 C 23.175781 28.160156 23.105469 28.128906 23.019531 28.125 Z M 23.019531 28.121094 " fill-opacity="1" fill-rule="nonzero"/></g><g clip-path="url(#4f079fe0e9)"><path fill="#ffffff" d="M 22.980469 30.128906 C 19.648438 29.960938 17.035156 28.339844 17.035156 26.445312 C 17.035156 26.359375 17.003906 26.285156 16.945312 26.226562 C 16.882812 26.164062 16.808594 26.132812 16.722656 26.132812 C 16.636719 26.132812 16.5625 26.164062 16.5 26.226562 C 16.4375 26.285156 16.410156 26.359375 16.410156 26.445312 C 16.410156 28.707031 19.21875 30.566406 22.945312 30.757812 L 22.960938 30.757812 C 23.046875 30.761719 23.121094 30.734375 23.183594 30.671875 C 23.246094 30.613281 23.28125 30.539062 23.28125 30.453125 C 23.285156 30.367188 23.257812 30.292969 23.195312 30.230469 C 23.136719 30.167969 23.066406 30.132812 22.976562 30.132812 Z M 22.980469 30.128906 " fill-opacity="1" fill-rule="nonzero"/></g><path fill="#ffffff" d="M 31.261719 32.390625 L 31.375 32.390625 C 31.617188 32.398438 31.828125 32.324219 32.011719 32.160156 C 32.191406 31.996094 32.289062 31.792969 32.300781 31.550781 L 32.300781 30.753906 C 32.300781 30.558594 32.105469 30.328125 31.757812 30.121094 L 31.257812 29.945312 Z M 31.261719 32.390625 " fill-opacity="1" fill-rule="nonzero"/><g clip-path="url(#f1591fa8c5)"><path fill="#ffffff" d="M 30.875 22.632812 C 30.421875 22.632812 29.976562 22.679688 29.535156 22.765625 C 29.09375 22.855469 28.664062 22.984375 28.25 23.15625 C 27.832031 23.328125 27.4375 23.542969 27.0625 23.792969 C 26.6875 24.042969 26.34375 24.328125 26.023438 24.648438 C 25.707031 24.964844 25.421875 25.3125 25.171875 25.6875 C 24.921875 26.0625 24.710938 26.460938 24.539062 26.875 C 24.367188 27.292969 24.234375 27.722656 24.148438 28.164062 C 24.058594 28.609375 24.015625 29.054688 24.015625 29.503906 C 24.015625 29.957031 24.058594 30.402344 24.148438 30.847656 C 24.234375 31.289062 24.363281 31.71875 24.539062 32.136719 C 24.710938 32.550781 24.921875 32.949219 25.171875 33.324219 C 25.421875 33.699219 25.707031 34.046875 26.023438 34.363281 C 26.34375 34.683594 26.6875 34.96875 27.0625 35.21875 C 27.4375 35.46875 27.832031 35.679688 28.25 35.855469 C 28.664062 36.027344 29.09375 36.15625 29.535156 36.246094 C 29.976562 36.332031 30.421875 36.375 30.875 36.375 C 31.324219 36.375 31.769531 36.332031 32.210938 36.246094 C 32.652344 36.15625 33.082031 36.027344 33.5 35.851562 C 33.914062 35.679688 34.308594 35.46875 34.683594 35.21875 C 35.058594 34.96875 35.40625 34.683594 35.722656 34.363281 C 36.042969 34.042969 36.328125 33.695312 36.578125 33.320312 C 36.828125 32.945312 37.039062 32.550781 37.210938 32.132812 C 37.382812 31.714844 37.511719 31.285156 37.601562 30.84375 C 37.6875 30.402344 37.730469 29.953125 37.730469 29.503906 C 37.730469 29.050781 37.6875 28.605469 37.597656 28.164062 C 37.511719 27.722656 37.378906 27.292969 37.207031 26.875 C 37.035156 26.457031 36.824219 26.0625 36.574219 25.6875 C 36.324219 25.3125 36.039062 24.964844 35.71875 24.648438 C 35.402344 24.328125 35.054688 24.042969 34.679688 23.792969 C 34.308594 23.542969 33.914062 23.332031 33.496094 23.160156 C 33.082031 22.984375 32.652344 22.855469 32.210938 22.765625 C 31.769531 22.679688 31.324219 22.636719 30.875 22.632812 Z M 30.875 35.027344 C 30.511719 35.027344 30.152344 34.992188 29.796875 34.921875 C 29.441406 34.851562 29.097656 34.746094 28.761719 34.609375 C 28.429688 34.46875 28.109375 34.296875 27.808594 34.097656 C 27.507812 33.894531 27.230469 33.667969 26.972656 33.410156 C 26.71875 33.152344 26.488281 32.875 26.289062 32.574219 C 26.085938 32.269531 25.917969 31.953125 25.777344 31.617188 C 25.640625 31.28125 25.535156 30.9375 25.464844 30.582031 C 25.394531 30.226562 25.359375 29.867188 25.359375 29.503906 C 25.359375 29.140625 25.394531 28.78125 25.464844 28.425781 C 25.535156 28.070312 25.640625 27.722656 25.777344 27.390625 C 25.917969 27.054688 26.085938 26.734375 26.289062 26.433594 C 26.488281 26.132812 26.71875 25.851562 26.972656 25.597656 C 27.230469 25.339844 27.507812 25.109375 27.808594 24.910156 C 28.109375 24.707031 28.429688 24.539062 28.761719 24.398438 C 29.097656 24.261719 29.441406 24.15625 29.796875 24.085938 C 30.152344 24.011719 30.511719 23.976562 30.875 23.976562 C 31.234375 23.976562 31.59375 24.011719 31.949219 24.085938 C 32.304688 24.15625 32.648438 24.261719 32.984375 24.398438 C 33.316406 24.539062 33.636719 24.707031 33.9375 24.910156 C 34.238281 25.109375 34.515625 25.339844 34.773438 25.597656 C 35.027344 25.851562 35.257812 26.132812 35.457031 26.433594 C 35.660156 26.734375 35.828125 27.054688 35.96875 27.390625 C 36.105469 27.722656 36.210938 28.070312 36.28125 28.425781 C 36.351562 28.78125 36.386719 29.140625 36.386719 29.503906 C 36.386719 29.867188 36.351562 30.226562 36.28125 30.582031 C 36.210938 30.9375 36.105469 31.28125 35.96875 31.617188 C 35.828125 31.953125 35.660156 32.269531 35.457031 32.574219 C 35.257812 32.875 35.027344 33.152344 34.773438 33.410156 C 34.515625 33.667969 34.238281 33.894531 33.9375 34.097656 C 33.636719 34.296875 33.316406 34.46875 32.984375 34.609375 C 32.648438 34.746094 32.304688 34.851562 31.949219 34.921875 C 31.59375 34.992188 31.234375 35.027344 30.875 35.027344 Z M 30.875 35.027344 " fill-opacity="1" fill-rule="nonzero"/></g><path fill="#ffffff" d="M 29.445312 27.417969 L 29.445312 28.203125 C 29.445312 28.453125 29.726562 28.667969 29.96875 28.816406 L 30.636719 29.054688 L 30.636719 26.578125 L 30.382812 26.578125 C 30.140625 26.566406 29.925781 26.640625 29.742188 26.804688 C 29.558594 26.96875 29.457031 27.171875 29.445312 27.417969 Z M 29.445312 27.417969 " fill-opacity="1" fill-rule="nonzero"/><path fill="#ffffff" d="M 30.875 24.601562 C 30.550781 24.601562 30.234375 24.636719 29.921875 24.699219 C 29.605469 24.761719 29.300781 24.851562 29.003906 24.976562 C 28.707031 25.097656 28.425781 25.25 28.15625 25.429688 C 27.890625 25.609375 27.644531 25.808594 27.417969 26.039062 C 27.191406 26.265625 26.988281 26.511719 26.808594 26.78125 C 26.632812 27.046875 26.480469 27.328125 26.359375 27.625 C 26.234375 27.921875 26.140625 28.230469 26.078125 28.546875 C 26.015625 28.859375 25.984375 29.179688 25.984375 29.5 C 25.984375 29.820312 26.015625 30.140625 26.078125 30.457031 C 26.140625 30.769531 26.234375 31.078125 26.359375 31.375 C 26.480469 31.671875 26.632812 31.953125 26.808594 32.222656 C 26.988281 32.488281 27.191406 32.734375 27.417969 32.964844 C 27.644531 33.191406 27.890625 33.394531 28.15625 33.574219 C 28.425781 33.75 28.707031 33.902344 29.003906 34.023438 C 29.300781 34.148438 29.605469 34.242188 29.921875 34.304688 C 30.234375 34.367188 30.550781 34.398438 30.875 34.398438 C 31.195312 34.398438 31.511719 34.367188 31.828125 34.304688 C 32.140625 34.242188 32.449219 34.148438 32.742188 34.023438 C 33.039062 33.902344 33.320312 33.75 33.589844 33.574219 C 33.855469 33.394531 34.101562 33.191406 34.328125 32.964844 C 34.554688 32.734375 34.757812 32.488281 34.9375 32.222656 C 35.117188 31.953125 35.265625 31.671875 35.390625 31.375 C 35.511719 31.078125 35.605469 30.769531 35.667969 30.457031 C 35.730469 30.140625 35.761719 29.820312 35.761719 29.5 C 35.761719 29.179688 35.730469 28.859375 35.664062 28.546875 C 35.601562 28.230469 35.511719 27.925781 35.386719 27.628906 C 35.265625 27.332031 35.113281 27.050781 34.933594 26.78125 C 34.757812 26.515625 34.554688 26.265625 34.328125 26.039062 C 34.101562 25.8125 33.855469 25.609375 33.585938 25.429688 C 33.320312 25.253906 33.039062 25.101562 32.742188 24.976562 C 32.445312 24.855469 32.140625 24.761719 31.828125 24.699219 C 31.511719 24.636719 31.195312 24.605469 30.875 24.601562 Z M 32.929688 27.78125 C 32.929688 27.871094 32.898438 27.945312 32.835938 28.003906 C 32.777344 28.066406 32.703125 28.097656 32.617188 28.097656 C 32.527344 28.097656 32.457031 28.066406 32.394531 28.003906 C 32.332031 27.945312 32.300781 27.871094 32.300781 27.78125 L 32.300781 27.417969 C 32.289062 27.175781 32.191406 26.972656 32.011719 26.808594 C 31.828125 26.644531 31.617188 26.570312 31.375 26.578125 L 31.261719 26.578125 L 31.261719 29.28125 L 31.996094 29.53125 C 32.015625 29.539062 32.03125 29.546875 32.050781 29.554688 C 32.625 29.890625 32.929688 30.308594 32.929688 30.742188 L 32.929688 31.53125 C 32.921875 31.730469 32.878906 31.921875 32.796875 32.105469 C 32.714844 32.289062 32.601562 32.449219 32.457031 32.585938 C 32.3125 32.726562 32.144531 32.828125 31.957031 32.898438 C 31.769531 32.972656 31.574219 33.003906 31.375 32.996094 L 31.261719 32.996094 L 31.261719 33.246094 C 31.261719 33.335938 31.230469 33.410156 31.171875 33.46875 C 31.109375 33.53125 31.035156 33.5625 30.949219 33.5625 C 30.863281 33.5625 30.789062 33.53125 30.726562 33.46875 C 30.664062 33.410156 30.636719 33.335938 30.636719 33.246094 L 30.636719 32.996094 L 30.382812 32.996094 C 30.183594 33.003906 29.988281 32.976562 29.800781 32.90625 C 29.613281 32.835938 29.445312 32.734375 29.296875 32.597656 C 29.148438 32.460938 29.035156 32.300781 28.949219 32.117188 C 28.867188 31.933594 28.820312 31.742188 28.816406 31.539062 L 28.816406 31.171875 C 28.816406 31.085938 28.847656 31.011719 28.90625 30.953125 C 28.96875 30.890625 29.042969 30.859375 29.128906 30.859375 C 29.214844 30.859375 29.289062 30.890625 29.351562 30.953125 C 29.410156 31.011719 29.441406 31.085938 29.441406 31.171875 L 29.441406 31.539062 C 29.453125 31.785156 29.550781 31.992188 29.734375 32.15625 C 29.914062 32.324219 30.128906 32.402344 30.375 32.390625 L 30.625 32.390625 L 30.625 29.722656 L 29.71875 29.398438 L 29.664062 29.371094 C 29.105469 29.039062 28.816406 28.644531 28.816406 28.203125 L 28.816406 27.417969 C 28.820312 27.21875 28.863281 27.027344 28.945312 26.84375 C 29.027344 26.660156 29.144531 26.496094 29.289062 26.359375 C 29.433594 26.222656 29.601562 26.117188 29.789062 26.046875 C 29.976562 25.976562 30.171875 25.945312 30.371094 25.953125 L 30.621094 25.953125 L 30.621094 25.761719 C 30.621094 25.675781 30.652344 25.601562 30.714844 25.539062 C 30.777344 25.476562 30.847656 25.449219 30.9375 25.449219 C 31.023438 25.449219 31.097656 25.476562 31.15625 25.539062 C 31.21875 25.601562 31.25 25.675781 31.25 25.761719 L 31.25 25.953125 L 31.363281 25.953125 C 31.5625 25.945312 31.757812 25.976562 31.945312 26.046875 C 32.132812 26.121094 32.296875 26.222656 32.445312 26.359375 C 32.589844 26.5 32.703125 26.660156 32.785156 26.84375 C 32.867188 27.027344 32.910156 27.21875 32.917969 27.417969 Z M 32.929688 27.78125 " fill-opacity="1" fill-rule="nonzero"/><path fill="#ffffff" d="M 25.304688 19.398438 C 25.394531 19.402344 25.472656 19.371094 25.535156 19.308594 C 25.597656 19.242188 25.628906 19.167969 25.625 19.078125 L 25.625 18.828125 C 25.625 18.179688 24.941406 17.667969 24.070312 17.667969 L 23.960938 17.667969 L 23.960938 17.617188 C 23.960938 17.53125 23.929688 17.457031 23.867188 17.394531 C 23.808594 17.332031 23.734375 17.304688 23.648438 17.304688 C 23.5625 17.304688 23.488281 17.332031 23.425781 17.394531 C 23.363281 17.457031 23.332031 17.53125 23.332031 17.617188 L 23.332031 17.667969 L 23.070312 17.667969 C 22.199219 17.667969 21.515625 18.171875 21.515625 18.828125 L 21.515625 19.398438 C 21.515625 19.960938 22.1875 20.25 22.410156 20.34375 C 22.421875 20.351562 22.4375 20.355469 22.453125 20.359375 L 23.332031 20.589844 L 23.332031 22.363281 L 23.070312 22.363281 C 22.523438 22.363281 22.144531 22.085938 22.144531 21.835938 L 22.144531 21.558594 C 22.144531 21.472656 22.113281 21.398438 22.050781 21.335938 C 21.992188 21.277344 21.917969 21.246094 21.828125 21.246094 C 21.742188 21.246094 21.667969 21.277344 21.609375 21.335938 C 21.546875 21.398438 21.515625 21.472656 21.515625 21.558594 L 21.515625 21.839844 C 21.515625 22.488281 22.199219 22.996094 23.070312 22.996094 L 23.332031 22.996094 L 23.332031 23.085938 C 23.332031 23.171875 23.363281 23.246094 23.425781 23.308594 C 23.488281 23.371094 23.5625 23.402344 23.648438 23.402344 C 23.734375 23.402344 23.808594 23.371094 23.867188 23.308594 C 23.929688 23.246094 23.960938 23.171875 23.960938 23.085938 L 23.960938 22.996094 L 24.070312 22.996094 C 24.941406 22.996094 25.625 22.492188 25.625 21.839844 L 25.625 21.253906 C 25.625 20.878906 25.316406 20.554688 24.710938 20.296875 C 24.695312 20.289062 24.683594 20.285156 24.667969 20.28125 L 23.960938 20.09375 L 23.960938 18.289062 L 24.070312 18.289062 C 24.617188 18.289062 25 18.570312 25 18.820312 L 25 19.078125 C 24.996094 19.164062 25.023438 19.242188 25.085938 19.304688 C 25.144531 19.367188 25.21875 19.398438 25.304688 19.398438 Z M 24.480469 20.882812 C 24.902344 21.066406 24.992188 21.226562 24.992188 21.253906 L 24.992188 21.839844 C 24.992188 22.09375 24.613281 22.367188 24.066406 22.367188 L 23.957031 22.367188 L 23.957031 20.746094 Z M 23.332031 19.933594 L 22.632812 19.75 C 22.230469 19.574219 22.132812 19.433594 22.132812 19.390625 L 22.132812 18.828125 C 22.132812 18.578125 22.515625 18.296875 23.0625 18.296875 L 23.324219 18.296875 Z M 23.332031 19.933594 " fill-opacity="1" fill-rule="nonzero"/></svg>