<svg xmlns="http://www.w3.org/2000/svg" xmlns:xlink="http://www.w3.org/1999/xlink" width="72" zoomAndPan="magnify" viewBox="0 0 54 54" height="72" preserveAspectRatio="xMidYMid meet" version="1.0"><defs><clipPath id="6d738a6adc"><path d="M 0.492188 0 L 53.507812 0 L 53.507812 53.019531 L 0.492188 53.019531 Z M 0.492188 0 " clip-rule="nonzero"/></clipPath><clipPath id="60b27ddd61"><path d="M 53.507812 26.507812 C 53.507812 41.148438 41.640625 53.019531 27 53.019531 C 12.359375 53.019531 0.492188 41.148438 0.492188 26.507812 C 0.492188 11.867188 12.359375 0 27 0 C 41.640625 0 53.507812 11.867188 53.507812 26.507812 Z M 53.507812 26.507812 " clip-rule="nonzero"/></clipPath><clipPath id="3cea7d37d1"><path d="M 23.117188 22 L 43.457031 22 L 43.457031 46.503906 L 23.117188 46.503906 Z M 23.117188 22 " clip-rule="nonzero"/></clipPath><clipPath id="b422f4f086"><path d="M 10.335938 6.15625 L 33 6.15625 L 33 42 L 10.335938 42 Z M 10.335938 6.15625 " clip-rule="nonzero"/></clipPath></defs><g clip-path="url(#6d738a6adc)"><g clip-path="url(#60b27ddd61)"><path fill="#6b7ae5" d="M 0.492188 0 L 53.507812 0 L 53.507812 53.019531 L 0.492188 53.019531 Z M 0.492188 0 " fill-opacity="1" fill-rule="nonzero"/></g></g><g clip-path="url(#3cea7d37d1)"><path fill="#ffffff" d="M 41.957031 43.097656 L 33.257812 45.429688 C 32.945312 45.511719 32.609375 45.316406 32.527344 45.003906 L 31.796875 42.285156 C 31.753906 42.128906 31.773438 41.96875 31.855469 41.828125 C 31.933594 41.691406 32.066406 41.59375 32.21875 41.550781 L 40.917969 39.21875 C 40.96875 39.207031 41.019531 39.199219 41.074219 39.199219 C 41.34375 39.199219 41.582031 39.382812 41.652344 39.640625 L 42.378906 42.359375 C 42.46875 42.683594 42.273438 43.011719 41.957031 43.097656 Z M 25.289062 33.941406 C 24.933594 33.421875 24.695312 32.773438 25.070312 32.519531 C 25.613281 32.144531 27.292969 32.496094 28.765625 34.488281 C 28.8125 34.558594 28.855469 34.617188 28.886719 34.660156 L 29.742188 34.046875 C 29.699219 33.984375 29.652344 33.925781 29.609375 33.863281 C 27.332031 30.691406 23.988281 25.261719 24.34375 23.644531 C 24.382812 23.476562 24.445312 23.441406 24.476562 23.417969 C 25.210938 23.007812 28.003906 26.0625 29.492188 28.550781 L 30.035156 29.449219 L 30.429688 28.480469 C 30.554688 28.171875 31.019531 27.347656 31.660156 27.183594 C 32.046875 27.089844 32.488281 27.238281 32.972656 27.636719 L 33.339844 27.941406 L 33.675781 27.605469 C 33.683594 27.59375 34.460938 26.863281 35.277344 26.894531 C 35.707031 26.90625 36.097656 27.105469 36.464844 27.511719 L 36.828125 27.90625 L 37.214844 27.539062 C 37.21875 27.53125 37.738281 27.050781 38.28125 27.15625 C 38.792969 27.25 39.164062 27.839844 39.394531 28.316406 C 40.628906 30.90625 40.605469 36.621094 40.574219 38.222656 L 32.554688 40.375 C 31.558594 39.671875 26.859375 36.277344 25.289062 33.941406 Z M 43.398438 42.089844 L 42.667969 39.367188 C 42.523438 38.839844 42.117188 38.4375 41.625 38.253906 C 41.664062 36.585938 41.695312 30.695312 40.34375 27.863281 C 39.859375 26.84375 39.226562 26.257812 38.464844 26.117188 C 37.816406 26 37.253906 26.246094 36.894531 26.46875 C 36.417969 26.066406 35.882812 25.855469 35.304688 25.84375 C 34.421875 25.828125 33.699219 26.257812 33.285156 26.5625 C 32.644531 26.140625 32.011719 26.011719 31.394531 26.167969 C 30.726562 26.339844 30.238281 26.832031 29.917969 27.273438 C 28.753906 25.558594 25.757812 21.503906 23.964844 22.503906 C 23.632812 22.691406 23.410156 23.007812 23.316406 23.417969 C 22.945312 25.105469 25.050781 28.851562 26.789062 31.574219 C 25.871094 31.222656 25.03125 31.261719 24.472656 31.652344 C 23.839844 32.085938 23.449219 33.101562 24.414062 34.53125 C 25.890625 36.714844 29.714844 39.617188 31.371094 40.816406 C 31.199219 40.949219 31.054688 41.113281 30.941406 41.304688 C 30.726562 41.6875 30.664062 42.132812 30.777344 42.558594 L 31.511719 45.277344 C 31.703125 46 32.359375 46.503906 33.101562 46.503906 L 33.105469 46.503906 C 33.246094 46.503906 33.394531 46.480469 33.53125 46.445312 L 42.230469 44.117188 C 43.105469 43.878906 43.628906 42.972656 43.398438 42.089844 " fill-opacity="1" fill-rule="nonzero"/></g><path fill="#ffffff" d="M 22.046875 37.535156 C 22.046875 37.855469 21.789062 38.109375 21.472656 38.109375 C 21.160156 38.109375 20.898438 37.855469 20.898438 37.535156 C 20.898438 37.21875 21.15625 36.960938 21.472656 36.960938 C 21.789062 36.960938 22.046875 37.21875 22.046875 37.535156 Z M 19.847656 37.535156 C 19.847656 38.4375 20.578125 39.164062 21.472656 39.164062 C 22.367188 39.164062 23.097656 38.4375 23.097656 37.535156 C 23.097656 36.640625 22.367188 35.910156 21.472656 35.910156 C 20.578125 35.910156 19.847656 36.640625 19.847656 37.535156 " fill-opacity="1" fill-rule="nonzero"/><path fill="#ffffff" d="M 19.238281 16.527344 L 16.878906 16.527344 L 16.878906 14.164062 L 19.238281 14.164062 Z M 20.292969 13.109375 L 15.828125 13.109375 L 15.828125 17.578125 L 20.292969 17.578125 L 20.292969 13.109375 " fill-opacity="1" fill-rule="nonzero"/><path fill="#ffffff" d="M 26.070312 16.527344 L 23.703125 16.527344 L 23.703125 14.164062 L 26.070312 14.164062 Z M 27.121094 13.109375 L 22.652344 13.109375 L 22.652344 17.578125 L 27.121094 17.578125 L 27.121094 13.109375 " fill-opacity="1" fill-rule="nonzero"/><path fill="#ffffff" d="M 19.238281 23.136719 L 16.878906 23.136719 L 16.878906 20.777344 L 19.238281 20.777344 Z M 20.292969 19.722656 L 15.828125 19.722656 L 15.828125 24.191406 L 20.292969 24.191406 L 20.292969 19.722656 " fill-opacity="1" fill-rule="nonzero"/><path fill="#ffffff" d="M 16.878906 27.386719 L 19.238281 27.386719 L 19.238281 29.75 L 16.878906 29.75 Z M 15.828125 30.804688 L 20.292969 30.804688 L 20.292969 26.335938 L 15.828125 26.335938 L 15.828125 30.804688 " fill-opacity="1" fill-rule="nonzero"/><g clip-path="url(#b422f4f086)"><path fill="#ffffff" d="M 13.96875 39.988281 C 12.546875 39.988281 11.386719 38.832031 11.386719 37.40625 L 11.386719 9.945312 C 11.386719 8.523438 12.546875 7.363281 13.96875 7.363281 L 28.976562 7.363281 C 30.402344 7.363281 31.554688 8.523438 31.554688 9.945312 L 31.554688 25.09375 C 31.671875 25.078125 31.785156 25.050781 31.898438 25.050781 C 32.136719 25.050781 32.375 25.082031 32.609375 25.136719 L 32.609375 9.945312 C 32.609375 7.941406 30.980469 6.308594 28.976562 6.308594 L 13.96875 6.308594 C 11.964844 6.308594 10.335938 7.941406 10.335938 9.945312 L 10.335938 37.40625 C 10.335938 39.414062 11.964844 41.042969 13.96875 41.042969 L 28.976562 41.042969 C 29.253906 41.042969 29.519531 41.003906 29.78125 40.949219 C 29.386719 40.65625 28.972656 40.332031 28.539062 39.992188 L 13.96875 39.992188 L 13.96875 39.988281 " fill-opacity="1" fill-rule="nonzero"/></g><path fill="#ffffff" d="M 30.0625 25.648438 C 30.171875 25.570312 30.292969 25.511719 30.410156 25.445312 L 30.410156 10.734375 C 30.410156 9.585938 29.476562 8.652344 28.332031 8.652344 L 14.617188 8.652344 C 13.46875 8.652344 12.535156 9.585938 12.535156 10.734375 L 12.535156 33.179688 C 12.535156 34.324219 13.46875 35.261719 14.617188 35.261719 L 23.652344 35.261719 C 23.617188 35.214844 23.578125 35.167969 23.542969 35.117188 C 23.332031 34.804688 23.183594 34.503906 23.0625 34.207031 L 14.617188 34.207031 C 14.046875 34.207031 13.589844 33.746094 13.589844 33.179688 L 13.589844 10.734375 C 13.589844 10.167969 14.046875 9.707031 14.617188 9.707031 L 28.332031 9.707031 C 28.894531 9.707031 29.359375 10.167969 29.359375 10.734375 L 29.359375 24.734375 C 29.589844 25.023438 29.824219 25.324219 30.0625 25.648438 " fill-opacity="1" fill-rule="nonzero"/><path fill="#ffffff" d="M 27.121094 22.402344 L 27.121094 19.722656 L 22.652344 19.722656 L 22.652344 22.339844 C 22.859375 22.027344 23.125 21.769531 23.453125 21.582031 C 23.535156 21.539062 23.621094 21.519531 23.703125 21.480469 L 23.703125 20.777344 L 26.070312 20.777344 L 26.070312 21.71875 C 26.40625 21.894531 26.757812 22.113281 27.121094 22.402344 " fill-opacity="1" fill-rule="nonzero"/><path fill="#ffffff" d="M 22.792969 26.335938 L 22.652344 26.335938 L 22.652344 30.804688 L 23.855469 30.804688 C 23.863281 30.796875 23.867188 30.789062 23.875 30.78125 C 24.152344 30.59375 24.472656 30.453125 24.816406 30.371094 C 24.6875 30.152344 24.574219 29.953125 24.460938 29.75 L 23.703125 29.75 L 23.703125 28.351562 C 23.308594 27.570312 23.011719 26.902344 22.792969 26.335938 " fill-opacity="1" fill-rule="nonzero"/></svg>