<svg xmlns="http://www.w3.org/2000/svg" xmlns:xlink="http://www.w3.org/1999/xlink" width="72" zoomAndPan="magnify" viewBox="0 0 54 54" height="72" preserveAspectRatio="xMidYMid meet" version="1.0"><defs><clipPath id="c408f20759"><path d="M 0.492188 0 L 53.507812 0 L 53.507812 53.019531 L 0.492188 53.019531 Z M 0.492188 0 " clip-rule="nonzero"/></clipPath><clipPath id="6c14d0701e"><path d="M 53.507812 26.507812 C 53.507812 41.148438 41.640625 53.019531 27 53.019531 C 12.359375 53.019531 0.492188 41.148438 0.492188 26.507812 C 0.492188 11.867188 12.359375 0 27 0 C 41.640625 0 53.507812 11.867188 53.507812 26.507812 Z M 53.507812 26.507812 " clip-rule="nonzero"/></clipPath><clipPath id="bd124cc197"><path d="M 14.015625 4.589844 L 39.773438 4.589844 L 39.773438 48.773438 L 14.015625 48.773438 Z M 14.015625 4.589844 " clip-rule="nonzero"/></clipPath><clipPath id="10ec525d66"><path d="M 15.753906 15.671875 L 32 15.671875 L 32 27 L 15.753906 27 Z M 15.753906 15.671875 " clip-rule="nonzero"/></clipPath><clipPath id="ea9d59f455"><path d="M 15.753906 23 L 24 23 L 24 29 L 15.753906 29 Z M 15.753906 23 " clip-rule="nonzero"/></clipPath><clipPath id="ed70a09b75"><path d="M 15.753906 25 L 24 25 L 24 31 L 15.753906 31 Z M 15.753906 25 " clip-rule="nonzero"/></clipPath><clipPath id="1c076ca281"><path d="M 23 22 L 38.582031 22 L 38.582031 37 L 23 37 Z M 23 22 " clip-rule="nonzero"/></clipPath></defs><g clip-path="url(#c408f20759)"><g clip-path="url(#6c14d0701e)"><path fill="#6b7ae5" d="M 0.492188 0 L 53.507812 0 L 53.507812 53.019531 L 0.492188 53.019531 Z M 0.492188 0 " fill-opacity="1" fill-rule="nonzero"/></g></g><g clip-path="url(#bd124cc197)"><path fill="#ffffff" d="M 38.625 10.15625 L 15.167969 10.15625 L 15.167969 7.769531 C 15.167969 6.769531 15.851562 5.953125 16.699219 5.953125 L 37.09375 5.953125 C 37.9375 5.953125 38.625 6.769531 38.625 7.769531 Z M 38.625 41.957031 L 15.167969 41.957031 L 15.167969 11.289062 L 38.625 11.289062 Z M 38.625 45.589844 C 38.625 46.59375 37.9375 47.410156 37.09375 47.410156 L 16.699219 47.410156 C 15.851562 47.410156 15.167969 46.59375 15.167969 45.589844 L 15.167969 43.09375 L 38.625 43.09375 Z M 37.09375 4.589844 L 16.699219 4.589844 C 15.21875 4.589844 14.015625 6.015625 14.015625 7.769531 L 14.015625 45.589844 C 14.015625 47.34375 15.21875 48.773438 16.699219 48.773438 L 37.09375 48.773438 C 38.570312 48.773438 39.773438 47.34375 39.773438 45.589844 L 39.773438 7.769531 C 39.773438 6.015625 38.570312 4.589844 37.09375 4.589844 " fill-opacity="1" fill-rule="nonzero"/></g><path fill="#ffffff" d="M 25.507812 46.046875 L 28.285156 46.046875 C 28.652344 46.046875 28.953125 45.6875 28.953125 45.25 C 28.953125 44.8125 28.652344 44.457031 28.285156 44.457031 L 25.507812 44.457031 C 25.136719 44.457031 24.835938 44.8125 24.835938 45.25 C 24.835938 45.6875 25.136719 46.046875 25.507812 46.046875 " fill-opacity="1" fill-rule="nonzero"/><g clip-path="url(#10ec525d66)"><path fill="#ffffff" d="M 23.421875 25.867188 C 19.574219 25.867188 16.4375 24.148438 16.4375 22.039062 C 16.441406 22.015625 16.441406 21.996094 16.4375 21.972656 C 17.628906 23.535156 20.316406 24.640625 23.433594 24.640625 C 23.796875 24.640625 24.164062 24.625 24.527344 24.59375 C 24.617188 24.585938 24.691406 24.546875 24.75 24.476562 C 24.804688 24.410156 24.832031 24.332031 24.824219 24.246094 C 24.816406 24.15625 24.777344 24.085938 24.710938 24.027344 C 24.640625 23.96875 24.5625 23.941406 24.472656 23.949219 C 24.128906 23.976562 23.78125 23.992188 23.433594 23.992188 C 19.574219 23.992188 16.4375 22.273438 16.4375 20.160156 C 16.4375 18.046875 19.574219 16.332031 23.421875 16.332031 C 27.273438 16.332031 30.410156 18.039062 30.410156 20.160156 C 30.40625 20.542969 30.308594 20.902344 30.121094 21.238281 C 30.078125 21.316406 30.070312 21.398438 30.097656 21.484375 C 30.125 21.570312 30.179688 21.636719 30.261719 21.675781 C 30.34375 21.71875 30.429688 21.726562 30.515625 21.699219 C 30.605469 21.675781 30.671875 21.621094 30.714844 21.542969 C 30.953125 21.109375 31.074219 20.648438 31.078125 20.160156 C 31.078125 17.6875 27.644531 15.679688 23.421875 15.679688 C 19.203125 15.679688 15.769531 17.6875 15.769531 20.160156 C 15.777344 20.746094 15.949219 21.28125 16.28125 21.769531 C 16.175781 21.695312 16.0625 21.6875 15.945312 21.75 C 15.832031 21.808594 15.773438 21.902344 15.769531 22.027344 C 15.769531 24.5 19.203125 26.507812 23.421875 26.507812 C 23.515625 26.507812 23.59375 26.476562 23.660156 26.410156 C 23.726562 26.347656 23.757812 26.273438 23.757812 26.183594 C 23.757812 26.09375 23.726562 26.015625 23.660156 25.953125 C 23.59375 25.886719 23.515625 25.855469 23.421875 25.855469 Z M 23.421875 25.867188 " fill-opacity="1" fill-rule="nonzero"/></g><g clip-path="url(#ea9d59f455)"><path fill="#ffffff" d="M 22.835938 27.925781 C 19.25 27.765625 16.4375 26.089844 16.4375 24.113281 C 16.4375 24.023438 16.40625 23.949219 16.339844 23.882812 C 16.273438 23.820312 16.195312 23.789062 16.101562 23.789062 C 16.011719 23.789062 15.933594 23.820312 15.867188 23.882812 C 15.800781 23.949219 15.769531 24.023438 15.769531 24.113281 C 15.769531 26.476562 18.789062 28.394531 22.800781 28.582031 L 22.816406 28.582031 C 22.910156 28.585938 22.988281 28.554688 23.058594 28.492188 C 23.125 28.429688 23.160156 28.355469 23.160156 28.265625 C 23.164062 28.175781 23.132812 28.097656 23.066406 28.03125 C 23.003906 27.96875 22.925781 27.933594 22.835938 27.933594 Z M 22.835938 27.925781 " fill-opacity="1" fill-rule="nonzero"/></g><g clip-path="url(#ed70a09b75)"><path fill="#ffffff" d="M 22.792969 30.003906 C 19.230469 29.832031 16.4375 28.152344 16.4375 26.191406 C 16.4375 26.101562 16.40625 26.027344 16.339844 25.960938 C 16.273438 25.898438 16.195312 25.867188 16.101562 25.867188 C 16.011719 25.867188 15.933594 25.898438 15.867188 25.960938 C 15.800781 26.027344 15.769531 26.101562 15.769531 26.191406 C 15.769531 28.53125 18.773438 30.457031 22.757812 30.65625 L 22.773438 30.65625 C 22.863281 30.660156 22.945312 30.632812 23.011719 30.570312 C 23.078125 30.507812 23.113281 30.433594 23.117188 30.34375 C 23.117188 30.253906 23.089844 30.175781 23.023438 30.109375 C 22.960938 30.042969 22.882812 30.011719 22.792969 30.007812 Z M 22.792969 30.003906 " fill-opacity="1" fill-rule="nonzero"/></g><path fill="#ffffff" d="M 31.648438 32.347656 L 31.765625 32.347656 C 32.027344 32.359375 32.253906 32.28125 32.445312 32.109375 C 32.640625 31.941406 32.742188 31.730469 32.757812 31.476562 L 32.757812 30.652344 C 32.757812 30.453125 32.546875 30.214844 32.175781 29.996094 L 31.640625 29.816406 Z M 31.648438 32.347656 " fill-opacity="1" fill-rule="nonzero"/><g clip-path="url(#1c076ca281)"><path fill="#ffffff" d="M 31.230469 22.242188 C 30.75 22.242188 30.273438 22.289062 29.800781 22.378906 C 29.328125 22.472656 28.871094 22.605469 28.425781 22.785156 C 27.980469 22.964844 27.558594 23.183594 27.160156 23.441406 C 26.757812 23.703125 26.386719 23.996094 26.046875 24.328125 C 25.707031 24.660156 25.402344 25.019531 25.136719 25.40625 C 24.867188 25.792969 24.644531 26.203125 24.457031 26.636719 C 24.273438 27.070312 24.136719 27.511719 24.042969 27.972656 C 23.949219 28.429688 23.898438 28.894531 23.898438 29.359375 C 23.898438 29.828125 23.945312 30.289062 24.042969 30.75 C 24.136719 31.207031 24.273438 31.652344 24.457031 32.082031 C 24.640625 32.515625 24.867188 32.925781 25.136719 33.3125 C 25.402344 33.703125 25.707031 34.0625 26.046875 34.390625 C 26.386719 34.722656 26.757812 35.019531 27.15625 35.277344 C 27.558594 35.535156 27.980469 35.757812 28.425781 35.933594 C 28.871094 36.113281 29.328125 36.25 29.800781 36.339844 C 30.273438 36.429688 30.75 36.476562 31.230469 36.476562 C 31.710938 36.476562 32.191406 36.429688 32.660156 36.339844 C 33.132812 36.25 33.59375 36.113281 34.039062 35.933594 C 34.480469 35.753906 34.90625 35.535156 35.304688 35.277344 C 35.707031 35.015625 36.074219 34.722656 36.414062 34.390625 C 36.757812 34.058594 37.058594 33.699219 37.328125 33.3125 C 37.59375 32.921875 37.820312 32.511719 38.003906 32.082031 C 38.1875 31.648438 38.328125 31.203125 38.421875 30.746094 C 38.515625 30.289062 38.5625 29.824219 38.5625 29.359375 C 38.5625 28.890625 38.515625 28.429688 38.417969 27.96875 C 38.324219 27.511719 38.1875 27.066406 38 26.636719 C 37.816406 26.203125 37.589844 25.792969 37.324219 25.40625 C 37.054688 25.019531 36.753906 24.660156 36.414062 24.328125 C 36.070312 24 35.703125 23.703125 35.300781 23.445312 C 34.902344 23.183594 34.480469 22.964844 34.035156 22.785156 C 33.589844 22.609375 33.132812 22.472656 32.660156 22.382812 C 32.1875 22.289062 31.710938 22.246094 31.230469 22.242188 Z M 31.230469 35.078125 C 30.84375 35.078125 30.460938 35.042969 30.082031 34.96875 C 29.703125 34.898438 29.332031 34.789062 28.976562 34.644531 C 28.617188 34.5 28.277344 34.324219 27.957031 34.117188 C 27.632812 33.90625 27.335938 33.667969 27.0625 33.402344 C 26.789062 33.136719 26.546875 32.847656 26.328125 32.535156 C 26.113281 32.222656 25.933594 31.894531 25.785156 31.546875 C 25.636719 31.199219 25.523438 30.84375 25.449219 30.472656 C 25.375 30.105469 25.335938 29.734375 25.335938 29.359375 C 25.335938 28.980469 25.375 28.609375 25.449219 28.242188 C 25.523438 27.871094 25.636719 27.515625 25.785156 27.167969 C 25.933594 26.820312 26.113281 26.492188 26.328125 26.179688 C 26.546875 25.867188 26.789062 25.578125 27.0625 25.3125 C 27.335938 25.046875 27.632812 24.808594 27.957031 24.601562 C 28.277344 24.390625 28.617188 24.214844 28.976562 24.070312 C 29.332031 23.925781 29.703125 23.820312 30.082031 23.746094 C 30.460938 23.671875 30.84375 23.636719 31.230469 23.636719 C 31.617188 23.636719 32 23.671875 32.382812 23.746094 C 32.761719 23.820312 33.128906 23.925781 33.488281 24.070312 C 33.84375 24.214844 34.183594 24.390625 34.507812 24.601562 C 34.828125 24.808594 35.125 25.046875 35.398438 25.3125 C 35.671875 25.578125 35.917969 25.867188 36.132812 26.179688 C 36.347656 26.492188 36.527344 26.820312 36.675781 27.167969 C 36.824219 27.515625 36.9375 27.871094 37.011719 28.242188 C 37.089844 28.609375 37.125 28.980469 37.125 29.359375 C 37.125 29.734375 37.089844 30.105469 37.011719 30.472656 C 36.9375 30.84375 36.824219 31.199219 36.675781 31.546875 C 36.527344 31.894531 36.347656 32.222656 36.132812 32.535156 C 35.917969 32.847656 35.671875 33.136719 35.398438 33.402344 C 35.125 33.667969 34.828125 33.90625 34.507812 34.117188 C 34.183594 34.324219 33.84375 34.5 33.488281 34.644531 C 33.128906 34.789062 32.761719 34.898438 32.382812 34.96875 C 32 35.042969 31.617188 35.078125 31.230469 35.078125 Z M 31.230469 35.078125 " fill-opacity="1" fill-rule="nonzero"/></g><path fill="#ffffff" d="M 29.703125 27.199219 L 29.703125 28.011719 C 29.703125 28.269531 30.003906 28.492188 30.265625 28.644531 L 30.976562 28.890625 L 30.976562 26.328125 L 30.707031 26.328125 C 30.445312 26.316406 30.21875 26.394531 30.019531 26.5625 C 29.824219 26.730469 29.71875 26.945312 29.703125 27.199219 Z M 29.703125 27.199219 " fill-opacity="1" fill-rule="nonzero"/><path fill="#ffffff" d="M 31.230469 24.28125 C 30.886719 24.28125 30.546875 24.316406 30.210938 24.378906 C 29.875 24.445312 29.546875 24.542969 29.230469 24.667969 C 28.914062 24.796875 28.613281 24.953125 28.328125 25.136719 C 28.042969 25.324219 27.777344 25.53125 27.535156 25.769531 C 27.292969 26.003906 27.078125 26.261719 26.886719 26.539062 C 26.695312 26.8125 26.535156 27.105469 26.402344 27.414062 C 26.273438 27.722656 26.171875 28.039062 26.105469 28.367188 C 26.039062 28.691406 26.007812 29.023438 26.007812 29.355469 C 26.007812 29.6875 26.039062 30.019531 26.105469 30.34375 C 26.171875 30.671875 26.273438 30.988281 26.402344 31.296875 C 26.535156 31.605469 26.695312 31.894531 26.886719 32.171875 C 27.078125 32.449219 27.292969 32.707031 27.535156 32.941406 C 27.777344 33.175781 28.042969 33.386719 28.328125 33.574219 C 28.613281 33.757812 28.914062 33.914062 29.230469 34.039062 C 29.546875 34.167969 29.875 34.265625 30.210938 34.328125 C 30.546875 34.394531 30.886719 34.425781 31.230469 34.425781 C 31.574219 34.425781 31.914062 34.394531 32.25 34.328125 C 32.585938 34.265625 32.914062 34.167969 33.230469 34.039062 C 33.546875 33.914062 33.847656 33.757812 34.132812 33.574219 C 34.417969 33.386719 34.683594 33.175781 34.925781 32.941406 C 35.167969 32.707031 35.386719 32.449219 35.574219 32.171875 C 35.765625 31.894531 35.925781 31.605469 36.058594 31.296875 C 36.191406 30.988281 36.289062 30.671875 36.355469 30.34375 C 36.421875 30.019531 36.457031 29.6875 36.457031 29.355469 C 36.457031 29.023438 36.421875 28.691406 36.355469 28.367188 C 36.285156 28.039062 36.1875 27.722656 36.054688 27.414062 C 35.925781 27.109375 35.761719 26.816406 35.574219 26.539062 C 35.382812 26.261719 35.164062 26.007812 34.921875 25.769531 C 34.679688 25.535156 34.417969 25.324219 34.132812 25.140625 C 33.847656 24.957031 33.546875 24.800781 33.230469 24.671875 C 32.914062 24.542969 32.585938 24.445312 32.25 24.382812 C 31.914062 24.316406 31.574219 24.285156 31.230469 24.28125 Z M 33.429688 27.574219 C 33.429688 27.664062 33.394531 27.742188 33.332031 27.804688 C 33.265625 27.871094 33.1875 27.902344 33.09375 27.902344 C 33 27.902344 32.921875 27.871094 32.855469 27.804688 C 32.792969 27.742188 32.757812 27.664062 32.757812 27.574219 L 32.757812 27.199219 C 32.742188 26.945312 32.640625 26.734375 32.445312 26.566406 C 32.253906 26.398438 32.027344 26.316406 31.765625 26.328125 L 31.648438 26.328125 L 31.648438 29.125 L 32.429688 29.386719 C 32.449219 29.394531 32.46875 29.402344 32.488281 29.414062 C 33.105469 29.761719 33.429688 30.191406 33.429688 30.644531 L 33.429688 31.457031 C 33.421875 31.664062 33.375 31.863281 33.289062 32.054688 C 33.203125 32.242188 33.078125 32.410156 32.921875 32.550781 C 32.765625 32.695312 32.589844 32.800781 32.390625 32.875 C 32.1875 32.949219 31.980469 32.984375 31.765625 32.976562 L 31.648438 32.976562 L 31.648438 33.234375 C 31.648438 33.324219 31.613281 33.402344 31.546875 33.464844 C 31.484375 33.527344 31.402344 33.5625 31.3125 33.5625 C 31.21875 33.5625 31.140625 33.527344 31.074219 33.464844 C 31.007812 33.402344 30.976562 33.324219 30.976562 33.234375 L 30.976562 32.976562 L 30.707031 32.976562 C 30.496094 32.984375 30.285156 32.953125 30.085938 32.882812 C 29.882812 32.808594 29.703125 32.703125 29.546875 32.5625 C 29.386719 32.417969 29.265625 32.253906 29.175781 32.0625 C 29.085938 31.875 29.039062 31.675781 29.03125 31.46875 L 29.03125 31.085938 C 29.03125 30.996094 29.0625 30.921875 29.128906 30.859375 C 29.195312 30.792969 29.273438 30.761719 29.367188 30.761719 C 29.457031 30.761719 29.539062 30.792969 29.601562 30.859375 C 29.667969 30.921875 29.703125 30.996094 29.703125 31.085938 L 29.703125 31.46875 C 29.714844 31.722656 29.816406 31.9375 30.011719 32.105469 C 30.207031 32.277344 30.433594 32.359375 30.699219 32.347656 L 30.964844 32.347656 L 30.964844 29.582031 L 30 29.25 L 29.941406 29.222656 C 29.34375 28.875 29.03125 28.46875 29.03125 28.011719 L 29.03125 27.199219 C 29.035156 26.992188 29.082031 26.792969 29.171875 26.601562 C 29.257812 26.410156 29.382812 26.246094 29.539062 26.101562 C 29.695312 25.960938 29.871094 25.851562 30.074219 25.777344 C 30.273438 25.707031 30.480469 25.671875 30.695312 25.679688 L 30.964844 25.679688 L 30.964844 25.480469 C 30.964844 25.390625 30.996094 25.316406 31.0625 25.253906 C 31.125 25.1875 31.207031 25.15625 31.296875 25.15625 C 31.390625 25.15625 31.46875 25.1875 31.535156 25.253906 C 31.601562 25.316406 31.632812 25.390625 31.632812 25.480469 L 31.632812 25.679688 L 31.753906 25.679688 C 31.96875 25.671875 32.175781 25.707031 32.375 25.78125 C 32.574219 25.851562 32.753906 25.960938 32.910156 26.105469 C 33.066406 26.246094 33.1875 26.414062 33.273438 26.601562 C 33.363281 26.792969 33.410156 26.992188 33.414062 27.199219 Z M 33.429688 27.574219 " fill-opacity="1" fill-rule="nonzero"/><path fill="#ffffff" d="M 25.28125 18.894531 C 25.375 18.894531 25.457031 18.863281 25.523438 18.796875 C 25.589844 18.730469 25.621094 18.652344 25.621094 18.5625 L 25.621094 18.300781 C 25.621094 17.628906 24.890625 17.101562 23.960938 17.101562 L 23.839844 17.101562 L 23.839844 17.046875 C 23.839844 16.957031 23.808594 16.878906 23.742188 16.816406 C 23.679688 16.753906 23.597656 16.722656 23.507812 16.722656 C 23.414062 16.722656 23.335938 16.753906 23.269531 16.816406 C 23.203125 16.878906 23.171875 16.957031 23.171875 17.046875 L 23.171875 17.101562 L 22.890625 17.101562 C 21.957031 17.101562 21.230469 17.621094 21.230469 18.300781 L 21.230469 18.894531 C 21.230469 19.472656 21.945312 19.773438 22.183594 19.871094 C 22.195312 19.878906 22.210938 19.886719 22.226562 19.886719 L 23.171875 20.125 L 23.171875 21.964844 L 22.890625 21.964844 C 22.304688 21.964844 21.898438 21.675781 21.898438 21.417969 L 21.898438 21.128906 C 21.898438 21.039062 21.867188 20.964844 21.800781 20.902344 C 21.734375 20.835938 21.65625 20.804688 21.5625 20.804688 C 21.472656 20.804688 21.390625 20.835938 21.328125 20.902344 C 21.261719 20.964844 21.230469 21.039062 21.230469 21.128906 L 21.230469 21.421875 C 21.230469 22.09375 21.957031 22.617188 22.890625 22.617188 L 23.171875 22.617188 L 23.171875 22.710938 C 23.171875 22.800781 23.203125 22.878906 23.269531 22.941406 C 23.335938 23.003906 23.414062 23.039062 23.507812 23.039062 C 23.597656 23.039062 23.679688 23.003906 23.742188 22.941406 C 23.808594 22.878906 23.839844 22.800781 23.839844 22.710938 L 23.839844 22.617188 L 23.960938 22.617188 C 24.890625 22.617188 25.621094 22.097656 25.621094 21.421875 L 25.621094 20.8125 C 25.621094 20.425781 25.289062 20.089844 24.640625 19.820312 C 24.628906 19.8125 24.613281 19.808594 24.597656 19.808594 L 23.839844 19.613281 L 23.839844 17.742188 L 23.960938 17.742188 C 24.542969 17.742188 24.949219 18.03125 24.949219 18.292969 L 24.949219 18.5625 C 24.949219 18.652344 24.980469 18.730469 25.042969 18.792969 C 25.109375 18.859375 25.1875 18.890625 25.28125 18.894531 Z M 24.394531 20.429688 C 24.847656 20.621094 24.945312 20.785156 24.945312 20.8125 L 24.945312 21.421875 C 24.945312 21.683594 24.539062 21.96875 23.953125 21.96875 L 23.835938 21.96875 L 23.835938 20.289062 Z M 23.171875 19.445312 L 22.425781 19.257812 C 21.992188 19.074219 21.886719 18.925781 21.886719 18.886719 L 21.886719 18.300781 C 21.886719 18.039062 22.296875 17.75 22.878906 17.75 L 23.160156 17.75 Z M 23.171875 19.445312 " fill-opacity="1" fill-rule="nonzero"/></svg>