<svg xmlns="http://www.w3.org/2000/svg" xmlns:xlink="http://www.w3.org/1999/xlink" width="72" zoomAndPan="magnify" viewBox="0 0 54 54" height="72" preserveAspectRatio="xMidYMid meet" version="1.0"><defs><clipPath id="cf198b9986"><path d="M 0.492188 0 L 53.507812 0 L 53.507812 53.019531 L 0.492188 53.019531 Z M 0.492188 0 " clip-rule="nonzero"/></clipPath><clipPath id="c65947aa0f"><path d="M 53.507812 26.507812 C 53.507812 41.148438 41.640625 53.019531 27 53.019531 C 12.359375 53.019531 0.492188 41.148438 0.492188 26.507812 C 0.492188 11.867188 12.359375 0 27 0 C 41.640625 0 53.507812 11.867188 53.507812 26.507812 Z M 53.507812 26.507812 " clip-rule="nonzero"/></clipPath><clipPath id="5ff2c093e5"><path d="M 35 29 L 46.21875 29 L 46.21875 38 L 35 38 Z M 35 29 " clip-rule="nonzero"/></clipPath><clipPath id="d55073601b"><path d="M 16 8.222656 L 35 8.222656 L 35 23 L 16 23 Z M 16 8.222656 " clip-rule="nonzero"/></clipPath></defs><g clip-path="url(#cf198b9986)"><g clip-path="url(#c65947aa0f)"><path fill="#8c52ff" d="M 0.492188 0 L 53.507812 0 L 53.507812 53.019531 L 0.492188 53.019531 Z M 0.492188 0 " fill-opacity="1" fill-rule="nonzero"/></g></g><path fill="#ffffff" d="M 18.195312 22.828125 L 12.242188 22.828125 C 11.945312 22.828125 11.648438 22.796875 11.355469 22.734375 C 11.0625 22.667969 10.777344 22.574219 10.503906 22.449219 C 10.234375 22.324219 9.976562 22.171875 9.734375 21.992188 C 9.496094 21.8125 9.277344 21.609375 9.078125 21.382812 C 8.882812 21.15625 8.710938 20.910156 8.566406 20.644531 C 8.421875 20.382812 8.308594 20.105469 8.222656 19.816406 C 8.136719 19.53125 8.082031 19.234375 8.058594 18.9375 C 8.039062 18.636719 8.046875 18.335938 8.085938 18.039062 C 8.15625 17.535156 8.3125 17.0625 8.554688 16.617188 C 8.796875 16.171875 9.109375 15.78125 9.492188 15.449219 C 9.871094 15.113281 10.300781 14.859375 10.773438 14.683594 C 11.246094 14.503906 11.738281 14.414062 12.242188 14.414062 L 17.09375 14.414062 C 17.230469 14.414062 17.335938 14.46875 17.417969 14.582031 C 17.496094 14.691406 17.515625 14.808594 17.472656 14.9375 C 17.199219 15.773438 17.066406 16.625 17.066406 17.503906 C 17.066406 19.222656 17.550781 20.792969 18.523438 22.207031 C 18.613281 22.339844 18.621094 22.476562 18.546875 22.617188 C 18.472656 22.761719 18.355469 22.832031 18.195312 22.832031 Z M 12.242188 15.210938 C 11.832031 15.210938 11.4375 15.285156 11.050781 15.429688 C 10.667969 15.574219 10.320312 15.777344 10.011719 16.046875 C 9.703125 16.320312 9.449219 16.632812 9.253906 16.996094 C 9.058594 17.355469 8.933594 17.742188 8.875 18.148438 C 8.851562 18.304688 8.84375 18.460938 8.84375 18.621094 C 8.84375 19.074219 8.929688 19.507812 9.101562 19.925781 C 9.277344 20.34375 9.519531 20.710938 9.839844 21.03125 C 10.160156 21.351562 10.527344 21.597656 10.941406 21.773438 C 11.359375 21.945312 11.792969 22.03125 12.242188 22.03125 L 17.476562 22.03125 C 16.882812 21 16.511719 19.890625 16.351562 18.710938 C 16.195312 17.53125 16.265625 16.363281 16.5625 15.210938 Z M 12.242188 15.210938 " fill-opacity="1" fill-rule="nonzero"/><path fill="#ffffff" d="M 42.140625 22.828125 L 32.5 22.828125 C 32.339844 22.828125 32.222656 22.757812 32.148438 22.617188 C 32.074219 22.472656 32.082031 22.335938 32.171875 22.207031 C 33.148438 20.789062 33.632812 19.222656 33.628906 17.5 C 33.632812 16.625 33.496094 15.769531 33.226562 14.9375 C 33.183594 14.808594 33.203125 14.6875 33.28125 14.578125 C 33.359375 14.46875 33.46875 14.414062 33.601562 14.414062 L 39.128906 14.414062 C 39.582031 14.414062 40.015625 14.5 40.433594 14.675781 C 40.851562 14.847656 41.21875 15.09375 41.539062 15.414062 C 41.859375 15.738281 42.105469 16.105469 42.277344 16.523438 C 42.453125 16.941406 42.539062 17.378906 42.539062 17.832031 L 42.539062 22.429688 C 42.539062 22.542969 42.5 22.636719 42.421875 22.714844 C 42.34375 22.792969 42.25 22.828125 42.140625 22.828125 Z M 33.222656 22.03125 L 41.742188 22.03125 L 41.742188 17.832031 C 41.742188 17.484375 41.675781 17.152344 41.542969 16.828125 C 41.410156 16.507812 41.222656 16.226562 40.976562 15.980469 C 40.730469 15.734375 40.449219 15.542969 40.128906 15.410156 C 39.808594 15.277344 39.476562 15.210938 39.128906 15.210938 L 34.132812 15.210938 C 34.433594 16.363281 34.503906 17.53125 34.34375 18.710938 C 34.183594 19.890625 33.8125 20.996094 33.21875 22.03125 Z M 33.222656 22.03125 " fill-opacity="1" fill-rule="nonzero"/><path fill="#ffffff" d="M 41.621094 44.90625 L 12.242188 44.90625 C 11.96875 44.90625 11.695312 44.878906 11.425781 44.824219 C 11.15625 44.769531 10.894531 44.691406 10.640625 44.585938 C 10.386719 44.480469 10.144531 44.351562 9.914062 44.199219 C 9.683594 44.042969 9.472656 43.871094 9.277344 43.675781 C 9.085938 43.480469 8.910156 43.265625 8.757812 43.039062 C 8.605469 42.808594 8.472656 42.566406 8.367188 42.3125 C 8.261719 42.054688 8.183594 41.792969 8.128906 41.523438 C 8.074219 41.25 8.046875 40.976562 8.046875 40.703125 L 8.046875 18.621094 C 8.046875 18.511719 8.085938 18.417969 8.164062 18.339844 C 8.242188 18.261719 8.335938 18.222656 8.445312 18.222656 C 8.554688 18.222656 8.648438 18.261719 8.726562 18.339844 C 8.804688 18.417969 8.84375 18.511719 8.84375 18.621094 C 8.84375 19.074219 8.929688 19.507812 9.101562 19.925781 C 9.277344 20.34375 9.519531 20.710938 9.839844 21.03125 C 10.160156 21.351562 10.527344 21.597656 10.941406 21.773438 C 11.359375 21.945312 11.792969 22.03125 12.242188 22.03125 L 41.621094 22.03125 C 42.074219 22.03125 42.507812 22.121094 42.925781 22.292969 C 43.339844 22.464844 43.710938 22.710938 44.027344 23.03125 C 44.347656 23.351562 44.59375 23.722656 44.769531 24.140625 C 44.941406 24.558594 45.027344 24.996094 45.03125 25.449219 L 45.03125 29.496094 C 45.03125 29.621094 44.980469 29.722656 44.886719 29.800781 C 44.789062 29.882812 44.683594 29.910156 44.558594 29.886719 C 44.519531 29.882812 44.476562 29.878906 44.433594 29.878906 L 39.605469 29.878906 C 39.148438 29.878906 38.707031 29.96875 38.28125 30.144531 C 37.859375 30.320312 37.484375 30.570312 37.160156 30.894531 C 36.832031 31.222656 36.582031 31.597656 36.40625 32.019531 C 36.230469 32.445312 36.144531 32.890625 36.140625 33.347656 C 36.144531 33.808594 36.230469 34.253906 36.40625 34.679688 C 36.582031 35.105469 36.832031 35.480469 37.160156 35.804688 C 37.484375 36.132812 37.855469 36.382812 38.28125 36.558594 C 38.703125 36.738281 39.148438 36.824219 39.605469 36.828125 L 44.433594 36.828125 C 44.476562 36.828125 44.519531 36.824219 44.558594 36.816406 C 44.683594 36.796875 44.789062 36.824219 44.886719 36.902344 C 44.980469 36.984375 45.03125 37.085938 45.03125 37.210938 L 45.03125 41.492188 C 45.027344 41.945312 44.941406 42.378906 44.769531 42.796875 C 44.59375 43.214844 44.347656 43.585938 44.027344 43.90625 C 43.710938 44.226562 43.339844 44.472656 42.925781 44.644531 C 42.507812 44.820312 42.074219 44.90625 41.621094 44.90625 Z M 8.84375 21.085938 L 8.84375 40.703125 C 8.84375 41.152344 8.929688 41.589844 9.101562 42.007812 C 9.277344 42.421875 9.523438 42.792969 9.839844 43.109375 C 10.160156 43.429688 10.527344 43.675781 10.945312 43.847656 C 11.359375 44.023438 11.792969 44.109375 12.242188 44.109375 L 41.621094 44.109375 C 41.96875 44.109375 42.300781 44.042969 42.621094 43.910156 C 42.941406 43.777344 43.222656 43.585938 43.46875 43.34375 C 43.710938 43.097656 43.902344 42.8125 44.035156 42.492188 C 44.167969 42.171875 44.234375 41.839844 44.234375 41.492188 L 44.234375 37.625 L 39.605469 37.625 C 39.328125 37.625 39.050781 37.597656 38.773438 37.542969 C 38.5 37.488281 38.234375 37.40625 37.976562 37.296875 C 37.71875 37.191406 37.472656 37.058594 37.242188 36.902344 C 37.007812 36.746094 36.792969 36.566406 36.597656 36.371094 C 36.398438 36.171875 36.222656 35.957031 36.066406 35.722656 C 35.910156 35.488281 35.78125 35.242188 35.671875 34.984375 C 35.566406 34.726562 35.484375 34.457031 35.429688 34.183594 C 35.375 33.90625 35.347656 33.628906 35.347656 33.351562 C 35.347656 33.070312 35.375 32.792969 35.429688 32.515625 C 35.484375 32.242188 35.566406 31.976562 35.671875 31.71875 C 35.78125 31.457031 35.910156 31.210938 36.066406 30.980469 C 36.222656 30.746094 36.398438 30.53125 36.597656 30.332031 C 36.792969 30.136719 37.007812 29.957031 37.242188 29.800781 C 37.472656 29.648438 37.71875 29.515625 37.976562 29.40625 C 38.234375 29.300781 38.5 29.21875 38.777344 29.164062 C 39.050781 29.109375 39.328125 29.082031 39.605469 29.082031 L 44.234375 29.082031 L 44.234375 25.449219 C 44.234375 25.101562 44.167969 24.765625 44.035156 24.445312 C 43.902344 24.125 43.710938 23.84375 43.46875 23.597656 C 43.222656 23.351562 42.941406 23.164062 42.621094 23.027344 C 42.300781 22.894531 41.96875 22.828125 41.621094 22.828125 L 12.242188 22.828125 C 11.570312 22.828125 10.933594 22.675781 10.332031 22.367188 C 9.734375 22.058594 9.238281 21.632812 8.84375 21.085938 Z M 8.84375 21.085938 " fill-opacity="1" fill-rule="nonzero"/><g clip-path="url(#5ff2c093e5)"><path fill="#ffffff" d="M 44.429688 37.625 L 39.605469 37.625 C 39.324219 37.625 39.050781 37.597656 38.773438 37.542969 C 38.5 37.488281 38.234375 37.40625 37.976562 37.296875 C 37.71875 37.191406 37.472656 37.058594 37.238281 36.902344 C 37.007812 36.746094 36.792969 36.570312 36.59375 36.371094 C 36.398438 36.171875 36.21875 35.957031 36.066406 35.722656 C 35.910156 35.488281 35.777344 35.242188 35.671875 34.984375 C 35.5625 34.722656 35.484375 34.457031 35.429688 34.183594 C 35.375 33.90625 35.347656 33.628906 35.347656 33.347656 C 35.347656 33.066406 35.375 32.789062 35.429688 32.515625 C 35.484375 32.242188 35.566406 31.972656 35.671875 31.714844 C 35.78125 31.457031 35.910156 31.210938 36.066406 30.976562 C 36.222656 30.746094 36.398438 30.53125 36.597656 30.332031 C 36.792969 30.132812 37.007812 29.957031 37.242188 29.800781 C 37.472656 29.644531 37.71875 29.515625 37.976562 29.40625 C 38.234375 29.300781 38.5 29.21875 38.777344 29.164062 C 39.050781 29.109375 39.328125 29.082031 39.605469 29.082031 L 44.429688 29.082031 C 44.523438 29.082031 44.613281 29.089844 44.703125 29.105469 C 44.914062 29.136719 45.113281 29.203125 45.300781 29.308594 C 45.484375 29.410156 45.648438 29.542969 45.789062 29.707031 C 45.925781 29.867188 46.03125 30.046875 46.105469 30.25 C 46.179688 30.449219 46.21875 30.65625 46.21875 30.867188 L 46.21875 35.835938 C 46.21875 36.050781 46.179688 36.257812 46.105469 36.460938 C 46.027344 36.660156 45.921875 36.84375 45.78125 37.003906 C 45.640625 37.167969 45.476562 37.300781 45.289062 37.402344 C 45.101562 37.507812 44.898438 37.574219 44.6875 37.605469 C 44.601562 37.621094 44.515625 37.625 44.429688 37.625 Z M 39.605469 29.878906 C 39.148438 29.878906 38.707031 29.964844 38.28125 30.140625 C 37.859375 30.316406 37.484375 30.570312 37.160156 30.894531 C 36.832031 31.21875 36.582031 31.59375 36.40625 32.019531 C 36.230469 32.445312 36.140625 32.886719 36.140625 33.347656 C 36.140625 33.808594 36.230469 34.25 36.40625 34.675781 C 36.582031 35.101562 36.832031 35.480469 37.15625 35.804688 C 37.480469 36.132812 37.855469 36.382812 38.28125 36.558594 C 38.703125 36.738281 39.144531 36.824219 39.605469 36.828125 L 44.429688 36.828125 C 44.472656 36.828125 44.515625 36.824219 44.558594 36.816406 C 44.804688 36.785156 45.007812 36.675781 45.171875 36.488281 C 45.339844 36.304688 45.421875 36.085938 45.425781 35.835938 L 45.425781 30.867188 C 45.421875 30.621094 45.34375 30.40625 45.183594 30.222656 C 45.019531 30.035156 44.820312 29.925781 44.578125 29.890625 C 44.527344 29.882812 44.480469 29.878906 44.429688 29.878906 Z M 39.605469 29.878906 " fill-opacity="1" fill-rule="nonzero"/></g><path fill="#ffffff" d="M 38.96875 34.980469 C 38.753906 34.980469 38.546875 34.9375 38.347656 34.855469 C 38.148438 34.773438 37.972656 34.65625 37.820312 34.503906 C 37.667969 34.351562 37.550781 34.175781 37.46875 33.976562 C 37.386719 33.777344 37.34375 33.570312 37.34375 33.355469 C 37.34375 33.136719 37.386719 32.929688 37.46875 32.730469 C 37.550781 32.53125 37.667969 32.355469 37.820312 32.203125 C 37.972656 32.050781 38.148438 31.933594 38.347656 31.847656 C 38.546875 31.765625 38.753906 31.726562 38.96875 31.726562 C 39.183594 31.726562 39.390625 31.765625 39.589844 31.851562 C 39.789062 31.933594 39.964844 32.050781 40.117188 32.203125 C 40.265625 32.355469 40.382812 32.53125 40.464844 32.734375 C 40.546875 32.933594 40.589844 33.140625 40.589844 33.355469 C 40.589844 33.570312 40.546875 33.777344 40.464844 33.976562 C 40.382812 34.175781 40.265625 34.351562 40.113281 34.503906 C 39.960938 34.65625 39.789062 34.773438 39.589844 34.855469 C 39.390625 34.9375 39.183594 34.980469 38.96875 34.980469 Z M 38.96875 32.523438 C 38.742188 32.523438 38.546875 32.601562 38.382812 32.765625 C 38.222656 32.925781 38.140625 33.121094 38.140625 33.351562 C 38.140625 33.578125 38.21875 33.773438 38.378906 33.9375 C 38.542969 34.101562 38.734375 34.179688 38.964844 34.183594 C 39.191406 34.183594 39.386719 34.101562 39.550781 33.941406 C 39.710938 33.78125 39.792969 33.585938 39.792969 33.355469 C 39.792969 33.128906 39.714844 32.929688 39.554688 32.769531 C 39.394531 32.605469 39.199219 32.523438 38.96875 32.523438 Z M 38.96875 32.523438 " fill-opacity="1" fill-rule="nonzero"/><path fill="#ffffff" d="M 17.125 30.203125 C 16.949219 30.203125 16.824219 30.121094 16.757812 29.957031 C 16.691406 29.792969 16.71875 29.648438 16.84375 29.523438 L 19.164062 27.199219 C 19.304688 27.058594 19.375 26.886719 19.375 26.683594 L 19.375 22.429688 C 19.375 22.320312 19.414062 22.226562 19.492188 22.148438 C 19.570312 22.070312 19.664062 22.03125 19.773438 22.03125 C 19.882812 22.03125 19.976562 22.070312 20.054688 22.148438 C 20.132812 22.226562 20.167969 22.320312 20.167969 22.429688 L 20.167969 26.683594 C 20.171875 27.105469 20.023438 27.464844 19.722656 27.761719 L 17.40625 30.085938 C 17.328125 30.164062 17.234375 30.203125 17.125 30.203125 Z M 17.125 30.203125 " fill-opacity="1" fill-rule="nonzero"/><path fill="#ffffff" d="M 16.042969 32.496094 C 15.800781 32.496094 15.570312 32.449219 15.351562 32.359375 C 15.128906 32.265625 14.933594 32.136719 14.765625 31.964844 C 14.597656 31.796875 14.464844 31.601562 14.375 31.378906 C 14.28125 31.15625 14.238281 30.925781 14.238281 30.6875 C 14.238281 30.445312 14.28125 30.214844 14.375 29.996094 C 14.464844 29.773438 14.597656 29.578125 14.765625 29.40625 C 14.933594 29.238281 15.128906 29.105469 15.351562 29.015625 C 15.570312 28.921875 15.800781 28.878906 16.039062 28.878906 C 16.28125 28.878906 16.511719 28.925781 16.730469 29.015625 C 16.953125 29.109375 17.148438 29.238281 17.316406 29.410156 C 17.484375 29.578125 17.617188 29.773438 17.707031 29.996094 C 17.796875 30.21875 17.84375 30.449219 17.84375 30.6875 C 17.84375 30.929688 17.796875 31.160156 17.707031 31.378906 C 17.613281 31.601562 17.484375 31.796875 17.316406 31.964844 C 17.144531 32.136719 16.953125 32.265625 16.730469 32.355469 C 16.511719 32.449219 16.28125 32.496094 16.042969 32.496094 Z M 16.042969 29.675781 C 15.90625 29.675781 15.78125 29.699219 15.65625 29.753906 C 15.53125 29.804688 15.421875 29.875 15.328125 29.96875 C 15.234375 30.066406 15.160156 30.175781 15.109375 30.296875 C 15.058594 30.421875 15.03125 30.550781 15.03125 30.683594 C 15.03125 30.820312 15.058594 30.949219 15.109375 31.070312 C 15.160156 31.195312 15.230469 31.304688 15.324219 31.398438 C 15.421875 31.496094 15.53125 31.570312 15.652344 31.621094 C 15.777344 31.671875 15.90625 31.699219 16.039062 31.699219 C 16.171875 31.699219 16.300781 31.671875 16.425781 31.621094 C 16.546875 31.570312 16.65625 31.496094 16.75 31.402344 C 16.847656 31.308594 16.917969 31.199219 16.96875 31.074219 C 17.023438 30.953125 17.046875 30.824219 17.046875 30.6875 C 17.046875 30.554688 17.023438 30.425781 16.972656 30.300781 C 16.921875 30.179688 16.847656 30.070312 16.753906 29.972656 C 16.660156 29.878906 16.550781 29.804688 16.425781 29.753906 C 16.304688 29.703125 16.175781 29.675781 16.042969 29.675781 Z M 16.042969 29.675781 " fill-opacity="1" fill-rule="nonzero"/><path fill="#ffffff" d="M 30.785156 30.203125 C 30.675781 30.207031 30.582031 30.167969 30.503906 30.089844 L 28.183594 27.761719 C 27.886719 27.464844 27.738281 27.105469 27.738281 26.683594 L 27.738281 22.429688 C 27.738281 22.320312 27.777344 22.226562 27.855469 22.148438 C 27.933594 22.070312 28.027344 22.03125 28.136719 22.03125 C 28.246094 22.03125 28.339844 22.070312 28.417969 22.148438 C 28.496094 22.226562 28.535156 22.320312 28.535156 22.429688 L 28.535156 26.683594 C 28.535156 26.886719 28.605469 27.058594 28.746094 27.199219 L 31.066406 29.523438 C 31.191406 29.648438 31.21875 29.796875 31.152344 29.960938 C 31.085938 30.125 30.960938 30.207031 30.785156 30.207031 Z M 30.785156 30.203125 " fill-opacity="1" fill-rule="nonzero"/><path fill="#ffffff" d="M 31.867188 32.496094 C 31.628906 32.496094 31.398438 32.449219 31.175781 32.359375 C 30.957031 32.265625 30.761719 32.136719 30.589844 31.964844 C 30.421875 31.796875 30.292969 31.601562 30.199219 31.378906 C 30.109375 31.15625 30.0625 30.925781 30.0625 30.6875 C 30.0625 30.445312 30.109375 30.214844 30.199219 29.996094 C 30.292969 29.773438 30.421875 29.578125 30.589844 29.40625 C 30.761719 29.238281 30.957031 29.105469 31.175781 29.015625 C 31.398438 28.921875 31.628906 28.878906 31.867188 28.878906 C 32.105469 28.878906 32.335938 28.925781 32.558594 29.015625 C 32.777344 29.109375 32.972656 29.238281 33.140625 29.410156 C 33.3125 29.578125 33.441406 29.773438 33.53125 29.996094 C 33.625 30.21875 33.667969 30.449219 33.667969 30.6875 C 33.667969 30.929688 33.625 31.160156 33.53125 31.378906 C 33.441406 31.601562 33.308594 31.796875 33.140625 31.964844 C 32.972656 32.136719 32.777344 32.265625 32.558594 32.355469 C 32.335938 32.449219 32.105469 32.496094 31.867188 32.496094 Z M 31.867188 29.675781 C 31.734375 29.675781 31.605469 29.699219 31.480469 29.753906 C 31.359375 29.804688 31.25 29.875 31.15625 29.96875 C 31.058594 30.066406 30.988281 30.175781 30.9375 30.296875 C 30.882812 30.421875 30.859375 30.550781 30.859375 30.683594 C 30.859375 30.820312 30.882812 30.949219 30.933594 31.070312 C 30.984375 31.195312 31.058594 31.304688 31.152344 31.398438 C 31.246094 31.496094 31.355469 31.570312 31.480469 31.621094 C 31.601562 31.671875 31.730469 31.699219 31.863281 31.699219 C 31.996094 31.699219 32.125 31.671875 32.25 31.621094 C 32.375 31.570312 32.484375 31.496094 32.578125 31.402344 C 32.671875 31.308594 32.746094 31.199219 32.796875 31.074219 C 32.847656 30.953125 32.875 30.824219 32.875 30.6875 C 32.875 30.554688 32.847656 30.425781 32.796875 30.300781 C 32.746094 30.179688 32.675781 30.066406 32.578125 29.972656 C 32.484375 29.878906 32.375 29.804688 32.253906 29.753906 C 32.128906 29.703125 32 29.675781 31.867188 29.675781 Z M 31.867188 29.675781 " fill-opacity="1" fill-rule="nonzero"/><path fill="#ffffff" d="M 23.945312 29.859375 C 23.835938 29.859375 23.742188 29.820312 23.664062 29.742188 C 23.585938 29.664062 23.546875 29.570312 23.546875 29.460938 L 23.546875 22.429688 C 23.546875 22.320312 23.585938 22.226562 23.664062 22.148438 C 23.742188 22.070312 23.835938 22.03125 23.945312 22.03125 C 24.054688 22.03125 24.148438 22.070312 24.226562 22.148438 C 24.304688 22.226562 24.34375 22.320312 24.34375 22.429688 L 24.34375 29.460938 C 24.34375 29.570312 24.304688 29.664062 24.226562 29.742188 C 24.148438 29.820312 24.054688 29.859375 23.945312 29.859375 Z M 23.945312 29.859375 " fill-opacity="1" fill-rule="nonzero"/><path fill="#ffffff" d="M 23.945312 32.679688 C 23.707031 32.679688 23.476562 32.632812 23.253906 32.542969 C 23.03125 32.449219 22.835938 32.320312 22.667969 32.152344 C 22.5 31.980469 22.367188 31.785156 22.277344 31.5625 C 22.1875 31.34375 22.140625 31.109375 22.140625 30.871094 C 22.140625 30.632812 22.1875 30.402344 22.277344 30.179688 C 22.367188 29.957031 22.5 29.761719 22.667969 29.59375 C 22.835938 29.421875 23.03125 29.292969 23.253906 29.199219 C 23.476562 29.109375 23.703125 29.0625 23.945312 29.0625 C 24.183594 29.0625 24.414062 29.109375 24.632812 29.199219 C 24.855469 29.292969 25.050781 29.421875 25.21875 29.59375 C 25.386719 29.761719 25.519531 29.960938 25.609375 30.179688 C 25.699219 30.402344 25.746094 30.632812 25.746094 30.875 C 25.746094 31.113281 25.699219 31.34375 25.609375 31.566406 C 25.515625 31.785156 25.386719 31.980469 25.21875 32.152344 C 25.050781 32.320312 24.855469 32.449219 24.632812 32.542969 C 24.414062 32.632812 24.183594 32.679688 23.945312 32.679688 Z M 23.945312 29.859375 C 23.8125 29.859375 23.683594 29.886719 23.558594 29.9375 C 23.433594 29.988281 23.324219 30.0625 23.230469 30.15625 C 23.136719 30.25 23.0625 30.359375 23.011719 30.484375 C 22.960938 30.605469 22.933594 30.734375 22.933594 30.871094 C 22.933594 31.003906 22.960938 31.132812 23.011719 31.257812 C 23.0625 31.382812 23.136719 31.492188 23.230469 31.585938 C 23.324219 31.679688 23.433594 31.753906 23.554688 31.804688 C 23.679688 31.855469 23.808594 31.882812 23.941406 31.882812 C 24.074219 31.882812 24.203125 31.855469 24.328125 31.804688 C 24.449219 31.753906 24.558594 31.683594 24.65625 31.585938 C 24.75 31.492188 24.824219 31.382812 24.875 31.261719 C 24.925781 31.136719 24.949219 31.007812 24.953125 30.875 C 24.953125 30.738281 24.925781 30.609375 24.875 30.484375 C 24.824219 30.363281 24.75 30.253906 24.65625 30.15625 C 24.5625 30.0625 24.453125 29.988281 24.328125 29.9375 C 24.207031 29.886719 24.078125 29.859375 23.945312 29.859375 Z M 23.945312 29.859375 " fill-opacity="1" fill-rule="nonzero"/><g clip-path="url(#d55073601b)"><path fill="#ffffff" d="M 32.5 22.828125 L 18.195312 22.828125 C 18.054688 22.828125 17.945312 22.773438 17.867188 22.65625 C 16.800781 21.105469 16.269531 19.386719 16.273438 17.5 C 16.269531 16.539062 16.417969 15.601562 16.714844 14.6875 C 17.011719 13.773438 17.441406 12.929688 18.003906 12.152344 C 18.570312 11.375 19.238281 10.703125 20.011719 10.136719 C 20.789062 9.574219 21.632812 9.140625 22.542969 8.84375 C 23.453125 8.546875 24.390625 8.398438 25.347656 8.398438 C 26.304688 8.398438 27.242188 8.546875 28.152344 8.84375 C 29.0625 9.140625 29.90625 9.574219 30.683594 10.136719 C 31.457031 10.703125 32.125 11.375 32.691406 12.152344 C 33.253906 12.929688 33.683594 13.773438 33.980469 14.6875 C 34.277344 15.601562 34.425781 16.539062 34.421875 17.5 C 34.425781 19.386719 33.894531 21.105469 32.828125 22.65625 C 32.75 22.773438 32.640625 22.828125 32.5 22.828125 Z M 18.40625 22.03125 L 32.289062 22.03125 C 33.1875 20.65625 33.632812 19.144531 33.628906 17.5 C 33.632812 16.625 33.496094 15.769531 33.226562 14.9375 C 32.953125 14.101562 32.5625 13.332031 32.046875 12.621094 C 31.535156 11.914062 30.925781 11.300781 30.214844 10.785156 C 29.507812 10.269531 28.738281 9.875 27.90625 9.605469 C 27.078125 9.332031 26.222656 9.199219 25.347656 9.199219 C 24.476562 9.199219 23.621094 9.332031 22.789062 9.605469 C 21.957031 9.875 21.1875 10.269531 20.480469 10.785156 C 19.773438 11.300781 19.164062 11.914062 18.648438 12.621094 C 18.136719 13.332031 17.742188 14.101562 17.472656 14.9375 C 17.199219 15.769531 17.066406 16.625 17.066406 17.503906 C 17.066406 19.148438 17.511719 20.65625 18.40625 22.03125 Z M 18.40625 22.03125 " fill-opacity="1" fill-rule="nonzero"/></g><path fill="#ffffff" d="M 29.226562 22.828125 L 21.464844 22.828125 C 21.371094 22.828125 21.289062 22.800781 21.21875 22.742188 C 20.625 22.277344 20.128906 21.722656 19.722656 21.085938 C 19.320312 20.449219 19.03125 19.761719 18.859375 19.023438 C 18.6875 18.289062 18.640625 17.542969 18.722656 16.792969 C 18.800781 16.039062 19.003906 15.324219 19.324219 14.640625 C 19.59375 14.066406 19.9375 13.546875 20.355469 13.070312 C 20.773438 12.597656 21.25 12.191406 21.785156 11.851562 C 22.316406 11.511719 22.886719 11.253906 23.492188 11.078125 C 24.097656 10.902344 24.71875 10.8125 25.347656 10.8125 C 25.980469 10.8125 26.597656 10.902344 27.203125 11.078125 C 27.808594 11.253906 28.378906 11.511719 28.914062 11.851562 C 29.445312 12.191406 29.921875 12.597656 30.339844 13.070312 C 30.757812 13.546875 31.101562 14.066406 31.371094 14.640625 C 31.695312 15.324219 31.894531 16.042969 31.976562 16.792969 C 32.054688 17.546875 32.011719 18.289062 31.835938 19.027344 C 31.664062 19.761719 31.375 20.449219 30.972656 21.085938 C 30.566406 21.726562 30.066406 22.277344 29.472656 22.746094 C 29.402344 22.800781 29.320312 22.828125 29.226562 22.828125 Z M 21.605469 22.03125 L 29.089844 22.03125 C 29.589844 21.617188 30.011719 21.128906 30.355469 20.570312 C 30.695312 20.015625 30.9375 19.414062 31.078125 18.777344 C 31.21875 18.140625 31.253906 17.496094 31.183594 16.84375 C 31.109375 16.195312 30.933594 15.574219 30.652344 14.984375 C 30.414062 14.480469 30.113281 14.019531 29.746094 13.601562 C 29.375 13.183594 28.957031 12.824219 28.488281 12.527344 C 28.019531 12.226562 27.515625 12 26.984375 11.84375 C 26.449219 11.691406 25.90625 11.613281 25.347656 11.613281 C 24.792969 11.613281 24.246094 11.691406 23.714844 11.84375 C 23.179688 12 22.679688 12.226562 22.207031 12.527344 C 21.738281 12.824219 21.320312 13.183594 20.953125 13.601562 C 20.585938 14.019531 20.28125 14.480469 20.042969 14.984375 C 19.765625 15.574219 19.589844 16.195312 19.515625 16.84375 C 19.441406 17.492188 19.476562 18.136719 19.617188 18.777344 C 19.761719 19.414062 20 20.011719 20.34375 20.570312 C 20.683594 21.128906 21.105469 21.617188 21.605469 22.03125 Z M 21.605469 22.03125 " fill-opacity="1" fill-rule="nonzero"/><path fill="#ffffff" d="M 27.503906 19.519531 C 27.3125 19.800781 27.0625 20.015625 26.75 20.15625 C 26.394531 20.324219 26.019531 20.414062 25.625 20.429688 L 25.625 21.089844 C 25.628906 21.167969 25.601562 21.234375 25.546875 21.289062 C 25.410156 21.410156 25.277344 21.410156 25.136719 21.296875 C 25.082031 21.238281 25.054688 21.171875 25.058594 21.089844 L 25.058594 20.429688 C 24.410156 20.390625 23.789062 20.246094 23.191406 19.992188 C 23.113281 19.960938 23.050781 19.910156 23.003906 19.839844 C 22.878906 19.664062 22.890625 19.496094 23.035156 19.339844 C 23.109375 19.257812 23.199219 19.21875 23.308594 19.222656 C 23.371094 19.222656 23.429688 19.234375 23.488281 19.257812 C 23.988281 19.484375 24.511719 19.605469 25.0625 19.628906 L 25.0625 17.492188 C 24.699219 17.402344 24.34375 17.28125 24 17.128906 C 23.71875 17.003906 23.480469 16.820312 23.285156 16.578125 C 23.078125 16.308594 22.984375 16.007812 22.996094 15.671875 C 22.996094 15.351562 23.074219 15.054688 23.234375 14.78125 C 23.40625 14.488281 23.640625 14.261719 23.9375 14.101562 C 24.289062 13.910156 24.664062 13.800781 25.0625 13.777344 L 25.0625 13.125 C 25.0625 13.046875 25.089844 12.976562 25.144531 12.921875 C 25.195312 12.863281 25.261719 12.835938 25.339844 12.835938 C 25.421875 12.835938 25.488281 12.863281 25.546875 12.921875 C 25.601562 12.976562 25.628906 13.046875 25.628906 13.125 L 25.628906 13.765625 C 26.183594 13.78125 26.71875 13.882812 27.242188 14.074219 C 27.425781 14.128906 27.511719 14.25 27.5 14.445312 C 27.5 14.546875 27.464844 14.636719 27.398438 14.714844 C 27.328125 14.796875 27.238281 14.835938 27.128906 14.832031 C 27.078125 14.832031 27.027344 14.816406 26.980469 14.796875 C 26.542969 14.644531 26.09375 14.5625 25.628906 14.546875 L 25.628906 16.757812 C 26.007812 16.84375 26.375 16.957031 26.734375 17.101562 C 27.027344 17.222656 27.273438 17.410156 27.472656 17.65625 C 27.6875 17.941406 27.785156 18.265625 27.769531 18.625 C 27.769531 18.949219 27.683594 19.25 27.503906 19.519531 Z M 24.152344 16.238281 C 24.433594 16.421875 24.738281 16.546875 25.0625 16.621094 L 25.0625 14.574219 C 24.734375 14.605469 24.4375 14.71875 24.171875 14.914062 C 23.945312 15.085938 23.832031 15.320312 23.839844 15.605469 C 23.828125 15.875 23.933594 16.085938 24.152344 16.238281 Z M 26.933594 18.570312 C 26.9375 18.316406 26.828125 18.128906 26.605469 18.007812 C 26.296875 17.839844 25.96875 17.714844 25.628906 17.632812 L 25.628906 19.628906 C 26.5 19.566406 26.933594 19.214844 26.933594 18.570312 Z M 26.933594 18.570312 " fill-opacity="1" fill-rule="nonzero"/></svg>