<?xml version="1.0" standalone="no"?>
<!DOCTYPE svg PUBLIC "-//W3C//DTD SVG 1.1//EN" "http://www.w3.org/Graphics/SVG/1.1/DTD/svg11.dtd">
<svg xmlns="http://www.w3.org/2000/svg" width="663" height="459" viewBox="0 0 663 459" fill="none">
<g clip-path="url(#clip0_8_3)">
<path d="M6.26439 173.737H6.44355L109.179 217.71L249.742 277.876C250.292 278.107 250.881 278.228 251.477 278.231C252.073 278.234 252.663 278.12 253.215 277.894L398.235 217.585L503.494 173.809L503.655 173.737H503.834C505.495 173.739 507.087 174.401 508.262 175.578C509.436 176.755 510.097 178.351 510.099 180.016V452.721C510.097 454.385 509.436 455.982 508.262 457.159C507.087 458.336 505.495 458.998 503.834 459H6.26439C4.60354 458.998 3.01127 458.336 1.83687 457.159C0.662471 455.982 0.00186311 454.385 2.02656e-05 452.721V180.016C0.00186311 178.351 0.662471 176.755 1.83687 175.578C3.01127 174.401 4.60354 173.739 6.26439 173.737V173.737Z" fill="white"/>
<path d="M4.47527 175.531C4.65795 175.531 4.83625 175.475 4.98609 175.37L252.481 2.59436C253.235 2.07101 254.129 1.79133 255.046 1.7929C255.962 1.79447 256.856 2.0772 257.608 2.60312L503.32 175.368C503.416 175.436 503.525 175.484 503.64 175.51C503.755 175.535 503.873 175.538 503.989 175.518C504.105 175.497 504.215 175.454 504.315 175.391C504.414 175.328 504.5 175.245 504.567 175.149C504.634 175.053 504.682 174.944 504.708 174.829C504.733 174.714 504.736 174.595 504.716 174.479C504.695 174.363 504.653 174.252 504.59 174.152C504.526 174.053 504.444 173.967 504.348 173.899L258.636 1.13401C257.583 0.397848 256.332 0.00212209 255.049 8.51087e-06C253.766 -0.00210507 252.513 0.389491 251.458 1.12219L3.9632 173.897C3.80685 174.007 3.68932 174.163 3.62778 174.344C3.56623 174.525 3.56386 174.72 3.621 174.903C3.67814 175.085 3.7918 175.244 3.94545 175.357C4.09911 175.47 4.28476 175.531 4.47533 175.531L4.47527 175.531Z" fill="#3F3D56"/>
<path d="M489.279 181.655L254.803 7.46265L18.5468 194.05L242.722 327.262L364.429 299.454L489.279 181.655Z" fill="#E6E6E6"/>
<path d="M354.156 409.542H469.993C470.704 409.543 471.409 409.403 472.066 409.131C472.724 408.859 473.321 408.459 473.824 407.956C474.328 407.452 474.727 406.853 474.999 406.195C475.272 405.536 475.412 404.83 475.412 404.117C475.412 403.404 475.272 402.698 474.999 402.04C474.727 401.381 474.328 400.783 473.824 400.279C473.321 399.775 472.724 399.376 472.066 399.103C471.409 398.831 470.704 398.691 469.993 398.692H354.156C353.444 398.691 352.74 398.831 352.082 399.103C351.425 399.376 350.828 399.775 350.324 400.279C349.821 400.783 349.422 401.381 349.149 402.04C348.877 402.698 348.737 403.404 348.737 404.117C348.737 404.83 348.877 405.536 349.149 406.195C349.422 406.853 349.821 407.452 350.324 407.956C350.828 408.459 351.425 408.859 352.082 409.131C352.74 409.403 353.444 409.543 354.156 409.542V409.542Z" fill="#6C63FF"/>
<path d="M428.433 386.219H469.993C470.704 386.22 471.409 386.08 472.066 385.808C472.724 385.536 473.321 385.136 473.824 384.632C474.328 384.128 474.727 383.53 474.999 382.871C475.272 382.213 475.412 381.507 475.412 380.794C475.412 380.081 475.272 379.375 474.999 378.716C474.727 378.058 474.328 377.459 473.824 376.955C473.321 376.452 472.724 376.052 472.066 375.78C471.409 375.508 470.704 375.368 469.993 375.369H428.433C427.722 375.368 427.017 375.508 426.36 375.78C425.703 376.052 425.105 376.452 424.602 376.955C424.099 377.459 423.699 378.058 423.427 378.716C423.155 379.375 423.014 380.081 423.014 380.794C423.014 381.507 423.155 382.213 423.427 382.871C423.699 383.53 424.099 384.128 424.602 384.632C425.105 385.136 425.703 385.536 426.36 385.808C427.017 386.08 427.722 386.22 428.433 386.219Z" fill="#6C63FF"/>
<path d="M251.505 278.678C252.386 278.679 253.258 278.508 254.073 278.174L398.682 218.028V29.7595C398.68 28.0947 398.02 26.4986 396.845 25.3214C395.671 24.1442 394.079 23.482 392.418 23.4801H114.996C113.335 23.482 111.743 24.1442 110.568 25.3214C109.394 26.4986 108.733 28.0947 108.731 29.7595V218.159L109.003 218.276L248.86 278.145C249.697 278.498 250.597 278.679 251.505 278.678V278.678Z" fill="white"/>
<path d="M251.505 279.126C252.444 279.127 253.374 278.945 254.243 278.589L399.13 218.327V29.7594C399.128 27.9757 398.42 26.2656 397.161 25.0043C395.903 23.743 394.197 23.0335 392.418 23.0315H114.996C113.216 23.0335 111.51 23.743 110.252 25.0043C108.994 26.2656 108.286 27.9757 108.284 29.7594V218.455L248.684 278.557C249.577 278.934 250.536 279.127 251.505 279.126V279.126ZM397.34 217.129L253.561 276.931C252.22 277.476 250.718 277.467 249.383 276.906L110.074 217.271V29.7594C110.075 28.4514 110.594 27.1973 111.517 26.2724C112.44 25.3475 113.691 24.8272 114.996 24.8256H392.418C393.723 24.8272 394.974 25.3475 395.896 26.2724C396.819 27.1973 397.338 28.4514 397.34 29.7594V217.129Z" fill="#3F3D56"/>
<path d="M6.26439 173.737H6.44355L109.179 217.71L249.742 277.876C250.292 278.107 250.881 278.228 251.477 278.231C252.073 278.234 252.663 278.12 253.215 277.894L398.235 217.585L503.494 173.809L503.655 173.737H503.834C505.495 173.739 507.087 174.401 508.262 175.578C509.436 176.755 510.097 178.351 510.099 180.016V452.721C510.097 454.385 509.436 455.982 508.262 457.159C507.087 458.336 505.495 458.998 503.834 459H6.26439C4.60354 458.998 3.01127 458.336 1.83687 457.159C0.662471 455.982 0.00186311 454.385 2.02656e-05 452.721V180.016C0.00186311 178.351 0.662471 176.755 1.83687 175.578C3.01127 174.401 4.60354 173.739 6.26439 173.737V173.737ZM1.78984 452.721C1.79031 453.91 2.26187 455.051 3.10091 455.892C3.93994 456.733 5.07781 457.205 6.26439 457.206H503.834C505.021 457.205 506.159 456.733 506.998 455.892C507.837 455.051 508.308 453.91 508.309 452.721V180.016C508.307 178.856 507.858 177.742 507.056 176.906C506.254 176.07 505.16 175.577 504.004 175.531L398.235 219.522L253.904 279.553C252.341 280.191 250.591 280.181 249.035 279.526L109.179 219.657L6.08523 175.531C4.93105 175.581 3.84053 176.075 3.0405 176.91C2.24046 177.746 1.7925 178.858 1.78984 180.016V452.721Z" fill="#3F3D56"/>
<path d="M274.018 93.8554H372.459C374.357 93.8554 376.178 93.0993 377.521 91.7535C378.864 90.4077 379.618 88.5823 379.618 86.679C379.618 84.7757 378.864 82.9503 377.521 81.6045C376.178 80.2586 374.357 79.5026 372.459 79.5026H274.018C272.12 79.5026 270.299 80.2586 268.956 81.6045C267.613 82.9503 266.859 84.7757 266.859 86.679C266.859 88.5823 267.613 90.4077 268.956 91.7535C270.299 93.0993 272.12 93.8554 274.018 93.8554Z" fill="#6C63FF"/>
<path d="M325.028 63.3556H372.459C374.357 63.3556 376.178 62.5995 377.521 61.2536C378.864 59.9078 379.618 58.0824 379.618 56.1791C379.618 54.2758 378.864 52.4505 377.521 51.1046C376.178 49.7588 374.357 49.0027 372.459 49.0027H325.028C323.13 49.0027 321.309 49.7588 319.966 51.1046C318.623 52.4505 317.869 54.2758 317.869 56.1791C317.869 58.0824 318.623 59.9078 319.966 61.2536C321.309 62.5995 323.13 63.3556 325.028 63.3556Z" fill="#6C63FF"/>
<path d="M180.081 165.62H330.426C332.325 165.62 334.146 164.864 335.488 163.518C336.831 162.172 337.585 160.347 337.585 158.443C337.585 156.54 336.831 154.715 335.488 153.369C334.146 152.023 332.325 151.267 330.426 151.267H180.081C178.182 151.267 176.361 152.023 175.019 153.369C173.676 154.715 172.922 156.54 172.922 158.443C172.922 160.347 173.676 162.172 175.019 163.518C176.361 164.864 178.182 165.62 180.081 165.62Z" fill="#CCCCCC"/>
<path d="M180.081 198.811H330.426C332.325 198.811 334.146 198.055 335.488 196.709C336.831 195.363 337.585 193.538 337.585 191.634C337.585 189.731 336.831 187.906 335.488 186.56C334.146 185.214 332.325 184.458 330.426 184.458H180.081C178.182 184.458 176.361 185.214 175.019 186.56C173.676 187.906 172.922 189.731 172.922 191.634C172.922 193.538 173.676 195.363 175.019 196.709C176.361 198.055 178.182 198.811 180.081 198.811Z" fill="#CCCCCC"/>
<path d="M626.355 207.2C627.285 207.199 628.186 206.875 628.906 206.284C629.625 205.693 630.119 204.871 630.303 203.957L633.559 187.685C635.286 179.054 633.522 170.089 628.654 162.762C623.787 155.434 616.216 150.346 607.605 148.615C598.995 146.883 590.051 148.652 582.742 153.531C575.432 158.41 570.355 166 568.628 174.631L565.373 190.902C565.164 191.952 565.379 193.042 565.971 193.932C566.562 194.823 567.482 195.442 568.529 195.654L625.562 207.121C625.823 207.173 626.089 207.2 626.355 207.2Z" fill="#2F2E41"/>
<path d="M525.105 449.477L535.336 449.476L540.2 409.92L525.102 409.921L525.105 449.477Z" fill="#A0616A"/>
<path d="M542.644 446.546H522.913V458.998H555.067C555.067 455.696 553.758 452.528 551.428 450.193C549.098 447.858 545.938 446.546 542.644 446.546Z" fill="#2F2E41"/>
<path d="M631.706 449.374L641.127 445.375L630.219 407.047L616.316 412.951L631.706 449.374Z" fill="#A0616A"/>
<path d="M646.716 439.82L628.547 447.533L633.392 459L663 446.43C662.364 444.924 661.438 443.559 660.275 442.411C659.112 441.264 657.736 440.358 656.224 439.744C654.711 439.13 653.093 438.821 651.462 438.834C649.831 438.847 648.218 439.182 646.716 439.82V439.82Z" fill="#2F2E41"/>
<path d="M600.156 203.123C588.017 203.123 578.176 193.258 578.176 181.09C578.176 168.922 588.017 159.057 600.156 159.057C612.295 159.057 622.136 168.922 622.136 181.09C622.136 193.258 612.295 203.123 600.156 203.123Z" fill="#A0616A"/>
<path d="M599.116 281.319L599.341 280.585C605.331 261.07 611.521 240.9 617.721 221.716L617.889 221.198L617.508 220.81C607.885 210.997 589.857 207.083 575.573 211.708C561.198 216.36 551.291 229.408 552.529 242.06C553.188 249.66 551.151 257.25 546.777 263.493L546.203 264.327L547.1 264.797C563.159 273.08 580.481 278.627 598.357 281.209L599.116 281.319Z" fill="#3F3D56"/>
<path d="M625.625 442.266C626.408 442.265 627.178 442.057 627.856 441.663L639.729 434.789C640.703 434.232 641.431 433.327 641.768 432.255C642.105 431.183 642.026 430.023 641.546 429.007L615.163 366.256L595.001 274.734L558.255 261.341L557.921 261.495C518.525 279.635 521.57 409.657 522.581 435.537C522.627 436.626 523.066 437.661 523.816 438.449C524.567 439.238 525.578 439.726 526.66 439.822L537.71 441.269C538.834 441.368 539.953 441.042 540.849 440.356C541.745 439.669 542.352 438.671 542.551 437.558L565.109 336.501C565.132 336.309 565.215 336.13 565.348 335.99C565.481 335.849 565.655 335.756 565.845 335.723C566.027 335.687 566.215 335.711 566.383 335.791C566.551 335.87 566.689 336.001 566.778 336.164L621.712 439.967C622.001 440.488 622.392 440.945 622.861 441.313C623.329 441.68 623.867 441.95 624.441 442.106C624.827 442.212 625.225 442.265 625.625 442.266V442.266Z" fill="#2F2E41"/>
<path d="M612.428 350.043C611.734 349.029 611.27 347.875 611.07 346.662C610.869 345.448 610.936 344.206 611.266 343.021C611.596 341.837 612.182 340.74 612.981 339.807C613.78 338.874 614.773 338.128 615.891 337.621L615.29 318.408L626.849 315.195L627.317 342.339C628.042 344.277 628.032 346.415 627.289 348.347C626.546 350.279 625.122 351.871 623.286 352.82C621.451 353.77 619.332 354.012 617.331 353.5C615.329 352.988 613.585 351.758 612.428 350.043H612.428Z" fill="#A0616A"/>
<path d="M627.146 329.735L627.825 329.731C628.943 329.724 630.017 329.294 630.833 328.529C631.65 327.763 632.149 326.717 632.23 325.599C633.339 311.29 636.743 262.549 634.002 236.123C633.638 233.657 632.785 231.289 631.492 229.159C630.199 227.03 628.493 225.183 626.475 223.726C624.456 222.27 622.167 221.235 619.742 220.681C617.317 220.128 614.806 220.069 612.358 220.506L611.652 220.663L611.657 221.388C611.909 256.156 611.893 290.721 611.877 324.148C611.874 325.169 612.219 326.16 612.855 326.958C613.49 327.755 614.378 328.311 615.372 328.535C619.245 329.338 623.191 329.74 627.146 329.735Z" fill="#6C63FF"/>
<path d="M600.834 371.433C603.793 371.42 606.645 370.326 608.857 368.355C611.068 366.385 612.487 363.674 612.846 360.73L611.873 280.487L627.783 240.147C628.453 234.847 627.316 229.477 624.556 224.907C621.797 220.337 617.578 216.836 612.584 214.972L608.33 213.373C607.526 213.071 606.671 212.931 605.813 212.961C604.955 212.991 604.112 213.191 603.331 213.548C602.551 213.906 601.848 214.415 601.264 215.045C600.68 215.676 600.226 216.416 599.927 217.222L583.521 261.624L583.517 261.689C582.379 279.361 577.245 367.316 587.482 369.94C591.82 370.959 596.262 371.46 600.718 371.432L600.834 371.433Z" fill="#6C63FF"/>
<path d="M506.316 319.749C507.453 319.286 508.475 318.58 509.31 317.679C510.145 316.778 510.773 315.704 511.149 314.534C511.525 313.364 511.641 312.125 511.488 310.905C511.335 309.684 510.917 308.513 510.263 307.472L521.337 291.779L513.465 282.708L498.137 305.089C496.466 306.306 495.298 308.094 494.854 310.117C494.411 312.139 494.723 314.254 495.731 316.061C496.739 317.868 498.374 319.241 500.325 319.921C502.276 320.6 504.407 320.539 506.316 319.749H506.316Z" fill="#A0616A"/>
<path d="M517.374 299.581C517.953 299.564 518.519 299.407 519.024 299.125C519.53 298.843 519.96 298.443 520.28 297.959L520.338 297.871C538.661 270.071 557.608 241.325 576.811 212.668L577.018 212.36L576.754 212.099C575.069 210.523 573.085 209.304 570.919 208.517C568.753 207.73 566.45 207.389 564.15 207.517C561.781 207.56 559.449 208.104 557.304 209.112C555.16 210.12 553.251 211.571 551.704 213.369C534.923 233.835 510.974 276.314 504.033 288.847C503.595 289.625 503.465 290.54 503.67 291.409C503.875 292.279 504.399 293.039 505.137 293.539C508.545 295.865 512.196 297.812 516.024 299.345C516.454 299.514 516.913 299.594 517.374 299.581Z" fill="#6C63FF"/>
<path d="M523.526 353.549C534.501 353.556 573.77 277.764 581.53 262.57L581.597 262.386L590.182 215.893C590.338 215.047 590.326 214.178 590.147 213.337C589.967 212.496 589.624 211.698 589.136 210.99C588.648 210.282 588.025 209.678 587.304 209.212C586.583 208.746 585.776 208.427 584.932 208.274L580.461 207.464C575.219 206.5 569.807 207.342 565.102 209.851C560.397 212.359 556.677 216.389 554.544 221.284L543.327 268.548L505.819 332.429C504.587 335.166 504.406 338.262 505.31 341.124C506.214 343.986 508.141 346.414 510.72 347.941C514.532 350.252 518.604 352.103 522.851 353.454C523.07 353.518 523.298 353.55 523.526 353.549H523.526Z" fill="#6C63FF"/>
<path d="M583.085 181.281H627.383V175.898C627.376 169.952 625.017 164.252 620.823 160.048C616.629 155.844 610.942 153.479 605.01 153.472H601.431C595.499 153.479 589.812 155.844 585.618 160.048C581.424 164.252 579.065 169.952 579.058 175.898V177.244C579.059 178.314 579.484 179.34 580.239 180.097C580.994 180.854 582.017 181.279 583.085 181.281V181.281Z" fill="#2F2E41"/>
</g>
<defs>
<clipPath id="clip0_8_3">
<rect width="663" height="459" fill="white" transform="matrix(-1 0 0 1 663 0)"/>
</clipPath>
</defs>
</svg>