<svg xmlns="http://www.w3.org/2000/svg" xmlns:xlink="http://www.w3.org/1999/xlink" width="72" zoomAndPan="magnify" viewBox="0 0 54 54" height="72" preserveAspectRatio="xMidYMid meet" version="1.0"><defs><clipPath id="a36d2e044e"><path d="M 3.066406 2.578125 L 50.933594 2.578125 L 50.933594 50.441406 L 3.066406 50.441406 Z M 3.066406 2.578125 " clip-rule="nonzero"/></clipPath></defs><g clip-path="url(#a36d2e044e)"><path fill="#ffffff" d="M 26.988281 6.894531 C 33.375 6.894531 34.132812 6.914062 36.660156 7.027344 C 38.988281 7.132812 40.253906 7.523438 41.105469 7.859375 C 42.21875 8.289062 43.015625 8.8125 43.851562 9.652344 C 44.691406 10.488281 45.207031 11.285156 45.644531 12.398438 C 45.972656 13.238281 46.359375 14.507812 46.476562 16.84375 C 46.589844 19.371094 46.609375 20.128906 46.609375 26.515625 C 46.609375 32.902344 46.589844 33.65625 46.476562 36.183594 C 46.371094 38.511719 45.980469 39.78125 45.644531 40.628906 C 45.214844 41.742188 44.691406 42.539062 43.851562 43.378906 C 43.015625 44.214844 42.21875 44.730469 41.105469 45.171875 C 40.265625 45.496094 38.996094 45.882812 36.660156 46 C 34.132812 46.113281 33.375 46.136719 26.988281 46.136719 C 20.601562 46.136719 19.847656 46.113281 17.320312 46 C 14.992188 45.894531 13.722656 45.507812 12.875 45.171875 C 11.761719 44.742188 10.964844 44.214844 10.125 43.378906 C 9.285156 42.539062 8.773438 41.742188 8.332031 40.628906 C 8.007812 39.792969 7.621094 38.523438 7.503906 36.183594 C 7.390625 33.65625 7.367188 32.902344 7.367188 26.515625 C 7.367188 20.128906 7.390625 19.371094 7.503906 16.84375 C 7.609375 14.515625 7.996094 13.246094 8.332031 12.398438 C 8.761719 11.285156 9.285156 10.488281 10.125 9.652344 C 10.964844 8.8125 11.761719 8.296875 12.875 7.859375 C 13.710938 7.53125 14.980469 7.144531 17.320312 7.027344 C 19.847656 6.914062 20.601562 6.894531 26.988281 6.894531 M 26.988281 2.582031 C 20.488281 2.582031 19.679688 2.613281 17.121094 2.730469 C 14.574219 2.84375 12.832031 3.253906 11.3125 3.839844 C 9.738281 4.449219 8.40625 5.265625 7.074219 6.597656 C 5.753906 7.929688 4.933594 9.261719 4.328125 10.835938 C 3.738281 12.355469 3.332031 14.097656 3.214844 16.644531 C 3.101562 19.195312 3.066406 20.011719 3.066406 26.503906 C 3.066406 33.007812 3.101562 33.8125 3.214844 36.371094 C 3.332031 38.921875 3.738281 40.660156 4.328125 42.183594 C 4.933594 43.753906 5.753906 45.085938 7.085938 46.417969 C 8.417969 47.75 9.75 48.570312 11.320312 49.175781 C 12.84375 49.765625 14.582031 50.171875 17.132812 50.289062 C 19.679688 50.402344 20.496094 50.4375 27 50.4375 C 33.503906 50.4375 34.308594 50.402344 36.867188 50.289062 C 39.417969 50.171875 41.15625 49.765625 42.679688 49.175781 C 44.25 48.570312 45.582031 47.75 46.914062 46.417969 C 48.246094 45.085938 49.066406 43.753906 49.671875 42.183594 C 50.261719 40.660156 50.667969 38.921875 50.785156 36.371094 C 50.898438 33.824219 50.933594 33.007812 50.933594 26.503906 C 50.933594 20 50.898438 19.195312 50.785156 16.636719 C 50.667969 14.085938 50.261719 12.347656 49.671875 10.824219 C 49.066406 9.253906 48.246094 7.921875 46.914062 6.589844 C 45.582031 5.257812 44.25 4.4375 42.679688 3.832031 C 41.15625 3.242188 39.417969 2.835938 36.867188 2.71875 C 34.308594 2.613281 33.492188 2.582031 26.988281 2.582031 " fill-opacity="1" fill-rule="nonzero"/></g><path fill="#ffffff" d="M 26.988281 14.222656 C 20.203125 14.222656 14.710938 19.71875 14.710938 26.503906 C 14.710938 33.289062 20.214844 38.792969 27 38.792969 C 33.785156 38.792969 39.289062 33.300781 39.289062 26.503906 C 39.28125 19.71875 33.773438 14.222656 26.988281 14.222656 M 26.988281 34.484375 C 22.585938 34.484375 19.019531 30.917969 19.019531 26.515625 C 19.019531 22.109375 22.585938 18.542969 26.988281 18.542969 C 31.394531 18.542969 34.960938 22.109375 34.960938 26.515625 C 34.96875 30.910156 31.394531 34.484375 26.988281 34.484375 " fill-opacity="1" fill-rule="nonzero"/><path fill="#ffffff" d="M 42.636719 13.742188 C 42.636719 15.324219 41.347656 16.613281 39.761719 16.613281 C 38.179688 16.613281 36.890625 15.324219 36.890625 13.742188 C 36.890625 12.15625 38.179688 10.867188 39.761719 10.867188 C 41.347656 10.867188 42.636719 12.148438 42.636719 13.742188 " fill-opacity="1" fill-rule="nonzero"/></svg>