<svg xmlns="http://www.w3.org/2000/svg" xmlns:xlink="http://www.w3.org/1999/xlink" width="72" zoomAndPan="magnify" viewBox="0 0 54 54" height="72" preserveAspectRatio="xMidYMid meet" version="1.0"><defs><clipPath id="0287a9a927"><path d="M 3.234375 3 L 51.097656 3 L 51.097656 50.75 L 3.234375 50.75 Z M 3.234375 3 " clip-rule="nonzero"/></clipPath></defs><path fill="#ffffff" d="M 39.132812 29.492188 L 39.132812 38.257812 L 34.003906 38.257812 L 34.003906 30.078125 C 34.003906 28.023438 33.261719 26.621094 31.402344 26.621094 C 29.988281 26.621094 29.144531 27.566406 28.773438 28.480469 C 28.636719 28.808594 28.601562 29.265625 28.601562 29.71875 L 28.601562 38.257812 L 23.472656 38.257812 C 23.472656 38.257812 23.539062 24.40625 23.472656 22.972656 L 28.601562 22.972656 L 28.601562 25.136719 L 28.570312 25.1875 L 28.601562 25.1875 L 28.601562 25.140625 C 29.285156 24.097656 30.5 22.613281 33.226562 22.613281 C 36.597656 22.613281 39.132812 24.796875 39.132812 29.492188 Z M 18.105469 15.601562 C 16.351562 15.601562 15.199219 16.746094 15.199219 18.242188 C 15.199219 19.710938 16.316406 20.886719 18.035156 20.886719 L 18.070312 20.886719 C 19.859375 20.886719 20.972656 19.710938 20.972656 18.242188 C 20.941406 16.746094 19.859375 15.601562 18.105469 15.601562 Z M 15.503906 38.257812 L 20.636719 38.257812 L 20.636719 22.972656 L 15.503906 22.972656 Z M 15.503906 38.257812 " fill-opacity="1" fill-rule="nonzero"/><g clip-path="url(#0287a9a927)"><path fill="#ffffff" d="M 12.808594 7.847656 C 11.539062 7.847656 10.320312 8.347656 9.421875 9.234375 C 8.527344 10.125 8.023438 11.332031 8.023438 12.589844 L 8.023438 41.035156 C 8.023438 42.292969 8.527344 43.5 9.421875 44.390625 C 10.320312 45.277344 11.539062 45.777344 12.808594 45.777344 L 41.523438 45.777344 C 42.792969 45.777344 44.011719 45.277344 44.910156 44.390625 C 45.804688 43.5 46.308594 42.292969 46.308594 41.035156 L 46.308594 12.589844 C 46.308594 11.332031 45.804688 10.125 44.910156 9.234375 C 44.011719 8.347656 42.792969 7.847656 41.523438 7.847656 Z M 12.808594 3.105469 L 41.523438 3.105469 C 44.0625 3.105469 46.496094 4.105469 48.292969 5.882812 C 50.085938 7.660156 51.097656 10.074219 51.097656 12.589844 L 51.097656 41.035156 C 51.097656 43.550781 50.085938 45.964844 48.292969 47.742188 C 46.496094 49.519531 44.0625 50.519531 41.523438 50.519531 L 12.808594 50.519531 C 10.269531 50.519531 7.835938 49.519531 6.039062 47.742188 C 4.246094 45.964844 3.234375 43.550781 3.234375 41.035156 L 3.234375 12.589844 C 3.234375 10.074219 4.246094 7.660156 6.039062 5.882812 C 7.835938 4.105469 10.269531 3.105469 12.808594 3.105469 Z M 12.808594 3.105469 " fill-opacity="1" fill-rule="nonzero"/></g></svg>