<svg width="270" height="62" viewBox="0 0 270 62" fill="none" xmlns="http://www.w3.org/2000/svg">
<path d="M2.624 30.2417C1.1748 30.2417 5.06862e-08 29.0821 1.13211e-07 27.6517L7.45334e-07 13.1904C8.07859e-07 11.76 1.17481 10.6005 2.624 10.6005L17.4849 10.6005C18.9341 10.6005 20.1089 11.76 20.1089 13.1904L20.1089 23.9107C20.1089 27.4072 17.2371 30.2417 13.6946 30.2417L2.624 30.2417Z" fill="white"/>
<path d="M22.8588 12.7568C22.8588 11.3076 24.0183 10.1328 25.4487 10.1328H39.91C41.3404 10.1328 42.5 11.3076 42.5 12.7568V27.6177C42.5 29.0669 41.3404 30.2417 39.91 30.2417H29.1898C25.6933 30.2417 22.8588 27.3699 22.8588 23.8275V12.7568Z" fill="white"/>
<path d="M2.624 32.9917C1.1748 32.9917 5.06862e-08 34.1513 1.13211e-07 35.5817L7.45334e-07 50.043C8.07859e-07 51.4734 1.17481 52.6329 2.624 52.6329L17.4849 52.6329C18.9341 52.6329 20.1089 51.4734 20.1089 50.043L20.1089 39.3227C20.1089 35.8262 17.2371 32.9917 13.6946 32.9917L2.624 32.9917Z" fill="white"/>
<path d="M40.1145 32.9917C41.5637 32.9917 42.7385 34.1513 42.7385 35.5817L42.7385 50.043C42.7385 51.4734 41.5637 52.6329 40.1145 52.6329L25.2536 52.6329C23.8044 52.6329 22.6296 51.4734 22.6296 50.043L22.6296 39.3227C22.6296 35.8262 25.5014 32.9917 29.0439 32.9917L40.1145 32.9917Z" fill="white"/>
<path d="M69.1449 43.8828L63.8615 34.365C66.2701 33.5103 69.0283 31.1017 69.0283 26.5953C69.0283 21.7781 65.7651 17.971 60.0155 17.971H47.0402V43.8828H53.7221V35.1808H57.1407L61.4917 43.8828H69.1449ZM59.0054 29.3535H53.7221V23.7982H59.0054C60.7536 23.7982 62.2299 24.8083 62.2299 26.5565C62.2299 28.3823 60.7536 29.3535 59.0054 29.3535ZM90.7303 43.8828V25.1191H84.7476V37.2397C84.0483 38.1333 82.8829 39.0656 81.1736 39.0656C79.2312 39.0656 78.0657 38.2887 78.0657 36.0355V25.1191H72.0831V38.4829C72.0831 41.9404 73.9866 44.349 78.2599 44.349C81.4067 44.349 83.5822 42.9505 84.7476 41.6296V43.8828H90.7303ZM100.57 37.3951V31.6456C101.309 30.6355 102.862 29.9363 104.144 29.9363C106.514 29.9363 108.301 31.6844 108.301 34.4815C108.301 37.3174 106.514 39.0656 104.144 39.0656C102.862 39.0656 101.309 38.4052 100.57 37.3951ZM100.57 43.8828V41.7073C102.124 43.4943 104.028 44.349 106.126 44.349C110.749 44.349 114.4 40.8526 114.4 34.4815C114.4 28.3435 110.788 24.6529 106.126 24.6529C104.067 24.6529 102.047 25.4687 100.57 27.3334V17.971H94.5878V43.8828H100.57ZM126.067 44.349C129.136 44.349 130.885 43.1835 132.477 41.2023L131.623 40.4642C130.108 42.5231 128.321 43.3001 126.145 43.3001C121.328 43.3001 118.492 39.3764 118.492 34.4815C118.492 29.5866 121.328 25.7018 126.145 25.7018C128.321 25.7018 130.108 26.4399 131.623 28.4989L132.477 27.7996C130.885 25.8183 129.136 24.6529 126.067 24.6529C120.629 24.6529 117.21 29.0816 117.21 34.4815C117.21 39.8814 120.629 44.349 126.067 44.349ZM150.723 43.8828V25.1191H149.558V39.8814C148.237 41.7462 145.478 43.3001 142.914 43.3001C140.001 43.3001 138.058 42.2123 138.058 38.2887V25.1191H136.893V38.2887C136.893 42.7174 139.03 44.349 142.759 44.349C145.362 44.349 147.965 42.7951 149.558 41.008V43.8828H150.723ZM158.097 39.5706V29.5089C159.263 27.5277 161.943 25.7018 164.857 25.7018C169.441 25.7018 171.966 29.5866 171.966 34.5204C171.966 39.4541 169.441 43.3001 164.857 43.3001C161.943 43.3001 159.263 41.5519 158.097 39.5706ZM158.097 43.8828V40.7361C159.379 42.6785 161.904 44.349 164.857 44.349C169.907 44.349 173.248 40.4642 173.248 34.5204C173.248 28.6154 169.907 24.6529 164.857 24.6529C162.06 24.6529 159.612 26.1291 158.097 28.3435V17.971H156.932V43.8828H158.097ZM186.647 44.349C189.794 44.349 191.969 43.1835 193.873 41.2023L193.174 40.4642C191.425 42.3289 189.289 43.3001 186.647 43.3001C181.869 43.3001 178.877 39.4541 178.761 34.87H194.961V34.4815C194.961 29.2758 192.008 24.6529 186.259 24.6529C181.208 24.6529 177.44 29.0428 177.44 34.4815C177.44 40.1922 181.208 44.349 186.647 44.349ZM193.717 33.8211H178.761C178.877 30.1305 181.403 25.7018 186.22 25.7018C191.348 25.7018 193.717 30.2082 193.717 33.8211Z" fill="white"/>
</svg>
