<svg xmlns="http://www.w3.org/2000/svg" xmlns:xlink="http://www.w3.org/1999/xlink" width="767" zoomAndPan="magnify" viewBox="0 0 575.25 704.250001" height="939" preserveAspectRatio="xMidYMid meet" version="1.0"><defs><clipPath id="fcd242a4d9"><path d="M 0 0.0859375 L 574.5 0.0859375 L 574.5 703.417969 L 0 703.417969 Z M 0 0.0859375 " clip-rule="nonzero"/></clipPath><clipPath id="7845afe7cb"><path d="M 40.035156 344 L 115 344 L 115 420.351562 L 40.035156 420.351562 Z M 40.035156 344 " clip-rule="nonzero"/></clipPath><clipPath id="c55c22debc"><path d="M 125 344 L 202 344 L 202 420.351562 L 125 420.351562 Z M 125 344 " clip-rule="nonzero"/></clipPath><clipPath id="52c68c7007"><path d="M 125 257.066406 L 202 257.066406 L 202 336 L 125 336 Z M 125 257.066406 " clip-rule="nonzero"/></clipPath><clipPath id="52da6b53b4"><path d="M 40.035156 257.066406 L 115 257.066406 L 115 336 L 40.035156 336 Z M 40.035156 257.066406 " clip-rule="nonzero"/></clipPath></defs><g clip-path="url(#fcd242a4d9)"><path fill="#ffffff" d="M 0 0.0859375 L 575.25 0.0859375 L 575.25 711.65625 L 0 711.65625 Z M 0 0.0859375 " fill-opacity="1" fill-rule="nonzero"/><path fill="#ffffff" d="M 0 0.0859375 L 574.5 0.0859375 L 574.5 703.417969 L 0 703.417969 Z M 0 0.0859375 " fill-opacity="1" fill-rule="nonzero"/><path fill="#ffffff" d="M 0 0.0859375 L 574.5 0.0859375 L 574.5 703.417969 L 0 703.417969 Z M 0 0.0859375 " fill-opacity="1" fill-rule="nonzero"/></g><g clip-path="url(#7845afe7cb)"><path fill="#6b7ae5" d="M 40.035156 354.058594 C 40.035156 348.582031 44.421875 344.140625 49.828125 344.140625 L 90.367188 344.140625 C 103.585938 344.140625 114.304688 354.996094 114.304688 368.390625 L 114.304688 410.242188 C 114.304688 415.722656 109.917969 420.164062 104.511719 420.164062 L 49.828125 420.164062 C 44.421875 420.164062 40.035156 415.722656 40.035156 410.242188 Z M 40.035156 354.058594 " fill-opacity="1" fill-rule="nonzero"/></g><g clip-path="url(#c55c22debc)"><path fill="#6b7ae5" d="M 125.171875 368.390625 C 125.171875 354.996094 136.152344 344.140625 149.695312 344.140625 L 191.21875 344.140625 C 196.757812 344.140625 201.25 348.582031 201.25 354.058594 L 201.25 410.242188 C 201.25 415.722656 196.757812 420.164062 191.21875 420.164062 L 135.203125 420.164062 C 129.664062 420.164062 125.171875 415.722656 125.171875 410.242188 Z M 125.171875 368.390625 " fill-opacity="1" fill-rule="nonzero"/></g><g clip-path="url(#52c68c7007)"><path fill="#6b7ae5" d="M 125.171875 267.410156 C 125.171875 261.800781 129.664062 257.253906 135.203125 257.253906 L 191.21875 257.253906 C 196.757812 257.253906 201.25 261.800781 201.25 267.410156 L 201.25 324.933594 C 201.25 330.542969 196.757812 335.089844 191.21875 335.089844 L 149.695312 335.089844 C 136.152344 335.089844 125.171875 323.972656 125.171875 310.261719 Z M 125.171875 267.410156 " fill-opacity="1" fill-rule="nonzero"/></g><g clip-path="url(#52da6b53b4)"><path fill="#6b7ae5" d="M 40.035156 267.410156 C 40.035156 261.800781 44.421875 257.253906 49.828125 257.253906 L 104.511719 257.253906 C 109.917969 257.253906 114.304688 261.800781 114.304688 267.410156 L 114.304688 310.261719 C 114.304688 323.972656 103.585938 335.089844 90.367188 335.089844 L 49.828125 335.089844 C 44.421875 335.089844 40.035156 330.542969 40.035156 324.933594 Z M 40.035156 267.410156 " fill-opacity="1" fill-rule="nonzero"/></g><path fill="#1d1c3e" d="M 350.394531 387.601562 L 329.898438 351.023438 C 339.394531 347.742188 349.941406 338.484375 349.941406 321.167969 C 349.941406 302.65625 337.285156 288.023438 314.980469 288.023438 L 264.648438 288.023438 L 264.648438 387.601562 L 290.570312 387.601562 L 290.570312 354.160156 L 303.832031 354.160156 L 320.707031 387.601562 Z M 311.0625 331.765625 L 290.570312 331.765625 L 290.570312 310.417969 L 311.0625 310.417969 C 317.996094 310.417969 323.570312 314.152344 323.570312 321.019531 C 323.570312 328.035156 317.996094 331.765625 311.0625 331.765625 Z M 311.0625 331.765625 " fill-opacity="1" fill-rule="nonzero"/><path fill="#1d1c3e" d="M 436.007812 387.601562 L 436.007812 315.496094 L 412.800781 315.496094 L 412.800781 362.074219 C 410.085938 365.507812 405.566406 369.089844 398.9375 369.089844 C 391.402344 369.089844 386.882812 366.101562 386.882812 357.296875 L 386.882812 315.496094 L 363.671875 315.496094 L 363.671875 366.851562 C 363.671875 379.988281 371.210938 389.390625 387.632812 389.390625 C 399.992188 389.390625 408.277344 384.019531 412.800781 378.941406 L 412.800781 387.601562 Z M 436.007812 387.601562 " fill-opacity="1" fill-rule="nonzero"/><path fill="#1d1c3e" d="M 476.058594 362.667969 L 476.058594 340.574219 C 478.921875 336.695312 484.949219 334.007812 489.921875 334.007812 C 499.117188 334.007812 506.046875 340.722656 506.046875 351.472656 C 506.046875 362.371094 499.117188 369.089844 489.921875 369.089844 C 484.949219 369.089844 478.921875 366.550781 476.058594 362.667969 Z M 476.058594 387.601562 L 476.058594 379.242188 C 482.085938 386.109375 489.472656 389.390625 497.609375 389.390625 C 515.542969 389.390625 529.707031 375.957031 529.707031 351.472656 C 529.707031 327.886719 515.839844 313.703125 497.609375 313.703125 C 489.621094 313.703125 481.785156 316.839844 476.058594 324.003906 L 476.058594 288.023438 L 452.851562 288.023438 L 452.851562 387.601562 Z M 476.058594 387.601562 " fill-opacity="1" fill-rule="nonzero"/></svg>