<svg width="169" height="59" viewBox="0 0 169 59" fill="none" xmlns="http://www.w3.org/2000/svg">
<mask id="mask0_35_1645" style="mask-type:alpha" maskUnits="userSpaceOnUse" x="8" y="29" width="17" height="17">
<path d="M8.20996 29.5H24.5818V45.1488H8.20996V29.5Z" fill="white"/>
</mask>
<g mask="url(#mask0_35_1645)">
<path d="M8.23389 32.9109C8.23389 31.8968 9.09009 31.0748 10.1383 31.0748H17.9962C20.5568 31.0748 22.6373 33.0799 22.6373 35.5613V43.305C22.6373 44.3268 21.7891 45.1488 20.7408 45.1488H10.1383C9.09009 45.1488 8.23389 44.3268 8.23389 43.305V32.9109Z" fill="#6B7AE5"/>
</g>
<mask id="mask1_35_1645" style="mask-type:alpha" maskUnits="userSpaceOnUse" x="24" y="29" width="17" height="17">
<path d="M24.5818 29.5H40.9697V45.1488H24.5818V29.5Z" fill="white"/>
</mask>
<g mask="url(#mask1_35_1645)">
<path d="M24.7498 35.5613C24.7498 33.0799 26.8783 31.0748 29.5029 31.0748H37.5528C38.625 31.0748 39.4972 31.8968 39.4972 32.9109V43.305C39.4972 44.3268 38.625 45.1488 37.5528 45.1488H26.6942C25.614 45.1488 24.7498 44.3268 24.7498 43.305V35.5613Z" fill="#6B7AE5"/>
</g>
<mask id="mask2_35_1645" style="mask-type:alpha" maskUnits="userSpaceOnUse" x="24" y="14" width="17" height="16">
<path d="M24.5818 14.9882H40.9697V29.5H24.5818V14.9882Z" fill="white"/>
</mask>
<g mask="url(#mask2_35_1645)">
<path d="M24.7498 16.8703C24.7498 15.8332 25.614 14.9882 26.6942 14.9882H37.5528C38.625 14.9882 39.4972 15.8332 39.4972 16.8703V27.518C39.4972 28.5551 38.625 29.4001 37.5528 29.4001H29.5029C26.8783 29.4001 24.7498 27.3413 24.7498 24.7984V16.8703Z" fill="#6B7AE5"/>
</g>
<mask id="mask3_35_1645" style="mask-type:alpha" maskUnits="userSpaceOnUse" x="8" y="14" width="17" height="16">
<path d="M8.20996 14.9882H24.5818V29.5H8.20996V14.9882Z" fill="white"/>
</mask>
<g mask="url(#mask3_35_1645)">
<path d="M8.23389 16.8703C8.23389 15.8332 9.09009 14.9882 10.1383 14.9882H20.7408C21.7891 14.9882 22.6373 15.8332 22.6373 16.8703V24.7984C22.6373 27.3413 20.5568 29.4001 17.9962 29.4001H10.1383C9.09009 29.4001 8.23389 28.5551 8.23389 27.518V16.8703Z" fill="#6B7AE5"/>
</g>
<path d="M68.4243 39.1182L64.4474 32.3501C66.2878 31.7355 68.3363 30.0223 68.3363 26.8188C68.3363 23.3925 65.8797 20.6807 61.5507 20.6807H51.7964V39.1182H56.8216V32.9262H59.3902L62.663 39.1182H68.4243ZM60.7905 28.7778H56.8216V24.8291H60.7905C62.1348 24.8291 63.2231 25.5205 63.2231 26.7881C63.2231 28.0941 62.1348 28.7778 60.7905 28.7778Z" fill="#1D1C3E"/>
<path d="M85.0202 39.1182V25.7664H80.5232V34.3936C79.995 35.0235 79.1228 35.6919 77.8345 35.6919C76.3702 35.6919 75.498 35.1388 75.498 33.5101V25.7664H70.9929V35.277C70.9929 37.7046 72.4573 39.4485 75.642 39.4485C78.0346 39.4485 79.643 38.4575 80.5232 37.5126V39.1182H85.0202Z" fill="#1D1C3E"/>
<path d="M92.79 34.5011V30.4141C93.3422 29.692 94.5104 29.1926 95.4787 29.1926C97.2631 29.1926 98.6074 30.4372 98.6074 32.4269C98.6074 34.4473 97.2631 35.6919 95.4787 35.6919C94.5104 35.6919 93.3422 35.2232 92.79 34.5011ZM92.79 39.1182V37.5663C93.9583 38.8416 95.3906 39.4485 96.967 39.4485C100.448 39.4485 103.192 36.9594 103.192 32.4269C103.192 28.0633 100.504 25.436 96.967 25.436C95.4227 25.436 93.9023 26.0199 92.79 27.3412V20.6807H88.293V39.1182H92.79Z" fill="#1D1C3E"/>
<path d="M118.574 33.8239C118.574 34.7688 118.422 35.5908 118.126 36.2822C117.822 36.9583 117.374 37.5267 116.782 37.9723C116.182 38.4025 115.446 38.7252 114.573 38.9249C113.717 39.1323 112.717 39.2322 111.565 39.2322H106.315V20.9484H111.597C112.661 20.9484 113.557 21.0329 114.285 21.1942C115.005 21.3632 115.582 21.6167 116.014 21.9624C116.462 22.3158 116.782 22.746 116.974 23.2531C117.166 23.7447 117.262 24.3286 117.262 25.0046C117.262 26.1109 117.022 27.0174 116.558 27.7088C116.086 28.3848 115.342 28.8919 114.317 29.2145C114.893 29.299 115.438 29.4527 115.95 29.6754C116.462 29.8829 116.91 30.1825 117.294 30.5666C117.694 30.9353 118.006 31.3886 118.222 31.9187C118.454 32.4564 118.574 33.0864 118.574 33.8239ZM115.95 25.2504C115.95 24.6589 115.87 24.1596 115.726 23.7447C115.598 23.3376 115.342 22.9995 114.957 22.7307C114.589 22.4695 114.077 22.2697 113.421 22.1468C112.781 22.0239 111.933 21.9624 110.893 21.9624H107.5V28.9994H110.796C112.501 28.9994 113.781 28.7152 114.637 28.139C115.51 27.5475 115.95 26.5872 115.95 25.2504ZM117.262 33.9161C117.262 33.0557 117.11 32.3719 116.814 31.8572C116.534 31.3502 116.126 30.9584 115.598 30.6895C115.061 30.4053 114.429 30.2286 113.709 30.1671C113.005 30.0903 112.221 30.0442 111.373 30.0442H107.5V38.1874H110.989C112.029 38.1874 112.941 38.126 113.709 38.0031C114.493 37.8801 115.158 37.6573 115.694 37.327C116.222 37.0044 116.622 36.5588 116.878 36.0057C117.134 35.4525 117.262 34.7611 117.262 33.9161Z" fill="#1D1C3E"/>
<path d="M131.363 39.2322V36.9275C130.915 37.3424 130.475 37.7111 130.051 38.0338C129.643 38.3641 129.227 38.6484 128.802 38.8942C128.394 39.1247 127.97 39.2937 127.522 39.4166C127.09 39.5549 126.634 39.6317 126.146 39.6317C125.458 39.6317 124.874 39.5395 124.385 39.3551C123.913 39.1708 123.529 38.8942 123.233 38.5254C122.929 38.1567 122.705 37.7111 122.561 37.1734C122.409 36.6433 122.337 36.0287 122.337 35.3296C122.337 34.7381 122.409 34.1849 122.561 33.6702C122.705 33.1632 122.993 32.7099 123.425 32.3181C123.873 31.911 124.489 31.573 125.282 31.3041C126.066 31.0198 127.106 30.8278 128.386 30.7202L131.363 30.4437V29.7062C131.363 29.0762 131.299 28.5231 131.171 28.0468C131.059 27.5782 130.859 27.1864 130.563 26.8791C130.259 26.5564 129.859 26.3183 129.347 26.1723C128.85 26.011 128.242 25.9265 127.522 25.9265C126.922 25.9265 126.41 25.9803 125.986 26.0801C125.554 26.1877 125.186 26.3183 124.866 26.4796C124.561 26.6486 124.305 26.8407 124.097 27.0635C123.905 27.2939 123.729 27.5244 123.585 27.7702L122.721 27.2478C122.929 26.9021 123.177 26.5872 123.457 26.2952C123.729 26.011 124.065 25.7728 124.449 25.5885C124.834 25.3887 125.266 25.2351 125.762 25.1275C126.274 25.0277 126.858 24.9739 127.522 24.9739C128.434 24.9739 129.219 25.0661 129.859 25.2504C130.515 25.4348 131.043 25.7344 131.427 26.1416C131.827 26.5334 132.115 27.0327 132.291 27.6473C132.459 28.2465 132.547 28.961 132.547 29.7984V39.2322H131.363ZM131.363 31.3963L128.482 31.6728C127.458 31.7804 126.626 31.9187 125.986 32.103C125.362 32.2874 124.874 32.5333 124.513 32.8405C124.145 33.1325 123.905 33.4782 123.777 33.8853C123.649 34.2771 123.585 34.7381 123.585 35.2681C123.585 36.4589 123.785 37.327 124.193 37.8801C124.593 38.4179 125.266 38.6791 126.21 38.6791C126.53 38.6791 126.834 38.6484 127.138 38.5869C127.458 38.5101 127.81 38.3641 128.194 38.1567C128.578 37.9569 129.01 37.665 129.507 37.2963C130.019 36.9122 130.635 36.4051 131.363 35.7905V31.3963Z" fill="#1D1C3E"/>
<path d="M146.644 39.2322V30.1671C146.644 29.3067 146.588 28.6153 146.484 28.0775C146.396 27.5244 146.244 27.0942 146.036 26.7869C145.819 26.4796 145.555 26.2799 145.235 26.1723C144.915 26.0494 144.531 25.9879 144.083 25.9879C143.395 25.9879 142.627 26.2261 141.779 26.6947C140.946 27.171 140.018 27.9085 138.994 28.9072V39.2322H137.81V25.3734H138.994V27.7088C139.482 27.2632 139.954 26.8714 140.402 26.5411C140.85 26.1954 141.274 25.9111 141.682 25.6806C142.107 25.4348 142.523 25.2658 142.931 25.1583C143.355 25.0353 143.771 24.9739 144.179 24.9739C144.923 24.9739 145.531 25.0891 146.004 25.3119C146.492 25.5193 146.868 25.8343 147.124 26.2645C147.396 26.6947 147.58 27.2325 147.668 27.8624C147.772 28.477 147.828 29.1838 147.828 29.9827V39.2322H146.644Z" fill="#1D1C3E"/>
<path d="M161.639 39.2322L156.037 32.5025L154.277 34.3155V39.2322H153.093V19.5348H154.277V32.9942L161.35 25.3733H162.823L156.837 31.7343L163.143 39.2322H161.639Z" fill="#1D1C3E"/>
</svg>
