<svg width="29" height="28" viewBox="0 0 29 28" fill="none" xmlns="http://www.w3.org/2000/svg">
<path d="M16.4675 13.9985L27.4857 2.99781C27.815 2.66848 28 2.22182 28 1.75608C28 1.29034 27.815 0.843671 27.4857 0.514343C27.1563 0.185015 26.7097 0 26.2439 0C25.7782 0 25.3315 0.185015 25.0022 0.514343L14.0015 11.5325L3.00079 0.514343C2.67146 0.185015 2.2248 4.13505e-07 1.75906 4.16975e-07C1.29332 4.20445e-07 0.846655 0.185015 0.517327 0.514343C0.187999 0.843671 0.00298513 1.29034 0.00298512 1.75608C0.00298512 2.22182 0.187999 2.66848 0.517327 2.99781L11.5355 13.9985L0.517327 24.9992C0.353404 25.1618 0.223295 25.3552 0.134504 25.5683C0.0457141 25.7815 0 26.0101 0 26.2409C0 26.4718 0.0457141 26.7004 0.134504 26.9135C0.223295 27.1267 0.353404 27.3201 0.517327 27.4827C0.679912 27.6466 0.873344 27.7767 1.08647 27.8655C1.29959 27.9543 1.52818 28 1.75906 28C1.98994 28 2.21853 27.9543 2.43165 27.8655C2.64478 27.7767 2.83821 27.6466 3.00079 27.4827L14.0015 16.4645L25.0022 27.4827C25.1648 27.6466 25.3582 27.7767 25.5713 27.8655C25.7845 27.9543 26.013 28 26.2439 28C26.4748 28 26.7034 27.9543 26.9165 27.8655C27.1296 27.7767 27.3231 27.6466 27.4857 27.4827C27.6496 27.3201 27.7797 27.1267 27.8685 26.9135C27.9573 26.7004 28.003 26.4718 28.003 26.2409C28.003 26.0101 27.9573 25.7815 27.8685 25.5683C27.7797 25.3552 27.6496 25.1618 27.4857 24.9992L16.4675 13.9985Z" fill="#323070"/>
</svg>
